<svg width="23" height="16" viewBox="0 0 23 16" fill="none" xmlns="http://www.w3.org/2000/svg">
<path fill-rule="evenodd" clip-rule="evenodd" d="M7.93808 15.3299C10.3092 12.6019 12.6438 5.76594 4.10784 0.887695C5.66779 2.51979 7.87096 5.77754 7.85861 8.99137H1.84722C1.18179 8.99137 0.642359 9.46596 0.642359 10.0514V14.3501C0.642359 14.9355 1.18179 15.4101 1.84722 15.4101H7.93808L7.93808 15.3299Z" fill="#353535"/>
<path fill-rule="evenodd" clip-rule="evenodd" d="M20.1402 15.3299C22.5113 12.6019 24.846 5.76594 16.31 0.887695C17.8699 2.51979 20.0731 5.77754 20.0608 8.99137H14.0494C13.3839 8.99137 12.8445 9.46596 12.8445 10.0514V14.3501C12.8445 14.9355 13.3839 15.4101 14.0494 15.4101H20.1402L20.1402 15.3299Z" fill="#353535"/>
</svg>
