<svg width="255" height="242" viewBox="0 0 255 242" fill="none" xmlns="http://www.w3.org/2000/svg">
<path fill-rule="evenodd" clip-rule="evenodd" d="M65.3099 138.703C57.6659 138.703 50.1936 140.969 43.8378 145.216C37.4821 149.463 32.5284 155.499 29.6031 162.561C26.6779 169.623 25.9125 177.394 27.4038 184.891C28.8951 192.388 32.576 199.275 37.9811 204.68C43.3862 210.085 50.2728 213.766 57.7699 215.257C65.267 216.749 73.038 215.983 80.1001 213.058C87.1623 210.133 93.1983 205.179 97.4451 198.823C101.692 192.468 103.959 184.995 103.959 177.351H129.959C129.959 190.138 126.167 202.637 119.063 213.268C111.96 223.9 101.863 232.186 90.0499 237.079C78.2369 241.972 65.2382 243.252 52.6976 240.758C40.1569 238.263 28.6376 232.106 19.5963 223.065C10.5551 214.023 4.39786 202.504 1.90337 189.964C-0.591119 177.423 0.689149 164.424 5.58226 152.611C10.4754 140.798 18.7616 130.701 29.393 123.598C40.0244 116.494 52.5236 112.703 65.3099 112.703V138.703Z" fill="#F2E1BB"/>
<g style="mix-blend-mode:multiply">
<path fill-rule="evenodd" clip-rule="evenodd" d="M166.5 31.2879C135.081 31.2879 109.447 56.8117 109.447 88.5C109.447 120.188 135.081 145.712 166.5 145.712C197.919 145.712 223.553 120.188 223.553 88.5C223.553 56.8117 197.919 31.2879 166.5 31.2879ZM78 88.5C78 39.7137 117.532 0 166.5 0C215.468 0 255 39.7137 255 88.5C255 137.286 215.468 177 166.5 177C117.532 177 78 137.286 78 88.5Z" fill="#D3981A" fill-opacity="0.3"/>
</g>
</svg>
