<svg width="169" height="131" viewBox="0 0 169 131" fill="none" xmlns="http://www.w3.org/2000/svg">
<path d="M67.5426 27.7771H66.9269V10.7696C66.9269 9.47688 66.6743 8.19687 66.1837 7.0026C65.6931 5.80833 64.9739 4.72319 64.0673 3.80913C63.1607 2.89508 62.0845 2.17001 60.8999 1.67532C59.7154 1.18064 58.4459 0.926026 57.1638 0.926025H21.4252C18.8359 0.92602 16.3526 1.9631 14.5217 3.80911C12.6907 5.65512 11.6621 8.15886 11.6621 10.7695V104.074C11.6621 105.367 11.9146 106.647 12.4053 107.841C12.8959 109.036 13.6151 110.121 14.5217 111.035C15.4282 111.949 16.5045 112.674 17.689 113.169C18.8735 113.663 20.1431 113.918 21.4252 113.918H57.1637C59.7531 113.918 62.2363 112.881 64.0673 111.035C65.8982 109.189 66.9268 106.685 66.9269 104.074V39.8834H67.5426V27.7771Z" fill="#3F3D56"/>
<path d="M57.5561 3.48694H52.891C53.1056 4.01724 53.1875 4.5926 53.1295 5.16232C53.0716 5.73205 52.8755 6.27866 52.5587 6.75401C52.2418 7.22935 51.8139 7.61884 51.3126 7.88816C50.8113 8.15748 50.252 8.29837 49.6839 8.29841H29.2098C28.6417 8.29837 28.0824 8.15748 27.5811 7.88816C27.0798 7.61884 26.6519 7.22935 26.335 6.75401C26.0182 6.27866 25.8222 5.73205 25.7642 5.16232C25.7062 4.5926 25.7881 4.01724 26.0027 3.48694H21.6455C20.688 3.48694 19.7399 3.67708 18.8553 4.0465C17.9708 4.41592 17.167 4.9574 16.49 5.64C15.8129 6.32261 15.2759 7.13298 14.9095 8.02485C14.5431 8.91671 14.3545 9.87261 14.3545 10.838V104.006C14.3545 104.971 14.5431 105.927 14.9095 106.819C15.2759 107.711 15.8129 108.521 16.49 109.204C17.167 109.887 17.9708 110.428 18.8553 110.797C19.7399 111.167 20.688 111.357 21.6455 111.357H57.5561C58.5136 111.357 59.4617 111.167 60.3462 110.797C61.2308 110.428 62.0346 109.886 62.7116 109.204C63.3886 108.521 63.9257 107.711 64.2921 106.819C64.6585 105.927 64.8471 104.971 64.8471 104.006V10.838C64.8471 9.87261 64.6585 8.91672 64.2921 8.02485C63.9257 7.13298 63.3886 6.32261 62.7116 5.64C62.0346 4.9574 61.2308 4.41592 60.3462 4.0465C59.4617 3.67708 58.5136 3.48694 57.5561 3.48694Z" fill="white"/>
<path d="M78.9971 113.935H0.206799C0.151952 113.935 0.099352 113.913 0.0605698 113.874C0.0217875 113.834 0 113.781 0 113.726C0 113.671 0.0217875 113.618 0.0605698 113.578C0.099352 113.539 0.151952 113.517 0.206799 113.517H78.9971C79.0519 113.517 79.1045 113.539 79.1433 113.578C79.1821 113.618 79.2039 113.671 79.2039 113.726C79.2039 113.781 79.1821 113.834 79.1433 113.874C79.1045 113.913 79.0519 113.935 78.9971 113.935Z" fill="#CBCBCB"/>
<path d="M39.602 73.0009C49.2468 73.0009 57.0654 65.1179 57.0654 55.3937C57.0654 45.6695 49.2468 37.7865 39.602 37.7865C29.9573 37.7865 22.1387 45.6695 22.1387 55.3937C22.1387 65.1179 29.9573 73.0009 39.602 73.0009Z" fill="#D3981A"/>
<path d="M37.8708 62.1105C37.4779 62.1111 37.0955 61.983 36.7812 61.7453L36.7617 61.7306L32.6575 58.5652C32.4675 58.4183 32.3079 58.2351 32.1881 58.026C32.0683 57.8169 31.9904 57.5861 31.9591 57.3467C31.9277 57.1073 31.9434 56.864 32.0053 56.6307C32.0672 56.3974 32.174 56.1787 32.3198 55.9871C32.4655 55.7954 32.6472 55.6346 32.8546 55.5138C33.062 55.3929 33.2909 55.3145 33.5284 55.2829C33.7658 55.2512 34.0071 55.2671 34.2385 55.3295C34.4699 55.3919 34.6868 55.4996 34.8769 55.6465L37.5352 57.7018L43.8169 49.4391C43.9626 49.2476 44.1443 49.0868 44.3516 48.966C44.5588 48.8452 44.7877 48.7668 45.025 48.7352C45.2624 48.7036 45.5036 48.7194 45.7349 48.7818C45.9661 48.8442 46.183 48.9519 46.373 49.0987L46.3735 49.0991L46.3345 49.1537L46.3746 49.0991C46.7579 49.3962 47.0087 49.8344 47.0719 50.3176C47.1351 50.8008 47.0056 51.2896 46.7118 51.6767L39.3231 61.3912C39.1521 61.615 38.9323 61.7961 38.6808 61.9205C38.4292 62.0449 38.1526 62.1091 37.8724 62.1083L37.8708 62.1105Z" fill="white"/>
<path d="M143.569 115.664C143.782 115.318 144.032 114.997 144.315 114.706C144.432 114.584 144.555 114.469 144.682 114.357C145.454 113.664 146.395 113.191 147.409 112.987C148.422 112.782 149.472 112.853 150.449 113.193C151.426 113.533 152.296 114.129 152.969 114.921C153.642 115.712 154.093 116.669 154.278 117.695C155.131 114.515 152.91 111.382 150.678 108.976C148.445 106.571 145.892 103.932 145.905 100.636C145.911 98.8026 146.801 97.1665 148.144 95.9535C148.186 95.9167 148.227 95.88 148.27 95.8446C149.893 94.4413 151.982 93.7073 154.12 93.7891C158.09 94.0036 161.557 96.694 163.964 99.8852C167.839 105.02 169.537 112.228 166.824 118.073C164.438 123.214 159.349 126.267 154.155 128.721C153.43 129.064 152.706 129.396 151.983 129.718C151.979 129.72 151.973 129.723 151.969 129.724C151.934 129.74 151.899 129.755 151.866 129.771C151.717 129.837 151.568 129.904 151.42 129.969L151.489 130.014L151.702 130.154C151.628 130.108 151.555 130.065 151.481 130.019C151.459 130.006 151.436 129.993 151.414 129.979C148.863 128.436 146.276 126.803 144.514 124.394C142.686 121.892 141.951 118.309 143.569 115.664Z" fill="#F1F1F1"/>
<path d="M160.589 109.855C161.154 111.151 161.528 112.523 161.701 113.927C161.836 115.18 161.785 116.445 161.549 117.683C161.043 120.225 159.938 122.608 158.328 124.631C157.113 126.166 155.711 127.54 154.154 128.721C153.429 129.064 152.705 129.397 151.983 129.719C151.978 129.72 151.973 129.723 151.968 129.725C151.933 129.74 151.899 129.755 151.866 129.771C151.717 129.838 151.568 129.904 151.42 129.969L151.488 130.015L151.702 130.154C151.628 130.109 151.555 130.065 151.481 130.02C151.459 130.006 151.435 129.993 151.413 129.979C151.975 128 152.057 125.913 151.654 123.894C151.251 121.875 150.374 119.984 149.096 118.377C147.811 116.791 146.173 115.533 144.314 114.707C144.431 114.585 144.554 114.47 144.681 114.358C145.397 114.689 146.082 115.084 146.729 115.537C149.043 117.149 150.78 119.469 151.684 122.154C152.491 124.591 152.592 127.208 151.974 129.7C152.102 129.615 152.231 129.529 152.356 129.443C154.732 127.827 156.923 125.886 158.573 123.506C159.995 121.495 160.906 119.162 161.224 116.712C161.54 114.037 160.876 111.405 159.691 109.018C158.383 106.463 156.734 104.101 154.791 101.997C152.839 99.8353 150.632 97.9222 148.22 96.3007C148.165 96.2637 148.127 96.2071 148.113 96.1425C148.099 96.0779 148.11 96.0104 148.144 95.9538C148.17 95.9023 148.215 95.8632 148.269 95.8449C148.297 95.8378 148.326 95.8371 148.353 95.8428C148.381 95.8485 148.408 95.8604 148.43 95.8778C148.728 96.0782 149.023 96.2803 149.315 96.4886C151.745 98.2231 153.951 100.255 155.884 102.538C157.752 104.739 159.451 107.184 160.589 109.855Z" fill="white"/>
<path d="M108.579 9.10272C110.627 9.10272 112.288 7.42858 112.288 5.36343C112.288 3.29828 110.627 1.62415 108.579 1.62415C106.531 1.62415 104.87 3.29828 104.87 5.36343C104.87 7.42858 106.531 9.10272 108.579 9.10272Z" fill="#F1F1F1"/>
<path d="M154.694 59.1418C155.943 59.1418 156.955 58.1211 156.955 56.862C156.955 55.603 155.943 54.5823 154.694 54.5823C153.445 54.5823 152.433 55.603 152.433 56.862C152.433 58.1211 153.445 59.1418 154.694 59.1418Z" fill="#F1F1F1"/>
<path d="M88.519 65.3971C89.7678 65.3971 90.7801 64.3764 90.7801 63.1173C90.7801 61.8582 89.7678 60.8375 88.519 60.8375C87.2702 60.8375 86.2578 61.8582 86.2578 63.1173C86.2578 64.3764 87.2702 65.3971 88.519 65.3971Z" fill="#F1F1F1"/>
<path d="M89.7947 130.406H168.585C168.64 130.406 168.692 130.384 168.731 130.345C168.77 130.306 168.792 130.253 168.792 130.197C168.792 130.142 168.77 130.089 168.731 130.05C168.692 130.011 168.64 129.989 168.585 129.989H89.7947C89.7398 129.989 89.6872 130.011 89.6485 130.05C89.6097 130.089 89.5879 130.142 89.5879 130.197C89.5879 130.253 89.6097 130.306 89.6485 130.345C89.6872 130.384 89.7398 130.406 89.7947 130.406Z" fill="#CBCBCB"/>
<path d="M159.892 21.0747C159.995 20.3341 159.826 19.581 159.415 18.9581C159.005 18.3351 158.382 17.8856 157.665 17.6948C156.948 17.5039 156.186 17.585 155.524 17.9225C154.862 18.2601 154.346 18.8307 154.073 19.5263L147.68 26.9165L149.556 32.1993L155.986 23.5641C156.405 23.6996 156.849 23.7408 157.286 23.6846C157.723 23.6284 158.143 23.4762 158.515 23.2389C158.888 23.0016 159.204 22.6848 159.442 22.3108C159.68 21.9369 159.833 21.515 159.892 21.0747Z" fill="#FFB7B7"/>
<path d="M133.387 49.83L154.61 26.993L151.748 22.4043L125.128 45.1026L133.387 49.83Z" fill="#3F3D56"/>
<path d="M128.651 35.9544C132.762 35.9544 136.096 32.5938 136.096 28.4483C136.096 24.3028 132.762 20.9423 128.651 20.9423C124.539 20.9423 121.206 24.3028 121.206 28.4483C121.206 32.5938 124.539 35.9544 128.651 35.9544Z" fill="#2F2E41"/>
<path d="M129.249 24.208C130.851 22.5701 132.79 21.3062 134.928 20.5052C136.301 19.9924 137.796 19.6756 139.231 19.9668C140.666 20.258 142.023 21.2591 142.424 22.6789C142.751 23.84 142.413 25.09 141.905 26.1829C141.397 27.2758 140.719 28.2893 140.308 29.423C139.888 30.5798 139.762 31.8238 139.941 33.0422C140.119 34.2606 140.597 35.4147 141.33 36.3998C142.063 37.3849 143.029 38.1698 144.139 38.6832C145.249 39.1966 146.469 39.4223 147.688 39.3398C146.278 39.5305 144.978 40.1987 143.599 40.5543C142.221 40.91 140.594 40.8859 139.57 39.8902C138.486 38.8368 138.464 37.124 138.517 35.6071C138.595 33.3521 138.672 31.0972 138.75 28.8422C138.79 27.6923 138.824 26.5054 138.413 25.4321C138.001 24.3587 137.024 23.4188 135.883 23.4286C135.018 23.436 134.252 23.9643 133.558 24.4853C132.865 25.0063 132.131 25.5622 131.269 25.6397C130.407 25.7172 129.424 25.0743 129.488 24.2046L129.249 24.208Z" fill="#2F2E41"/>
<path d="M100.375 78.8479C99.6605 79.048 98.8978 78.9769 98.2316 78.648C97.5654 78.3191 97.0421 77.7552 96.7607 77.0633C96.4793 76.3713 96.4594 75.5993 96.7049 74.8935C96.9503 74.1877 97.444 73.5973 98.0924 73.234L104.524 65.8773L109.964 67.0622L102.313 74.6179C102.501 75.0196 102.599 75.458 102.601 75.9022C102.603 76.3465 102.508 76.7857 102.323 77.189C102.139 77.5922 101.869 77.9498 101.532 78.2364C101.195 78.523 100.801 78.7317 100.375 78.8479H100.375Z" fill="#FFB7B7"/>
<path d="M121.535 52.5104L105.505 72.7976L100.619 70.5358L119.461 40.9608L121.535 52.5104Z" fill="#3F3D56"/>
<path d="M108.745 113.77L104.925 113.709L105.384 126.838H108.745L108.745 113.77Z" fill="#FFB7B7"/>
<path d="M109.602 125.732L102.984 125.731H102.984C101.865 125.731 100.793 126.179 100.002 126.977C99.211 127.774 98.7667 128.856 98.7666 129.983V130.122L109.602 130.122L109.602 125.732Z" fill="#2F2E41"/>
<path d="M134.041 110.287L129.867 112.989L138.215 123.115L141.043 121.284L134.041 110.287Z" fill="#FFB7B7"/>
<path d="M141.17 119.887L135.601 123.491L135.601 123.492C134.66 124.101 133.997 125.062 133.759 126.164C133.521 127.266 133.726 128.418 134.331 129.367L134.405 129.483L143.522 123.581L141.17 119.887Z" fill="#2F2E41"/>
<path d="M135.527 70.1986C135.527 70.1986 126.255 39.147 123.275 38.7274C120.295 38.3078 115.493 46.6949 115.493 46.6949C109.268 54.7031 102.849 80.6433 102.849 80.6433C102.849 80.6433 113.55 81.3185 121.372 85.5146C129.195 89.7108 138.426 85.3022 138.426 85.3022L135.527 70.1986Z" fill="#3F3D56"/>
<path opacity="0.1" d="M135.527 70.1987C135.527 70.1987 126.255 39.1471 123.275 38.7275C120.295 38.3079 116.713 46.7801 116.713 46.7801C113.611 59.7072 102.849 80.6434 102.849 80.6434C102.849 80.6434 113.55 81.3186 121.372 85.5147C129.195 89.7109 138.426 85.3023 138.426 85.3023L135.527 70.1987Z" fill="black"/>
<path d="M127.918 60.9083V76.5116L129.739 99.114L138.838 116.211L134.496 119.339L122.088 103.076L117.18 86.9273L109.473 122.675L103.683 122.258L107.704 72.6945L115.335 58.7437L127.918 60.9083Z" fill="#2F2E41"/>
<path d="M118.569 45.8168C115.674 48.7359 118.362 51.8634 118.362 51.8634L115.054 59.3695L128.082 62.914L132.635 42.4019L129.533 39.0659C123.329 38.8574 123.326 38.7278 123.326 38.7278C122.239 39.8003 118.569 45.8168 118.569 45.8168Z" fill="#D3981A"/>
<path d="M133.16 40.2767C132.568 39.8363 131.896 39.5187 131.181 39.3422C130.467 39.1657 129.725 39.1339 128.999 39.2486C128.272 39.3633 127.575 39.6221 126.948 40.0103C126.322 40.3984 125.778 40.908 125.348 41.5096C122.072 46.1075 119.044 53.5321 123.217 62.7917C129.917 77.6599 135.747 85.2713 138.118 85.2705C138.221 85.2713 138.324 85.255 138.422 85.2222C139.881 84.7231 141.991 82.2339 142.373 80.0404C142.509 79.2553 142.477 78.1616 141.546 77.4107C138.871 75.2535 134.068 68.5365 132.57 59.6956C131.742 54.8104 133.348 50.3605 134.84 47.4878C135.471 46.2992 135.655 44.9213 135.36 43.6066C135.064 42.292 134.309 41.1288 133.232 40.3302L133.16 40.2767Z" fill="#3F3D56"/>
<path d="M129.035 35.2168C131.69 33.7531 132.666 30.3959 131.215 27.7183C129.763 25.0407 126.433 24.0567 123.777 25.5204C121.122 26.9841 120.146 30.3413 121.597 33.0189C123.049 35.6965 126.379 36.6805 129.035 35.2168Z" fill="#FFB7B7"/>
<path d="M118.698 29.9508H126.612L126.693 28.8054L127.098 29.9508H128.317L128.478 27.6806L129.282 29.9508H131.64V29.8383C131.638 28.2578 131.014 26.7425 129.906 25.6249C128.797 24.5073 127.294 23.8786 125.727 23.8768H124.611C123.043 23.8786 121.541 24.5073 120.432 25.6249C119.324 26.7425 118.7 28.2578 118.698 29.8383V29.9508Z" fill="#2F2E41"/>
<path d="M130.443 34.0685L133.82 32.9637V24.6954H127.441L127.599 24.8544C129.796 27.0668 132.24 34.9161 130.443 34.0685Z" fill="#2F2E41"/>
</svg>
