<svg width="20" height="20" viewBox="0 0 20 20" fill="none" xmlns="http://www.w3.org/2000/svg">
<path d="M18.2163 0.996094H1.98212C1.42552 0.996094 0.974609 1.447 0.974609 2.0036V18.2385C0.974609 18.7944 1.42552 19.2453 1.98212 19.2453H10.7227V12.1783H8.34425V9.42418H10.7227V7.3932C10.7227 5.03601 12.1621 3.75248 14.2654 3.75248C15.2729 3.75248 16.1382 3.82776 16.3906 3.86122V6.32486L14.9322 6.32562C13.7886 6.32562 13.5673 6.8693 13.5673 7.66618V9.42494H16.2948L15.9397 12.1791H13.5673V19.2453H18.2178C18.7729 19.2453 19.2238 18.7944 19.2238 18.2378V2.0036C19.2238 1.447 18.7729 0.996094 18.2163 0.996094V0.996094Z" fill="#E2D3B0"/>
</svg>
