<svg width="91" height="144" viewBox="0 0 91 144" fill="none" xmlns="http://www.w3.org/2000/svg">
<path d="M18.5651 0.952148H0.0576172V21.4078H18.5651V0.952148Z" fill="#44C4A1"/>
<path d="M54.6056 0.952148H35.124V21.4078H54.6056V0.952148Z" fill="#27A2DB"/>
<path d="M90.6471 0.952148H70.1914V21.4078H90.6471V0.952148Z" fill="#E56353"/>
<path d="M18.5651 30.1748H0.0576172V50.6305H18.5651V30.1748Z" fill="#27A2DB"/>
<path d="M54.6056 30.1748H35.124V50.6305H54.6056V30.1748Z" fill="#E56353"/>
<path d="M90.6471 30.1748H70.1914V50.6305H90.6471V30.1748Z" fill="#44C4A1"/>
<path d="M18.5651 60.3711H0.0576172V78.8786H18.5651V60.3711Z" fill="#F6C358"/>
<path d="M54.6056 60.3711H35.124V78.8786H54.6056V60.3711Z" fill="#64798A"/>
<path d="M90.6471 60.3711H70.1914V78.8786H90.6471V60.3711Z" fill="#DC8744"/>
<path d="M18.5651 88.6191H0.0576172V108.101H18.5651V88.6191Z" fill="#44C4A1"/>
<path d="M54.6056 88.6191H35.124V108.101H54.6056V88.6191Z" fill="#E56353"/>
<path d="M90.6471 88.6191H70.1914V108.101H90.6471V88.6191Z" fill="#27A2DB"/>
<path d="M81.7935 68.2893C80.508 68.2893 79.3088 68.6352 78.2778 69.2271V68.5695C78.2778 64.8796 75.2844 61.8884 71.5918 61.8884C69.8769 61.8884 68.318 62.5391 67.1344 63.5996V62.8427C67.1344 59.1528 64.141 56.1617 60.4483 56.1617C58.3149 56.1617 56.4194 57.1638 55.1952 58.7187V39.7777C55.1952 36.0878 52.2018 33.0967 48.5092 33.0967C44.8165 33.0967 41.8231 36.0878 41.8231 39.7777V85.4446C39.5058 81.3926 35.8244 77.2573 31.5066 75.4722C30.3471 74.9929 29.1215 74.6129 27.8667 74.6163C26.6122 74.6198 25.3168 75.0479 24.4724 75.9756C23.2784 77.2877 23.2207 79.3161 23.7694 81.0027C24.318 82.6894 25.3721 84.1563 26.2341 85.7066C28.2598 89.3499 29.2275 94.3347 30.4783 98.3106C31.7291 102.286 33.3698 106.301 36.3913 109.174C37.7753 110.49 39.4047 111.521 40.8426 112.778C43.0209 114.682 44.7415 117.106 45.8202 119.79H74.8867H80.313C86.011 114.966 87.6804 103.37 88.6988 90.6799V74.97C88.6994 71.2804 85.6075 68.2893 81.7935 68.2893Z" fill="#F0C275"/>
<path d="M85.7763 118.816H39.0205V143.168H85.7763V118.816Z" fill="#353535"/>
<path d="M77.9842 135.375C80.1361 135.375 81.8805 133.413 81.8805 130.992C81.8805 128.571 80.1361 126.608 77.9842 126.608C75.8323 126.608 74.0879 128.571 74.0879 130.992C74.0879 133.413 75.8323 135.375 77.9842 135.375Z" fill="#D29719"/>
</svg>
