<svg width="146" height="147" viewBox="0 0 146 147" fill="none" xmlns="http://www.w3.org/2000/svg">
<path d="M98.4971 40.1958C100.235 41.1179 101.934 42.0615 103.594 43.0266" stroke="#2F2E41" stroke-miterlimit="10"/>
<path d="M66.1533 34.4821C73.7341 36.1297 82.0104 38.974 90.3479 42.9883C96.3868 45.8765 102.165 49.2854 107.618 53.1768" stroke="#2F2E41" stroke-miterlimit="10"/>
<path d="M40.9219 145.669H118.652" stroke="#3F3D56" stroke-miterlimit="10"/>
<path d="M59.0605 33.2626C61.3386 33.5441 63.7101 33.9509 66.1539 34.482" stroke="#2F2E41" stroke-miterlimit="10"/>
<path d="M36.7673 57.1538C32.5587 50.9629 31.1129 45.1137 33.2753 40.576C35.6669 35.5572 42.0688 32.9899 50.7469 32.8008" stroke="#2F2E41" stroke-miterlimit="10"/>
<path d="M125.395 70.9813C128.903 76.6575 129.992 81.9791 127.991 86.1778C126.23 89.8727 122.296 92.2389 116.88 93.3056" stroke="#2F2E41" stroke-miterlimit="10"/>
<path d="M107.62 53.1768C111.136 55.6829 114.459 58.4513 117.561 61.4586" stroke="#2F2E41" stroke-miterlimit="10"/>
<path d="M34.4385 25.5454C41.4245 24.0368 50.4647 24.305 60.5754 26.3083" stroke="#2F2E41" stroke-miterlimit="10"/>
<path d="M136.114 70.9807C139.242 75.5728 141.165 80.0166 141.668 84.0634" stroke="#2F2E41" stroke-miterlimit="10"/>
<path d="M103.593 43.0266C106.73 44.8498 109.715 46.7354 112.547 48.6834" stroke="#2F2E41" stroke-miterlimit="10"/>
<path d="M108.088 110.664C107.286 110.709 106.512 110.978 105.854 111.441C105.195 111.904 104.678 112.542 104.36 113.284C103.428 115.549 104.628 118.21 106.43 119.862C108.232 121.513 110.547 122.458 112.65 123.699C115.475 125.366 118.013 127.679 119.427 130.65C120.84 133.62 120.991 137.299 119.329 140.137C117.787 142.771 114.983 144.347 112.309 145.801" stroke="#3F3D56" stroke-miterlimit="10"/>
<path d="M110.465 112.469C112.284 112.469 113.758 111.749 113.758 110.861C113.758 109.973 112.284 109.253 110.465 109.253C108.646 109.253 107.171 109.973 107.171 110.861C107.171 111.749 108.646 112.469 110.465 112.469Z" fill="#57B894"/>
<path d="M113.098 123.062C114.917 123.062 116.392 122.343 116.392 121.454C116.392 120.566 114.917 119.846 113.098 119.846C111.279 119.846 109.805 120.566 109.805 121.454C109.805 122.343 111.279 123.062 113.098 123.062Z" fill="#57B894"/>
<path d="M107.076 124.765C108.895 124.765 110.369 124.045 110.369 123.157C110.369 122.269 108.895 121.549 107.076 121.549C105.257 121.549 103.782 122.269 103.782 123.157C103.782 124.045 105.257 124.765 107.076 124.765Z" fill="#57B894"/>
<path d="M116.487 133.657C118.306 133.657 119.781 132.937 119.781 132.049C119.781 131.161 118.306 130.441 116.487 130.441C114.668 130.441 113.193 131.161 113.193 132.049C113.193 132.937 114.668 133.657 116.487 133.657Z" fill="#57B894"/>
<path d="M123.074 133.657C124.893 133.657 126.368 132.937 126.368 132.049C126.368 131.161 124.893 130.441 123.074 130.441C121.255 130.441 119.78 131.161 119.78 132.049C119.78 132.937 121.255 133.657 123.074 133.657Z" fill="#57B894"/>
<path d="M90.4386 48.2213H92.294C92.294 48.2213 93.9949 61.432 92.7579 62.6753C91.5209 63.9187 88.1192 64.6958 87.6554 62.6753C87.1915 60.6549 87.6554 53.1947 87.6554 53.1947L90.4386 48.2213Z" fill="#D3981A"/>
<path d="M78.3011 50.0087C84.5349 50.0087 89.5885 44.0593 89.5885 36.7204C89.5885 29.3814 84.5349 23.432 78.3011 23.432C72.0672 23.432 67.0137 29.3814 67.0137 36.7204C67.0137 44.0593 72.0672 50.0087 78.3011 50.0087Z" fill="#2F2E41"/>
<path d="M75.7496 39.207C75.7496 39.207 76.3681 44.3359 74.5127 45.4238C72.6572 46.5117 76.6774 52.7285 76.6774 52.7285L81.4707 53.9719L84.7177 49.4647L84.0992 44.8021C84.0992 44.8021 80.3883 41.0721 82.0891 37.6528L75.7496 39.207Z" fill="#FFC1C7"/>
<path opacity="0.1" d="M75.7496 39.207C75.7496 39.207 76.3681 44.3359 74.5127 45.4238C72.6572 46.5117 76.6774 52.7285 76.6774 52.7285L81.4707 53.9719L84.7177 49.4647L84.0992 44.8021C84.0992 44.8021 80.3883 41.0721 82.0891 37.6528L75.7496 39.207Z" fill="black"/>
<path d="M68.7924 94.8815C68.7924 94.8815 66.937 111.822 68.7924 115.863C70.6479 119.904 75.5958 131.25 75.5958 131.25L74.0496 134.513L78.2244 133.581L79.9252 130.317C79.9252 130.317 77.9151 122.391 77.6059 119.593C77.2966 116.796 74.9773 111.667 74.9773 111.667L79.3067 93.1719L68.7924 94.8815Z" fill="#FFC1C7"/>
<path d="M83.4805 92.0498C83.4805 92.0498 83.6351 109.146 84.7174 111.798L84.099 134.955L87.5006 135.412C87.5006 135.412 92.4485 115.984 91.6754 111.322C90.9023 106.659 91.8301 89.8739 91.8301 89.8739L83.4805 92.0498Z" fill="#FFC1C7"/>
<path d="M78.3004 41.3052C81.5455 41.3052 84.1761 38.661 84.1761 35.3992C84.1761 32.1375 81.5455 29.4933 78.3004 29.4933C75.0554 29.4933 72.4248 32.1375 72.4248 35.3992C72.4248 38.661 75.0554 41.3052 78.3004 41.3052Z" fill="#FFC1C7"/>
<path d="M98.3252 94.2256C98.3252 94.2256 94.1504 97.0231 92.4495 95.0027C90.7487 92.9822 69.8747 96.246 67.2461 95.6243C64.6176 95.0027 68.6377 85.0558 68.6377 79.927C68.6377 76.0897 70.0231 70.2521 70.7205 67.554C70.9555 66.6464 71.1117 66.0946 71.1117 66.0946C71.1117 66.0946 72.6981 61.5579 72.4013 59.6727C72.3812 59.5298 72.3422 59.3903 72.2853 59.2577C72.2605 59.2023 72.2299 59.1497 72.1941 59.1008C71.4534 58.1076 69.3305 50.8651 68.5063 47.7551C68.3718 47.2949 68.2609 46.828 68.1739 46.3564C68.1739 45.8901 73.8949 44.4913 75.3251 44.4245C76.7569 44.3577 77.142 46.3564 77.142 46.3564C77.6058 46.6672 79.7705 52.1069 79.7705 52.1069L81.7806 46.978C81.7806 46.978 81.626 45.8901 81.4714 45.8901C81.3167 45.8901 83.7582 44.4229 83.7582 44.4229C83.7582 44.4229 86.2646 46.2009 87.6562 45.8901C89.0478 45.5793 92.2949 48.3768 92.2949 48.3768C92.2949 48.3768 86.5739 62.8308 88.8932 65.9392C91.2125 69.0476 98.3252 94.2256 98.3252 94.2256Z" fill="#D3981A"/>
<path d="M79.4603 129.695C79.4603 129.695 76.8317 132.338 76.8317 132.648L74.667 131.716C74.667 131.716 73.7393 135.135 73.5846 135.601C73.43 136.068 70.8015 140.264 68.1729 142.129C65.5443 143.994 68.1729 146.325 70.4922 145.859C72.8115 145.393 78.6872 140.109 78.6872 140.109C78.6872 140.109 82.7073 140.109 84.0989 137C84.0989 137 80.388 129.385 79.4603 129.695Z" fill="#2F2E41"/>
<path d="M87.1929 134.178C87.1929 134.178 83.2207 131.277 82.9648 133.971C82.7089 136.665 82.7089 142.571 82.7089 142.571C82.7089 142.571 81.4719 146.456 85.3375 145.99C89.203 145.524 89.5123 144.436 89.5123 144.436L87.6568 136.976V133.712L87.1929 134.178Z" fill="#2F2E41"/>
<path opacity="0.1" d="M72.1926 59.1008C71.452 58.1076 69.329 50.8651 68.5049 47.7551H69.2548C69.2548 47.7551 71.1381 55.164 72.2838 59.2577C72.2591 59.2023 72.2285 59.1497 72.1926 59.1008Z" fill="black"/>
<path opacity="0.1" d="M82.3983 69.3584C82.3983 69.3584 80.2336 69.5138 72.3479 67.9596C71.7984 67.8535 71.2549 67.7181 70.7197 67.5539C70.9548 66.6463 71.1109 66.0945 71.1109 66.0945C71.1109 66.0945 72.6973 61.5578 72.4005 59.6726C72.77 60.9781 73.0452 61.8594 73.121 61.8982C73.4303 62.0536 83.3261 63.7633 84.7177 64.3849C86.1093 65.0066 82.3983 69.3584 82.3983 69.3584Z" fill="black"/>
<path opacity="0.1" d="M85.1826 49.0172C85.1826 49.0172 89.4474 48.4883 89.7117 49.1833C89.9759 49.8784 91.0583 56.5959 91.5221 57.4571C91.986 58.3183 92.1406 63.6578 90.2851 63.83C88.4297 64.0022 85.9557 62.1076 86.4196 60.5574C86.8835 59.0072 85.1826 49.0172 85.1826 49.0172Z" fill="black"/>
<path d="M83.0166 63.2971C83.0166 63.2971 89.5107 64.0742 90.5931 63.2971C91.6754 62.52 96.1595 62.52 95.2317 64.6959C94.304 66.8717 86.2637 67.0272 86.2637 67.0272H81.625L83.0166 63.2971Z" fill="#FFC1C7"/>
<path d="M69.2552 46.667H68.1729C68.1729 46.667 66.0082 47.1332 66.3174 53.9717C66.6267 60.8102 64.4619 65.3173 72.3477 66.8715C80.2334 68.4257 82.3981 68.2703 82.3981 68.2703C82.3981 68.2703 86.109 63.9185 84.7174 63.2969C83.3258 62.6752 73.43 60.9656 73.1208 60.8102C72.8115 60.6548 69.2552 46.667 69.2552 46.667Z" fill="#D3981A"/>
<path d="M89.5919 49.7347C89.5919 49.7347 86.8825 39.5178 84.7178 39.5178C82.5531 39.5178 80.0792 39.9841 81.9346 42.0045C83.7901 44.025 86.1094 46.2009 86.264 47.2888C86.4187 48.3767 87.0372 49.9309 87.0372 49.9309L89.5919 49.7347Z" fill="#FFC1C7"/>
<path d="M85.8008 49.0172C85.8008 49.0172 90.0656 48.4883 90.3298 49.1833C90.5941 49.8784 91.6764 56.5959 92.1403 57.4571C92.6041 58.3183 92.7588 63.6578 90.9033 63.83C89.0478 64.0022 86.5739 62.1076 87.0378 60.5574C87.5016 59.0072 85.8008 49.0172 85.8008 49.0172Z" fill="#D3981A"/>
<path d="M76.7549 35.3991C79.8291 35.3991 82.3213 32.8941 82.3213 29.804C82.3213 26.7139 79.8291 24.2089 76.7549 24.2089C73.6806 24.2089 71.1885 26.7139 71.1885 29.804C71.1885 32.8941 73.6806 35.3991 76.7549 35.3991Z" fill="#2F2E41"/>
<path d="M99.1855 93.0534C90.5474 91.6224 80.7752 88.5116 70.9175 83.7655C59.6934 78.3615 50.1824 71.7155 43.4053 64.9988" stroke="#2F2E41" stroke-miterlimit="10"/>
<path d="M64.1625 86.6888C56.4346 82.6644 49.4384 78.1903 43.4053 73.5321" stroke="#2F2E41" stroke-miterlimit="10"/>
<path d="M9.53336 23.7918C14.6502 23.7918 18.7982 19.6224 18.7982 14.4792C18.7982 9.33602 14.6502 5.16663 9.53336 5.16663C4.41655 5.16663 0.268555 9.33602 0.268555 14.4792C0.268555 19.6224 4.41655 23.7918 9.53336 23.7918Z" fill="#D3981A"/>
<path d="M11.7062 19.9981C16.823 19.9981 20.971 15.8287 20.971 10.6855C20.971 5.54231 16.823 1.37292 11.7062 1.37292C6.5894 1.37292 2.44141 5.54231 2.44141 10.6855C2.44141 15.8287 6.5894 19.9981 11.7062 19.9981Z" stroke="#2F2E41" stroke-miterlimit="10"/>
<path d="M138.346 53.535C141.323 53.535 143.736 51.1091 143.736 48.1167C143.736 45.1243 141.323 42.6985 138.346 42.6985C135.368 42.6985 132.955 45.1243 132.955 48.1167C132.955 51.1091 135.368 53.535 138.346 53.535Z" fill="#F2F2F2"/>
<path d="M139.61 51.3276C142.587 51.3276 145.001 48.9017 145.001 45.9093C145.001 42.9169 142.587 40.4911 139.61 40.4911C136.633 40.4911 134.22 42.9169 134.22 45.9093C134.22 48.9017 136.633 51.3276 139.61 51.3276Z" stroke="#2F2E41" stroke-miterlimit="10"/>
<path d="M40.0134 112.385C44.2929 112.385 47.7621 108.898 47.7621 104.596C47.7621 100.295 44.2929 96.8076 40.0134 96.8076C35.7339 96.8076 32.2646 100.295 32.2646 104.596C32.2646 108.898 35.7339 112.385 40.0134 112.385Z" fill="#F2F2F2"/>
<path d="M41.8308 109.212C46.1103 109.212 49.5795 105.725 49.5795 101.423C49.5795 97.1216 46.1103 93.6345 41.8308 93.6345C37.5513 93.6345 34.082 97.1216 34.082 101.423C34.082 105.725 37.5513 109.212 41.8308 109.212Z" stroke="#2F2E41" stroke-miterlimit="10"/>
</svg>
