<svg width="137" height="137" viewBox="0 0 137 137" fill="none" xmlns="http://www.w3.org/2000/svg">
<path d="M54.7108 93.8212H39.2768C37.2756 93.8212 35.6532 92.1987 35.6532 90.1975V83.7064C33.3916 83.0068 31.2032 82.0985 29.1063 80.9896L24.513 85.583C23.0976 86.9984 20.8021 86.9967 19.3884 85.583L8.47624 74.6706C7.06085 73.2554 7.0623 70.9596 8.47624 69.5459L13.0695 64.9523C11.9605 62.8553 11.0524 60.6673 10.3528 58.4052H3.86191C1.8607 58.4052 0.238281 56.7827 0.238281 54.7815V39.349C0.238281 37.3478 1.8607 35.7253 3.86191 35.7253H10.3528C11.0524 33.4636 11.9607 31.2752 13.0695 29.1782L8.47624 24.5848C7.06085 23.1692 7.0623 20.8739 8.47624 19.4602L19.3887 8.54748C20.8036 7.1323 23.099 7.1335 24.5132 8.54748L29.1058 13.1402C31.2027 12.0306 33.3913 11.1222 35.6535 10.4229V3.93328C35.6535 1.93203 37.2759 0.30957 39.2771 0.30957H54.7111C56.7123 0.30957 58.3347 1.93203 58.3347 3.93328V10.4241C60.5971 11.1239 62.7852 12.032 64.8802 13.1404L69.473 8.54748C70.8879 7.13254 73.1822 7.1323 74.5973 8.54724L85.5114 19.4599C86.9268 20.8753 86.9256 23.1711 85.5114 24.5848L80.9184 29.1785C82.0274 31.2756 82.9353 33.4641 83.6344 35.7256H90.1263C92.1275 35.7256 93.7499 37.348 93.7499 39.3493V54.7817C93.7499 56.783 92.1275 58.4054 90.1263 58.4054H83.6344C82.9353 60.6669 82.0277 62.8553 80.9184 64.9525L85.5117 69.5462C86.9268 70.9611 86.9256 73.2571 85.5114 74.6711L74.5973 85.5835C73.1822 86.9984 70.8877 86.9982 69.473 85.5833L64.8797 80.9898C62.7831 82.0989 60.5954 83.007 58.3347 83.7067V90.1977C58.3345 92.1987 56.7121 93.8212 54.7108 93.8212Z" fill="#E6AD35"/>
<path d="M90.2022 35.7253H83.8457C83.1611 33.4641 82.2725 31.2756 81.1863 29.1782L85.6838 24.5848C87.0683 23.1711 87.0695 20.8753 85.6838 19.4599L74.9972 8.54748C73.6116 7.13254 71.3652 7.13278 69.9798 8.54772L65.4827 13.1407C63.4315 12.0323 61.2889 11.1242 59.0737 10.4243V3.93328C59.0737 1.93203 57.4852 0.30957 55.5257 0.30957H47.9688V93.8212H55.5257C57.4852 93.8212 59.0737 92.1987 59.0737 90.1975V83.7064C61.2873 83.0068 63.4296 82.0987 65.4823 80.9896L69.9798 85.583C71.365 86.9979 73.6116 86.9982 74.9972 85.5833L85.6838 74.6708C87.0685 73.2568 87.0697 70.9608 85.684 69.5459L81.1865 64.9523C82.2725 62.8551 83.1614 60.6666 83.8459 58.4052H90.2024C92.1619 58.4052 93.7505 56.7827 93.7505 54.7815V39.349C93.7502 37.3478 92.1616 35.7253 90.2022 35.7253Z" fill="#AD790A"/>
<path d="M116.281 116.002C127.536 104.747 127.536 86.4985 116.281 75.2434C105.026 63.9884 86.7778 63.9883 75.5227 75.2434C64.2676 86.4985 64.2676 104.747 75.5227 116.002C86.7778 127.257 105.026 127.257 116.281 116.002Z" fill="#AAFF4F"/>
<path d="M47.4808 70.4433C34.8594 70.4433 24.5908 59.9559 24.5908 47.0654C24.5908 34.1749 34.8591 23.6875 47.4808 23.6875C60.1035 23.6875 70.3725 34.1749 70.3725 47.0654C70.3725 59.9559 60.1035 70.4433 47.4808 70.4433Z" fill="#E2D3B0"/>
<path d="M47.9688 23.6875C60.3224 23.6875 70.3726 34.1749 70.3726 47.0654C70.3726 59.9559 60.3224 70.4433 47.9688 70.4433V23.6875Z" fill="#CDC1A3"/>
<path d="M95.6982 124.018V67.521C111.812 67.521 124.921 80.1929 124.921 95.7692C124.921 111.345 111.812 124.018 95.6982 124.018Z" fill="#55E373"/>
<path d="M93.0694 103.562C92.0972 103.562 91.125 103.203 90.3833 102.486L85.1232 97.397C83.6391 95.9615 83.6385 93.6331 85.1222 92.1969C86.6053 90.7606 89.0114 90.7601 90.4955 92.1959L93.0691 94.6853L100.901 87.1058C102.385 85.6698 104.791 85.6698 106.275 87.1058C107.759 88.5418 107.759 90.8699 106.275 92.306L95.7565 102.485C95.0143 103.203 94.0418 103.562 93.0694 103.562Z" fill="#013772"/>
<path d="M100.901 87.1093L95.6982 92.1602V102.588C95.717 102.571 95.7373 102.555 95.756 102.537L106.274 92.3259C107.758 90.8853 107.758 88.5499 106.274 87.1093C104.791 85.6687 102.385 85.6687 100.901 87.1093Z" fill="#010043"/>
</svg>
