<svg width="20" height="20" viewBox="0 0 20 20" fill="none" xmlns="http://www.w3.org/2000/svg">
<path d="M12.4589 5.16908C11.8179 5.14018 11.6248 5.1341 10.0006 5.1341C8.3764 5.1341 8.18402 5.14018 7.54302 5.16908C5.89299 5.24436 5.12424 6.02603 5.04972 7.66237C5.02007 8.30414 5.01322 8.49652 5.01322 10.1207C5.01322 11.7449 5.02007 11.9373 5.04896 12.579C5.12424 14.2123 5.88994 14.997 7.54226 15.0723C8.18326 15.1012 8.3764 15.108 10.0006 15.108C11.6255 15.108 11.8179 15.102 12.4589 15.0731C14.1089 14.9978 14.8769 14.2146 14.9522 12.5798C14.9811 11.938 14.9872 11.7456 14.9872 10.1215C14.9872 8.49728 14.9811 8.3049 14.9522 7.6639C14.8769 6.02679 14.1074 5.24436 12.4589 5.16908ZM10.0006 13.2443C8.27527 13.2443 6.87692 11.846 6.87692 10.1207C6.87692 8.39538 8.27603 6.99704 10.0006 6.99704C11.7251 6.99704 13.1242 8.39538 13.1242 10.1207C13.1242 11.846 11.7259 13.2443 10.0006 13.2443ZM13.2482 7.60383C12.8452 7.60383 12.5182 7.27686 12.5182 6.87386C12.5182 6.47085 12.8452 6.14389 13.2482 6.14389C13.6512 6.14389 13.9781 6.47085 13.9781 6.87386C13.9781 7.27686 13.6512 7.60383 13.2482 7.60383ZM12.0285 10.1207C12.0285 11.2407 11.1206 12.1486 10.0006 12.1486C8.88053 12.1486 7.97263 11.2407 7.97263 10.1207C7.97263 9.00065 8.88053 8.09275 10.0006 8.09275C11.1206 8.09275 12.0285 9.00065 12.0285 10.1207ZM15.3233 0.996094H4.67789C2.57847 0.996094 0.875977 2.69859 0.875977 4.79801V15.4434C0.875977 17.5428 2.57847 19.2453 4.67789 19.2453H15.3233C17.4234 19.2453 19.1252 17.5428 19.1252 15.4434V4.79801C19.1252 2.69859 17.4234 0.996094 15.3233 0.996094V0.996094ZM16.0471 12.6284C15.9468 14.8404 14.7157 16.0661 12.5091 16.1673C11.8597 16.1969 11.6529 16.2038 10.0006 16.2038C8.34826 16.2038 8.1422 16.1969 7.49283 16.1673C5.28164 16.0661 4.0559 14.8381 3.95401 12.6284C3.92435 11.9798 3.91751 11.773 3.91751 10.1207C3.91751 8.46914 3.92435 8.26156 3.95401 7.61295C4.0559 5.40175 5.28316 4.17526 7.49283 4.07489C8.1422 4.04447 8.34826 4.03763 10.0006 4.03763C11.6529 4.03763 11.8597 4.04447 12.5091 4.07413C14.7203 4.17526 15.9483 5.40556 16.0471 7.61219C16.0768 8.26156 16.0836 8.46914 16.0836 10.1207C16.0836 11.773 16.0768 11.9798 16.0471 12.6284Z" fill="#E2D3B0"/>
</svg>
