<svg id="Layer_1" data-name="Layer 1" xmlns="http://www.w3.org/2000/svg" viewBox="0 0 226 174"><defs><style>.cls-1{fill:#e3e3e5;}.cls-2{fill:#d29719;}.cls-3{fill:#353535;}.cls-4{fill:#c8c8ca;}.cls-5{fill:#bbb;}</style></defs><title>logoArtboard 1</title><path class="cls-1" d="M49.9,156.67a14.63,14.63,0,0,1-.1-2v-.57Z"/><path class="cls-1" d="M84.23,166.21l-31.41-6.63c7.84,1.62,29.49,6.1,31.29,6.59h0Z"/><path class="cls-2" d="M179.09,154.45c0,4.59-2,6.71-6.14,7.57-10.23,2.09-20.52,3.8-30.73,6l-2.52.44L119,172v-4h0V60.18q0-26.25,0-52.49a3.15,3.15,0,0,1,.13-.86,4.31,4.31,0,0,1,5.8-2.63c8.9,3.63,35.71,14.58,47.53,19.46A10.5,10.5,0,0,1,179,33.39v.08C179,73.79,178.83,114.12,179.09,154.45Z"/><path class="cls-1" d="M196.49,122.75c-.06-2.19-.13-4.38-.18-6.57,0-1.86,0-3.72,0-5.57Z"/><path class="cls-3" d="M49.9,156.67a14.63,14.63,0,0,1-.1-2v-.57Z"/><path class="cls-3" d="M84.23,166.21l-31.41-6.63c7.84,1.62,29.49,6.1,31.29,6.59h0Z"/><path class="cls-4" d="M196.49,122.75c-.06-2.19-.13-4.38-.18-6.57,0-1.86,0-3.72,0-5.57Z"/><path class="cls-3" d="M38.7,152.15c0-39.49-.08-79,0-118.49,0-3.46-.84-4-3.91-2.54-8.68,4.21-17.33,8.51-26.22,12.22C4.22,45.14,3.2,47.65,3.26,52c.29,18.82.17,37.65.3,56.48.09,13.82.34,27.64.52,41.46L12,151c.09-14.49.26-29,.18-43.47,0-7.9,17.73-9.43,17.64-1.71-.17,15.16.09,30.33-.17,45.49-.09,5.19,3.61,4.3,6.39,4.8C39.44,156.74,38.7,154,38.7,152.15ZM25.82,92.43a24.37,24.37,0,0,1-4.92.6c-3.95.21-8.72,1.76-8.68-3.48.09-11.31.12-22.63,0-33.94,0-2.86.73-4.63,3.45-5.82,4.5-2,8.87-4.28,14-6.8,0,15.76-.06,30.39,0,45C29.75,90.65,28,91.85,25.82,92.43Z"/><path class="cls-3" d="M222.45,150.65a27.75,27.75,0,0,1-9.2,1.58c-1.55,0-1.17-2.11-1.4-3.35q-3.94-21.23-7.71-42.5c-1.27-7.09-2.59-14.16-3.8-21.26-.5-2.9-.86-5.81-1.38-8.71-.36-2-1-5.24-2.42-6.6a61.52,61.52,0,0,0-.93,6.38c0,3.78.39,7.57.51,11.34.66,19.78.44,39.63.57,59.43,0,5.35-.37,10.79-7.12,9.89-1-.14-1.48-.51-1.5-1.49,0-1.16,0-2.33,0-3.5,0-38.5.64-77,.09-115.49C188,28,196,21,198.92,36.32q3,15.7,6,31.38c1.27,6.51,2.62,13,3.94,19.52L213.11,109a.88.88,0,0,0,.89,1,1.28,1.28,0,0,0,1.06-1.23q-.16-18.48-.42-37c-.13-9-.39-18-.33-27,0-1.51-.31-4.85,1.61-4.43,2.62.57,7.35-.3,7.39,4.78.07,7,0,14,0,21q0,39.72,0,79.43C223.28,147.34,224.27,150,222.45,150.65Z"/><path class="cls-5" d="M196.49,122.75c-.06-2.19-.13-4.38-.18-6.57,0-1.85,0-3.71,0-5.57Z"/><path class="cls-3" d="M107,23q0,66.61.1,133.2a11.81,11.81,0,0,1-4.32,9.34c-3,2.39-6.82,3-11.66,2.11-2.29-.41-4.57-.89-6.85-1.39l-.1,0h0c-1.8-.49-23.45-5-31.29-6.59l-.39-.08-.7-.15-.59-.12h0a3.74,3.74,0,0,1-1.23-2.56l-.1-2.53v0c.1-39.7.06-79.41.08-119.11,0-4,.17-8,.26-12C62.82,16.9,75.48,10.7,88.18,4.6c8.47-4.07,14.4-2.11,18.24,5.94a6.42,6.42,0,0,1,.63,2.83C107,16.56,107,19.76,107,23Z"/></svg>