<svg width="244" height="244" viewBox="0 0 244 244" fill="none" xmlns="http://www.w3.org/2000/svg">
<path fill-rule="evenodd" clip-rule="evenodd" d="M39.1213 193.167H30.5C22.4073 193.167 14.6502 189.954 8.9365 184.23C3.21267 178.517 0 170.759 0 162.667V132.167C0 59.2208 54.6662 0 122 0C189.334 0 244 59.2208 244 132.167V162.667C244 170.759 240.787 178.517 235.064 184.23C229.35 189.954 221.593 193.167 213.5 193.167H204.879C177.53 240.269 134.688 244 122 244C109.312 244 66.4697 240.269 39.1213 193.167ZM203.333 133.427C197.223 135.827 190.432 131.597 190.432 125.325C190.432 122.234 190.208 119.123 189.893 116.022C171.99 113.44 153.11 96.441 152.286 78.1715C138.917 98.5557 106.282 120.567 80.6725 120.567C91.7135 113.46 99.369 92.3743 100.02 84.9018C94.1128 96.0038 70.5567 116.785 53.7512 120.353L53.5682 125.325C53.5682 131.618 46.7667 135.816 40.6667 133.427V171.766C43.5845 174.369 47.092 176.483 51.2502 177.805C53.5377 178.537 55.4388 180.082 56.547 182.116C78.9747 223.25 111.711 223.667 122 223.667C131.445 223.667 159.81 223.311 181.75 191.449C170.861 195.851 158.722 197.589 143.533 198.087C139.771 204.187 131.536 208.417 122 208.417C108.905 208.417 98.2812 200.446 98.2812 190.625C98.2812 180.804 108.905 172.833 122 172.833C131.486 172.833 139.67 177.012 143.472 183.051C162.789 182.786 187.555 179.655 203.333 156.16V133.427ZM91.5 127.083C98.4743 127.083 104.137 133.915 104.137 142.333C104.137 150.751 98.4743 157.583 91.5 157.583C84.5257 157.583 78.8628 150.751 78.8628 142.333C78.8628 133.915 84.5257 127.083 91.5 127.083ZM152.5 127.083C159.474 127.083 165.137 133.915 165.137 142.333C165.137 150.751 159.474 157.583 152.5 157.583C145.526 157.583 139.863 150.751 139.863 142.333C139.863 133.915 145.526 127.083 152.5 127.083ZM208.193 111.833H221.989C213.286 59.8003 171.796 20.3333 122 20.3333C72.2037 20.3333 30.7135 59.8003 22.0108 111.833H35.807C41.0937 70.9328 70.4855 33.3263 122 33.3263C173.515 33.3263 202.906 70.9328 208.193 111.833Z" fill="white"/>
</svg>
