<svg width="186" height="130" viewBox="0 0 186 130" fill="none" xmlns="http://www.w3.org/2000/svg">
<path d="M18.3867 120.33C18.467 123.342 18.969 126.327 19.8778 129.198C19.898 129.265 19.9203 129.331 19.9421 129.397H25.5061C25.5002 129.337 25.4942 129.271 25.4883 129.198C25.1174 124.911 27.2367 99.131 29.7942 94.6691C29.5701 95.031 17.9553 106.709 18.3867 120.33Z" fill="#E6E6E6"/>
<path d="M18.8054 129.198C18.852 129.265 18.9003 129.331 18.9499 129.397H23.1241C23.0925 129.34 23.0558 129.274 23.0133 129.198C22.3238 127.947 20.2828 124.207 18.3883 120.33C16.3532 116.163 14.4845 111.839 14.6419 110.274C14.5931 110.627 13.1842 121.388 18.8054 129.198Z" fill="#E6E6E6"/>
<path d="M86.462 124.791C86.5028 126.321 86.7578 127.837 87.2196 129.296C87.2298 129.33 87.2412 129.363 87.2522 129.397H90.0791C90.0761 129.367 90.073 129.333 90.0701 129.296C89.8816 127.118 90.9584 114.02 92.2577 111.753C92.1438 111.937 86.2428 117.87 86.462 124.791Z" fill="#E6E6E6"/>
<path d="M86.6746 129.296C86.6983 129.33 86.7228 129.364 86.748 129.397H88.8688C88.8527 129.368 88.8341 129.335 88.8125 129.296C88.4622 128.661 87.4252 126.76 86.4627 124.791C85.4287 122.674 84.4793 120.477 84.5593 119.681C84.5345 119.861 83.8187 125.328 86.6746 129.296Z" fill="#E6E6E6"/>
<path d="M69.7277 37.557L62.5322 42.7015L67.0095 43.1835L73.2459 37.879L69.7277 37.557Z" fill="#3F3D56"/>
<path d="M41.577 125.395L45.9048 125.395L47.9637 108.616L41.5762 108.616L41.577 125.395Z" fill="#9F616A"/>
<path d="M40.4717 123.975L48.9947 123.975H48.9951C50.4355 123.975 51.817 124.55 52.8356 125.574C53.8542 126.598 54.4265 127.986 54.4266 129.434V129.612L40.4719 129.612L40.4717 123.975Z" fill="#2F2E41"/>
<path d="M38.8553 65.4642C38.8553 65.4642 36.9797 67.5954 40.0854 75.9028L39.5384 121.454L49.6032 121.257L51.8156 99.0371L55.8436 66.6125L38.8553 65.4642Z" fill="#2F2E41"/>
<path d="M28.8078 58.2734C28.2132 58.2718 27.6426 58.0373 27.2171 57.6197C26.7916 57.2022 26.5448 56.6344 26.529 56.0369L26.0566 38.1451L34.1385 22.7334C34.322 22.3864 34.5905 22.0921 34.9186 21.8784C35.2468 21.6647 35.6237 21.5386 36.0138 21.5121L42.1729 21.1146L41.6411 57.1795L29.0081 58.2648C28.9411 58.2706 28.8743 58.2735 28.8078 58.2734Z" fill="#D3981A"/>
<path d="M59.2955 71.7617L59.1853 71.7448C46.3096 69.771 36.5933 67.8787 36.4967 67.8598L36.376 67.8363L39.7512 59.5845C39.7246 58.7222 38.994 34.5086 40.3926 27.5518C41.7466 20.8173 48.1289 19.7136 48.8561 19.6097L49.5864 17.1776L58.8125 22.0032L60.4216 27.5697L60.7484 42.8262L59.2955 71.7617Z" fill="#3F3D56"/>
<path d="M46.6161 48.6648C40.6719 48.6648 35.8359 42.1685 35.8359 34.1834C35.8359 26.1982 40.6719 19.7019 46.6161 19.7019C52.5603 19.7019 57.3963 26.1982 57.3963 34.1834C57.3963 42.1685 52.5603 48.6648 46.6161 48.6648ZM46.6161 21.1197C41.4497 21.1197 37.2464 26.98 37.2464 34.1834C37.2464 41.3867 41.4497 47.247 46.6161 47.247C51.7825 47.247 55.9858 41.3867 55.9858 34.1834C55.9858 26.98 51.7826 21.1197 46.6161 21.1197Z" fill="#D3981A"/>
<path d="M64.8518 40.3605C64.4364 40.3604 64.0254 40.4467 63.6447 40.614C63.264 40.7814 62.922 41.0261 62.64 41.3328H47.1325L41.4521 42.5482L42.3848 49.7785L62.5913 45.4104C62.9258 45.7902 63.3497 46.0796 63.8242 46.2524C64.2986 46.4252 64.8086 46.4757 65.3075 46.3994C65.8064 46.3232 66.2783 46.1225 66.6802 45.8157C67.0821 45.5089 67.4012 45.1059 67.6083 44.6433C67.8153 44.1807 67.9038 43.6734 67.8657 43.1676C67.8275 42.6618 67.6639 42.1736 67.3898 41.7477C67.1157 41.3219 66.7398 40.9718 66.2965 40.7294C65.8531 40.4871 65.3565 40.3603 64.8518 40.3605Z" fill="#9F616A"/>
<path d="M63.7137 16.1532C66.6323 13.2195 66.6323 8.46291 63.7137 5.52917C60.795 2.59542 56.0628 2.59542 53.1441 5.52917C50.2254 8.46292 50.2254 13.2195 53.1441 16.1532C56.0628 19.087 60.795 19.087 63.7137 16.1532Z" fill="#9F616A"/>
<path d="M51.3994 4.83632L51.0371 4.10331L52.8602 3.19282C52.8602 3.19282 54.8714 -0.0965009 58.5108 0.827871C62.1501 1.75224 63.7875 2.30546 63.7875 2.30546L65.606 3.2252L64.6933 4.13799L66.3307 4.69123L65.2368 5.23752L66.5096 5.97284L65.8244 9.74236C65.8244 9.74236 64.6864 6.88332 62.4987 7.9759C60.311 9.06847 56.3093 7.41111 56.3093 7.41111L52.8326 14.1741C52.8326 14.1741 52.1154 11.8034 50.8367 12.4355C50.8366 12.4355 47.5697 7.20588 51.3994 4.83632Z" fill="#2F2E41"/>
<path d="M116.341 51.0846L116.021 45.0624L112.797 42.4294L110.929 48.006L100.483 62.0102C99.9894 62.0897 99.5285 62.3098 99.1552 62.6443C98.7818 62.9789 98.5116 63.414 98.3766 63.8981C98.2415 64.3821 98.2472 64.895 98.393 65.3759C98.5388 65.8568 98.8187 66.2857 99.1994 66.6118C99.5801 66.9378 100.046 67.1475 100.541 67.2159C101.037 67.2842 101.541 67.2085 101.996 66.9977C102.45 66.7868 102.834 66.4496 103.103 66.026C103.373 65.6024 103.516 65.1101 103.516 64.6073C103.516 64.5719 103.512 64.5375 103.51 64.5024L116.341 51.0846Z" fill="#FFB7B7"/>
<path d="M122.548 126.983L120.078 126.983L118.902 117.406L122.548 117.406L122.548 126.983Z" fill="#FFB7B7"/>
<path d="M123.179 129.39L115.214 129.39V129.289C115.214 128.462 115.541 127.67 116.122 127.085C116.703 126.501 117.492 126.173 118.314 126.173H118.314L123.179 126.173L123.179 129.39Z" fill="#2F2E41"/>
<path d="M134.034 126.983L131.564 126.983L130.389 117.406L134.035 117.406L134.034 126.983Z" fill="#FFB7B7"/>
<path d="M134.664 129.39L126.698 129.39V129.289C126.698 128.462 127.025 127.67 127.606 127.085C128.188 126.501 128.976 126.173 129.799 126.173H129.799L134.664 126.173L134.664 129.39Z" fill="#2F2E41"/>
<path d="M131.423 25.9269C132.469 21.5862 133.355 16.6904 131.383 12.6927C130.014 9.91878 124.951 8.98467 122.049 9.98398C119.147 10.9833 117.048 13.6945 116.125 16.6506C115.203 19.6067 115.31 22.7921 115.712 25.8651C121.05 25.7621 126.387 25.659 131.423 25.9269Z" fill="#2F2E41"/>
<path d="M125.401 25.1591C128.418 23.5017 129.526 19.7003 127.877 16.6685C126.228 13.6366 122.447 12.5224 119.43 14.1797C116.414 15.8371 115.305 19.6385 116.954 22.6703C118.603 25.7022 122.385 26.8164 125.401 25.1591Z" fill="#FFB8B8"/>
<path d="M130.024 18.3808C130.044 17.3278 129.853 16.2816 129.462 15.3042C129.072 14.3269 128.49 13.4385 127.751 12.6916C127.013 11.9448 126.132 11.3549 125.162 10.9569C124.192 10.5589 123.152 10.3609 122.104 10.3748C121.057 10.3887 120.023 10.6141 119.063 11.0377C118.104 11.4613 117.239 12.0743 116.52 12.8405C115.801 13.6066 115.243 14.5102 114.878 15.4975C114.514 16.4848 114.35 17.5357 114.398 18.5878C119.725 18.5992 125.053 18.6106 130.024 18.3808Z" fill="#2F2E41"/>
<path d="M112.42 57.3627C112.42 57.3627 111.407 72.1502 111.956 76.6611C112.506 81.172 118.491 120.608 118.491 120.608L123.005 120.6L124.346 74.1271L129.684 121.052L134.353 120.564L137.001 74.6629C137.001 74.6629 136.586 57.4783 133.21 55.7551L112.42 57.3627Z" fill="#2F2E41"/>
<path d="M119.502 72.021C116.186 72.0199 112.918 71.2245 109.969 69.7006L109.904 69.6675L112.4 53.0246L112.238 33.1893C112.233 32.6449 112.337 32.1051 112.542 31.6013C112.747 31.0975 113.051 30.6398 113.434 30.255C113.817 29.8703 114.273 29.566 114.774 29.3601C115.275 29.1542 115.813 29.0507 116.354 29.0557L129.744 29.1792C130.337 29.1847 130.922 29.3127 131.464 29.5554C132.005 29.798 132.491 30.15 132.891 30.5896C133.292 31.0291 133.598 31.5468 133.791 32.1103C133.983 32.6739 134.059 33.2712 134.012 33.8653L132.759 49.7666L136.903 62.673L136.182 63.6355C134.241 66.239 131.722 68.3523 128.827 69.8078C125.932 71.2633 122.739 72.021 119.502 72.021Z" fill="#3F3D56"/>
<path d="M110.893 46.1681L112.296 31.7773L112.747 31.1323C113.056 30.6906 113.448 30.3145 113.902 30.0257C114.356 29.7368 114.862 29.541 115.391 29.4493C115.921 29.3576 116.463 29.3719 116.987 29.4914C117.511 29.6109 118.006 29.8332 118.444 30.1456L118.831 30.4212L118.449 45.005L110.893 46.1681Z" fill="#3F3D56"/>
<path d="M168.384 116.475C172.011 115.468 173.559 121.005 169.941 122.044C166.314 123.051 164.766 117.515 168.384 116.475Z" fill="#3F3D56"/>
<path d="M148.274 123.601C151.902 122.594 153.449 128.131 149.831 129.17C146.204 130.177 144.656 124.641 148.274 123.601Z" fill="#3F3D56"/>
<path d="M140.134 65.2082L140.19 65.1923L149.533 90.6882L150.765 90.3402L141.355 64.6615C141.335 64.2657 141.18 63.8888 140.917 63.5934C140.654 63.2981 140.299 63.1019 139.91 63.0376C135.238 62.295 133.344 66.4639 133.344 66.4639L133.362 66.4916L142.914 92.5581L144.146 92.2101L134.875 66.9106C137.698 64.1047 140.134 65.2082 140.134 65.2082Z" fill="#3F3D56"/>
<path d="M150.843 125.036C149.51 125.024 148.215 124.585 147.148 123.782C146.081 122.979 145.296 121.855 144.908 120.573C143.125 114.707 138.918 100.65 138.361 96.8358C137.635 91.8691 141.725 90.4566 141.816 90.4264C141.926 90.3892 143.57 89.9265 145.846 89.2863C149.715 88.1981 155.561 86.5534 155.776 86.4563C156.682 86.1398 157.643 86.0147 158.599 86.0889C159.555 86.1631 160.486 86.4351 161.333 86.8877C162.205 87.3491 162.975 87.9842 163.596 88.7541C164.217 89.5241 164.676 90.413 164.945 91.3667L170.962 112.887C171.334 114.206 171.23 115.615 170.668 116.864C170.107 118.114 169.125 119.124 167.895 119.717C163.252 121.959 156.442 124.951 150.934 125.035C150.904 125.035 150.873 125.036 150.843 125.036Z" fill="#D3981A"/>
<path d="M139.141 64.3266L136.116 46.5645L135.778 40.5699L130.888 42.1802L135.012 65.4385C134.846 65.8911 134.806 66.381 134.898 66.8547C134.99 67.3284 135.21 67.7675 135.533 68.1242C135.857 68.4808 136.272 68.7412 136.732 68.8768C137.193 69.0125 137.682 69.0181 138.146 68.8932C138.61 68.7684 139.03 68.5177 139.362 68.1687C139.693 67.8197 139.923 67.3857 140.026 66.9143C140.129 66.4429 140.1 65.9522 139.944 65.4958C139.788 65.0394 139.51 64.6349 139.141 64.3266V64.3266Z" fill="#FFB7B7"/>
<path d="M136.942 45.4504L129.309 45.0331L127.516 30.556L127.69 30.4038C128.12 30.029 128.619 29.7433 129.159 29.5629C129.699 29.3826 130.269 29.3113 130.837 29.353C131.404 29.3947 131.958 29.5487 132.466 29.8061C132.974 30.0635 133.427 30.4192 133.798 30.8528L134.151 31.2656L134.156 31.2917L136.942 45.4504Z" fill="#3F3D56"/>
<path d="M168.027 116.167L160.225 89.6239L141.879 94.8354L141.77 94.4457L160.499 89.1252L160.555 89.3172L168.414 116.052L168.027 116.167Z" fill="#3F3D56"/>
<path d="M29.3894 56.3704L28.5586 38.1621L37.0683 21.4418L37.4269 21.6263L28.9662 38.2508L29.792 56.3518L29.3894 56.3704Z" fill="#3F3D56"/>
<path d="M185.798 129.803H0.2181C0.164659 129.803 0.113407 129.781 0.0756189 129.743C0.0378306 129.705 0.0166016 129.654 0.0166016 129.6C0.0166016 129.546 0.0378306 129.495 0.0756189 129.457C0.113407 129.418 0.164659 129.397 0.2181 129.397H185.798C185.852 129.397 185.903 129.418 185.941 129.457C185.978 129.495 186 129.546 186 129.6C186 129.654 185.978 129.705 185.941 129.743C185.903 129.781 185.852 129.803 185.798 129.803Z" fill="#CCCCCC"/>
<path d="M42.4846 51.134L40.7112 45.8317L40.2822 28.1565L41.0378 25.6487C41.3098 24.7461 41.7603 23.908 42.3622 23.1846C42.9642 22.4611 43.7052 21.8673 44.541 21.4387C45.3767 21.0101 46.29 20.7554 47.226 20.6901C48.162 20.6247 49.1015 20.7499 49.9882 21.0583C50.8748 21.3667 51.6905 21.8518 52.3862 22.4846C53.0818 23.1174 53.6433 23.8848 54.0368 24.7409C54.4304 25.5971 54.6479 26.5242 54.6764 27.4669C54.7049 28.4096 54.5438 29.3483 54.2027 30.2269L50.1526 40.6587L50.3585 41.0604L59.1329 40.989L62.2497 46.6282L42.4846 51.134Z" fill="#3F3D56"/>
<path d="M98.3817 88.867L98.3755 88.8682L88.6503 90.8252L80.2842 94.2117C80.1761 94.2555 80.0604 94.2774 79.9438 94.2762C79.8272 94.2751 79.712 94.2509 79.6047 94.2049C79.4974 94.159 79.4002 94.0923 79.3186 94.0086C79.2369 93.9249 79.1725 93.8259 79.129 93.7172C79.1187 93.6916 79.1097 93.6657 79.1018 93.6392L72.9902 73.069C72.9259 72.8559 72.9436 72.6264 73.0397 72.4257C73.1358 72.2251 73.3034 72.0681 73.5092 71.9858L82.0283 68.5374L82.0345 68.5361L91.7597 66.5791L100.126 63.1927C100.344 63.1042 100.589 63.1067 100.805 63.1994C101.022 63.2921 101.193 63.4676 101.281 63.6871C101.291 63.7127 101.3 63.7387 101.308 63.7651L107.42 84.3353C107.484 84.5484 107.466 84.778 107.37 84.9786C107.274 85.1792 107.107 85.3362 106.901 85.4185L98.3817 88.867Z" fill="#E5E5E5"/>
<path d="M87.9452 75.0494C85.7151 74.2584 83.41 73.5654 81.0946 72.9898L80.9784 72.9609L82.1539 76.9176L88.1432 75.1197L87.9452 75.0494ZM82.2457 76.7467L81.1778 73.1522C83.3816 73.7036 85.5746 74.3614 87.7017 75.1089L82.2457 76.7467ZM99.6314 80.398C98.5932 79.808 97.5402 79.243 96.4722 78.703C96.1778 78.5539 95.8824 78.4069 95.5861 78.2622C93.7776 77.3778 91.9416 76.5716 90.0779 75.8436L90.0561 75.8351L82.5057 78.1016L84.5676 85.0414L99.7712 80.4775L99.6314 80.398ZM84.6594 84.8705L82.6757 78.1939L90.0504 75.9801C91.8476 76.6826 93.6242 77.4608 95.3803 78.3146C95.6852 78.4627 95.989 78.6131 96.2917 78.7657C97.3494 79.298 98.3935 79.8555 99.4242 80.4384L84.6594 84.8705ZM99.6314 80.398C98.5932 79.808 97.5402 79.243 96.4722 78.703C96.1778 78.5539 95.8824 78.4069 95.5861 78.2622C93.7776 77.3778 91.9416 76.5716 90.0779 75.8436L90.0561 75.8351L82.5057 78.1016L84.5676 85.0414L99.7712 80.4775L99.6314 80.398ZM84.6594 84.8705L82.6757 78.1939L90.0504 75.9801C91.8476 76.6826 93.6242 77.4608 95.3803 78.3146C95.6852 78.4627 95.989 78.6131 96.2917 78.7657C97.3494 79.298 98.3935 79.8555 99.4242 80.4384L84.6594 84.8705ZM87.9452 75.0494C85.7151 74.2584 83.41 73.5654 81.0946 72.9898L80.9784 72.9609L82.1539 76.9176L88.1432 75.1197L87.9452 75.0494ZM82.2457 76.7467L81.1778 73.1522C83.3816 73.7036 85.5746 74.3614 87.7017 75.1089L82.2457 76.7467ZM87.9452 75.0494C85.7151 74.2584 83.41 73.5654 81.0946 72.9898L80.9784 72.9609L82.1539 76.9176L88.1432 75.1197L87.9452 75.0494ZM82.2457 76.7467L81.1778 73.1522C83.3816 73.7036 85.5746 74.3614 87.7017 75.1089L82.2457 76.7467ZM99.6314 80.398C98.5932 79.808 97.5402 79.243 96.4722 78.703C96.1778 78.5539 95.8824 78.4069 95.5861 78.2622C93.7776 77.3778 91.9416 76.5716 90.0779 75.8436L90.0561 75.8351L82.5057 78.1016L84.5676 85.0414L99.7712 80.4775L99.6314 80.398ZM84.6594 84.8705L82.6757 78.1939L90.0504 75.9801C91.8476 76.6826 93.6242 77.4608 95.3803 78.3146C95.6852 78.4627 95.989 78.6131 96.2917 78.7657C97.3494 79.298 98.3935 79.8555 99.4242 80.4384L84.6594 84.8705ZM78.4413 88.1701L78.4804 88.3016L83.6497 86.7499L84.2164 88.6575L79.0471 90.2092L79.0862 90.3408L84.3864 88.7498L83.7415 86.579L78.4413 88.1701ZM85.9162 89.5802L86.3122 90.9132L86.4395 90.8618L86.0861 89.6725L106.242 83.6219L106.203 83.4903L85.9162 89.5802ZM105.246 80.2671L105.207 80.1355L84.9194 86.2254L85.5644 88.3962L105.851 82.3063L105.812 82.1747L85.6562 88.2253L85.0894 86.3177L105.246 80.2671ZM90.179 74.3653C87.0896 73.1721 83.916 72.2119 80.6847 71.4926L80.2889 70.1605L80.1616 70.212L80.5605 71.5543L80.6943 71.6355C83.9131 72.3539 87.0743 73.312 90.1518 74.5017L90.1736 74.5102L102.441 70.8277L102.402 70.6961L90.179 74.3653ZM80.806 77.1789L75.6367 78.7307L75.6758 78.8622L80.976 77.2712L79.0163 70.6754L78.889 70.7269L80.806 77.1789ZM102.793 72.0117L92.0083 75.2491L92.1839 75.3232C93.838 76.0228 95.4878 76.7962 97.1332 77.6434C97.3671 77.7637 97.6008 77.8857 97.8343 78.0093C98.9958 78.6225 100.148 79.2697 101.292 79.9511L101.419 79.9829L104.855 78.9515L104.816 78.82L101.388 79.8488C100.257 79.174 99.1147 78.5316 97.9623 77.9218C97.7318 77.7997 97.5009 77.679 97.2698 77.5597C95.6592 76.7281 94.0399 75.9653 92.4119 75.2712L102.832 72.1433L102.793 72.0117ZM79.438 91.5248L79.4771 91.6564L84.6464 90.1047L85.0396 91.4281L85.1669 91.3767L84.7382 89.9338L79.438 91.5248ZM76.0276 80.0463L76.0667 80.1778L81.236 78.6261L83.2197 85.3027L78.0504 86.8545L78.0895 86.986L83.3897 85.395L81.3278 78.4552L76.0276 80.0463ZM87.9452 75.0494C85.7151 74.2584 83.41 73.5654 81.0946 72.9898L80.9784 72.9609L82.1539 76.9176L88.1432 75.1197L87.9452 75.0494ZM82.2457 76.7467L81.1778 73.1522C83.3816 73.7036 85.5746 74.3614 87.7017 75.1089L82.2457 76.7467ZM99.6314 80.398C98.5932 79.808 97.5402 79.243 96.4722 78.703C96.1778 78.5539 95.8824 78.4069 95.5861 78.2622C93.7776 77.3778 91.9416 76.5716 90.0779 75.8436L90.0561 75.8351L82.5057 78.1016L84.5676 85.0414L99.7712 80.4775L99.6314 80.398ZM84.6594 84.8705L82.6757 78.1939L90.0504 75.9801C91.8476 76.6826 93.6242 77.4608 95.3803 78.3146C95.6852 78.4627 95.989 78.6131 96.2917 78.7657C97.3494 79.298 98.3935 79.8555 99.4242 80.4384L84.6594 84.8705ZM87.9452 75.0494C85.7151 74.2584 83.41 73.5654 81.0946 72.9898L80.9784 72.9609L82.1539 76.9176L88.1432 75.1197L87.9452 75.0494ZM82.2457 76.7467L81.1778 73.1522C83.3816 73.7036 85.5746 74.3614 87.7017 75.1089L82.2457 76.7467ZM99.6314 80.398C98.5932 79.808 97.5402 79.243 96.4722 78.703C96.1778 78.5539 95.8824 78.4069 95.5861 78.2622C93.7776 77.3778 91.9416 76.5716 90.0779 75.8436L90.0561 75.8351L82.5057 78.1016L84.5676 85.0414L99.7712 80.4775L99.6314 80.398ZM84.6594 84.8705L82.6757 78.1939L90.0504 75.9801C91.8476 76.6826 93.6242 77.4608 95.3803 78.3146C95.6852 78.4627 95.989 78.6131 96.2917 78.7657C97.3494 79.298 98.3935 79.8555 99.4242 80.4384L84.6594 84.8705Z" fill="white"/>
<path d="M89.6827 75.6693C90.1777 77.3352 88.2794 81.9473 88.2794 81.9473C88.2794 81.9473 84.1757 79.1369 83.6808 77.471C83.4431 76.6709 83.5313 75.8088 83.926 75.0741C84.3207 74.3395 84.9896 73.7926 85.7855 73.5536C86.5814 73.3147 87.4392 73.4034 88.17 73.8002C88.9009 74.1969 89.4451 74.8692 89.6827 75.6693H89.6827Z" fill="#D3981A"/>
<path d="M88.0136 76.0274C88.0946 76.3001 88.0934 76.5908 88.01 76.8629C87.9266 77.1349 87.7649 77.376 87.5452 77.5556C87.3256 77.7352 87.0578 77.8453 86.7759 77.872C86.494 77.8987 86.2105 77.8407 85.9614 77.7055C85.7122 77.5702 85.5085 77.3637 85.3761 77.1121C85.2437 76.8605 85.1885 76.5751 85.2175 76.2919C85.2464 76.0088 85.3583 75.7407 85.5389 75.5214C85.7195 75.3022 85.9607 75.1417 86.232 75.0602C86.4122 75.006 86.6012 74.9881 86.7882 75.0074C86.9753 75.0267 87.1568 75.0829 87.3222 75.1727C87.4877 75.2625 87.6339 75.3842 87.7525 75.5309C87.8712 75.6775 87.9599 75.8462 88.0136 76.0274Z" fill="white"/>
<path d="M88.6841 84.1598C89.1504 84.1598 89.5284 83.7798 89.5284 83.3111C89.5284 82.8425 89.1504 82.4625 88.6841 82.4625C88.2178 82.4625 87.8398 82.8425 87.8398 83.3111C87.8398 83.7798 88.2178 84.1598 88.6841 84.1598Z" fill="#D3981A"/>
<path d="M97.8948 72.1535L92.0273 73.9148C92.02 73.9171 92.0125 73.9188 92.0049 73.9197L93.3444 68.2551C93.3524 68.2199 93.3695 68.1875 93.3941 68.1612C93.4186 68.1348 93.4497 68.1155 93.4841 68.1052C93.5185 68.0949 93.555 68.0939 93.5898 68.1024C93.6247 68.1109 93.6567 68.1286 93.6826 68.1536L96.5084 70.8369L96.6437 70.9652L97.8948 72.1535Z" fill="white"/>
<path opacity="0.2" d="M97.8968 72.1535L95.8936 72.7548L96.4505 71.0239L96.4904 70.8992L96.5105 70.8368L96.6457 70.9652L97.8968 72.1535Z" fill="black"/>
<path d="M101.163 71.1729L96.0879 72.6963L96.6447 70.9653L96.6847 70.8406L97.4103 68.5848C97.4244 68.5494 97.4459 68.5174 97.4731 68.4909C97.5004 68.4643 97.5329 68.4439 97.5686 68.4308C97.6042 68.4177 97.6422 68.4123 97.68 68.415C97.7179 68.4176 97.7548 68.4282 97.7883 68.4461C97.7971 68.4514 97.8056 68.4573 97.8136 68.4637L101.163 71.1729Z" fill="white"/>
</svg>
