<svg width="420" height="305" viewBox="0 0 420 305" fill="none" xmlns="http://www.w3.org/2000/svg">
<rect y="109.613" width="58.3557" height="91.7018" rx="6" fill="#353535"/>
<circle r="4.16826" transform="matrix(1 0 0 -1 29.178 192.978)" fill="white"/>
<rect x="223.495" width="195.77" height="231.15" rx="6" fill="#353535"/>
<rect x="242.365" y="21.2275" width="158.031" height="188.694" rx="6" fill="white"/>
<path d="M274.207 292.476H382.706L372.092 304.269H263.593L274.207 292.476Z" fill="#747474"/>
<rect x="287.18" y="235.867" width="75.4776" height="61.3256" fill="#353535"/>
<path d="M313.705 123.3H303.975L302.365 127.955H297.22L306.005 103.49H311.71L320.495 127.955H315.315L313.705 123.3ZM312.375 119.38L308.84 109.16L305.305 119.38H312.375ZM332.319 103.525C334.885 103.525 337.137 104.027 339.074 105.03C341.034 106.033 342.539 107.468 343.589 109.335C344.662 111.178 345.199 113.325 345.199 115.775C345.199 118.225 344.662 120.372 343.589 122.215C342.539 124.035 341.034 125.447 339.074 126.45C337.137 127.453 334.885 127.955 332.319 127.955H323.779V103.525H332.319ZM332.144 123.79C334.71 123.79 336.694 123.09 338.094 121.69C339.494 120.29 340.194 118.318 340.194 115.775C340.194 113.232 339.494 111.248 338.094 109.825C336.694 108.378 334.71 107.655 332.144 107.655H328.679V123.79H332.144Z" fill="#353535"/>
<path fill-rule="evenodd" clip-rule="evenodd" d="M206.182 152.801H69.0098V151.084H206.182V152.801Z" fill="white"/>
<rect x="6.09473" y="122.438" width="46.7278" height="61.9651" fill="white"/>
</svg>
