<svg width="163" height="151" viewBox="0 0 163 151" fill="none" xmlns="http://www.w3.org/2000/svg">
<path d="M132.369 150.816H31.3084C14.5627 150.816 0.990234 138.224 0.990234 122.689V28.9342C0.990234 13.3989 14.5627 0.807617 31.3084 0.807617H132.369C149.115 0.807617 162.687 13.3989 162.687 28.9342V122.689C162.687 138.224 149.115 150.816 132.369 150.816Z" fill="#F2E1BB" fill-opacity="0.904442"/>
<path d="M88.2517 44.6399H84.8007C83.7602 41.2822 80.4363 38.7969 76.4816 38.7969C72.5268 38.7969 69.1982 41.2822 68.1624 44.6399H64.7114C63.4261 44.6399 62.3574 45.6349 62.3574 46.8316V51.2149C62.3574 54.0203 64.8386 56.3303 67.8517 56.3303H85.1114C88.1246 56.3303 90.6057 54.0203 90.6057 51.2149V46.8316C90.6057 45.6349 89.537 44.6399 88.2517 44.6399Z" fill="#2F2E41"/>
<path d="M94.6036 48.5376H93.8141V52.3918C93.8141 57.0788 89.9377 60.8729 85.149 60.8729H67.814C63.0253 60.8729 59.1489 57.0788 59.1489 52.3918V48.5376H58.3595C53.5707 48.5376 49.6943 52.3316 49.6943 57.0187V95.5744C49.6943 100.266 53.5707 104.06 58.3595 104.06H79.1264C77.5522 100.761 76.6068 97.1198 76.5122 93.2656H61.5126C60.222 93.2656 59.1489 92.2153 59.1489 90.9522C59.1489 89.689 60.222 88.6387 61.5126 88.6387H76.7675C77.0512 86.7556 77.5239 84.9696 78.1526 83.2392H61.5126C60.222 83.2392 59.1489 82.1889 59.1489 80.9257C59.1489 79.6626 60.222 78.6123 61.5126 78.6123H80.4217C81.6508 76.6366 83.1021 74.8183 84.8039 73.2127H61.5126C60.222 73.2127 59.1489 72.1624 59.1489 70.8993C59.1489 69.6362 60.222 68.5859 61.5126 68.5859H91.2614C94.8872 66.7351 98.9527 65.6247 103.269 65.5321V57.0187C103.269 52.3316 99.3923 48.5376 94.6036 48.5376Z" fill="#F0C275"/>
<path d="M104.243 70.9414C92.4283 70.9414 82.8135 80.5562 82.8135 92.3711C82.8135 104.186 92.4283 113.801 104.243 113.801C116.058 113.801 125.673 104.186 125.673 92.3711C125.673 80.5562 116.058 70.9414 104.243 70.9414ZM114.568 88.1138L103.457 100.814C102.881 101.476 102.053 101.867 101.176 101.895C101.143 101.895 101.105 101.895 101.072 101.895C100.233 101.895 99.4239 101.562 98.8286 100.967L92.4807 94.6189C91.2425 93.3807 91.2425 91.3711 92.4807 90.1282C93.7188 88.8852 95.7285 88.89 96.9714 90.1282L100.919 94.076L109.796 83.9278C110.953 82.6135 112.953 82.4754 114.277 83.6278C115.591 84.7898 115.725 86.7899 114.568 88.1138Z" fill="#353535"/>
</svg>
