<svg width="64" height="96" viewBox="0 0 64 96" fill="none" xmlns="http://www.w3.org/2000/svg">
<path d="M38.5715 76.9593C37.9792 76.9279 37.4182 77.1792 37.1066 77.6818L32.1504 85.4707L27.1941 77.6818C26.8825 77.1792 26.3215 76.8966 25.7292 76.9593C15.4118 78.0587 8.77246 81.6077 8.77246 86.036C8.77246 92.1604 20.8043 95.4582 32.1504 95.4582C43.4964 95.4582 55.5283 92.1604 55.5283 86.036C55.5283 81.6077 48.8889 78.0587 38.5715 76.9593Z" fill="#353535"/>
<path d="M55.5278 86.033C55.5278 92.1594 43.9973 95.4582 33.124 95.4582V85.4674L37.8737 77.676C38.1723 77.1732 38.71 76.9218 39.2776 76.9533C49.1652 78.053 55.5278 81.6032 55.5278 86.033Z" fill="#424242"/>
<path d="M32.15 0.972656C15.1479 0.972656 0.979492 14.8237 0.979492 32.4528C0.979492 39.1492 2.96288 45.1591 6.81707 50.7685L29.7699 87.3235C30.3365 88.2391 31.2434 88.6398 32.1502 88.6398C33.0568 88.6398 33.9638 88.2391 34.5303 87.3235L57.5965 50.654C61.3372 45.2737 63.3206 38.9777 63.3206 32.4528C63.3206 15.1099 49.3223 0.972656 32.15 0.972656ZM32.15 46.7619C24.3376 46.7619 17.9816 40.3428 17.9816 32.4528C17.9816 24.5627 24.3376 18.1436 32.15 18.1436C39.9625 18.1436 46.3184 24.5627 46.3184 32.4528C46.3184 40.3428 39.9625 46.7619 32.15 46.7619Z" fill="#E6AD35"/>
<path d="M32.1504 0.972656V18.1436C39.9629 18.1436 46.3188 24.5627 46.3188 32.4527C46.3188 40.3427 39.9629 46.7618 32.1504 46.7618V88.6398C33.057 88.6398 33.9639 88.2391 34.5305 87.3235L57.5969 50.6539C61.3375 45.2736 63.3209 38.9776 63.3209 32.4527C63.3209 15.1099 49.3227 0.972656 32.1504 0.972656Z" fill="#AD790A"/>
</svg>
