<svg width="162" height="161" viewBox="0 0 162 161" fill="none" xmlns="http://www.w3.org/2000/svg">
<g style="mix-blend-mode:multiply">
<path fill-rule="evenodd" clip-rule="evenodd" d="M121.817 82.3886C124.687 57.8657 107.107 35.5253 82.374 32.6303C57.6406 29.7352 35.3767 47.4117 32.5062 71.9346C29.6358 96.4575 47.2157 118.798 71.9491 121.693C96.6825 124.588 118.946 106.911 121.817 82.3886ZM85.247 8.08541C123.326 12.5426 150.712 47.0263 146.238 85.2471C141.764 123.468 107.155 150.695 69.0761 146.238C30.9973 141.781 3.61154 107.297 8.08535 69.0761C12.5592 30.8553 47.1683 3.62823 85.247 8.08541Z" fill="url(#paint0_linear)" fill-opacity="0.3"/>
</g>
<g style="mix-blend-mode:multiply">
<path fill-rule="evenodd" clip-rule="evenodd" d="M143.326 130.225C136.936 130.225 131.722 135.56 131.722 142.185C131.722 148.809 136.936 154.144 143.326 154.144C149.716 154.144 154.93 148.809 154.93 142.185C154.93 135.56 149.716 130.225 143.326 130.225ZM125.326 142.185C125.326 131.986 133.367 123.685 143.326 123.685C153.286 123.685 161.326 131.986 161.326 142.185C161.326 152.383 153.286 160.685 143.326 160.685C133.367 160.685 125.326 152.383 125.326 142.185Z" fill="url(#paint1_linear)" fill-opacity="0.3"/>
</g>
<defs>
<linearGradient id="paint0_linear" x1="146.238" y1="85.2471" x2="8.08535" y2="69.0761" gradientUnits="userSpaceOnUse">
<stop stop-color="#D3981A"/>
<stop offset="1" stop-color="#241900"/>
</linearGradient>
<linearGradient id="paint1_linear" x1="143.326" y1="123.685" x2="143.326" y2="160.685" gradientUnits="userSpaceOnUse">
<stop stop-color="#D3981A"/>
<stop offset="1" stop-color="#241900"/>
</linearGradient>
</defs>
</svg>
