<svg width="7" height="6" viewBox="0 0 7 6" fill="none" xmlns="http://www.w3.org/2000/svg">
<path fill-rule="evenodd" clip-rule="evenodd" d="M4.64572 0.729277C3.88058 1.60957 3.12721 3.81548 5.88171 5.38965C5.37832 4.86299 4.66738 3.81174 4.67137 2.77466H6.61119C6.82592 2.77466 6.99999 2.62151 6.99999 2.4326V1.04545C6.99999 0.856532 6.82592 0.703385 6.61119 0.703385H4.64572L4.64572 0.729277Z" fill="#353535"/>
<path fill-rule="evenodd" clip-rule="evenodd" d="M0.708221 0.729277C-0.0569164 1.60957 -0.810286 3.81548 1.94421 5.38965C1.44082 4.86299 0.72988 3.81174 0.733866 2.77466H2.67369C2.88842 2.77466 3.06249 2.62151 3.06249 2.4326V1.04545C3.06249 0.856532 2.88842 0.703385 2.67369 0.703385H0.70822L0.708221 0.729277Z" fill="#353535"/>
</svg>
