<svg width="140" height="141" viewBox="0 0 140 141" fill="none" xmlns="http://www.w3.org/2000/svg">
<path d="M62.9492 77.7227L72.2665 80.0316L91.0339 82.5114C95.5084 83.1026 99.6144 85.2838 102.589 88.6496C105.563 92.0155 107.204 96.3373 107.206 100.812V140.064H0.0576172V100.812C0.0575407 96.3357 1.69727 92.0117 4.67197 88.6439C7.64666 85.2761 11.7539 83.0936 16.2301 82.5021L34.9974 80.0316L44.3147 77.7227H62.9492Z" fill="#353535"/>
<path d="M52.6579 84.663L43.4041 96.2302L34.1504 80.0361L43.4041 77.7227L52.6579 84.663Z" fill="#686868"/>
<path d="M62.399 77.7227L72.1398 80.0361L62.399 96.2302L52.6582 84.663L62.399 77.7227Z" fill="#686868"/>
<path d="M60.4501 93.7953L55.5797 103.049H50.7093L45.8389 93.7953L53.1445 84.5415L60.4501 93.7953Z" fill="#5E87CA"/>
<path d="M62.3991 67.9819C59.5238 69.4564 56.356 70.2213 53.1454 70.2166C49.9347 70.2213 46.7669 69.4564 43.8916 67.9819V77.3789L53.1454 84.5413L62.3991 77.3789V67.9819Z" fill="#F2B9A1"/>
<path d="M73.8437 37.7855H78.5517L80.5739 27.8539C80.7949 26.7662 80.9061 25.6596 80.9058 24.5503C80.9058 20.0842 79.1005 15.801 75.8871 12.643C72.6736 9.48498 68.3153 7.71082 63.7708 7.71082H58.5425C57.606 7.71082 56.7079 7.34522 56.0457 6.69444C55.3835 6.04366 55.0115 5.16101 55.0115 4.24066C55.0115 3.32032 54.6395 2.43767 53.9773 1.78689C53.3151 1.13611 52.417 0.770508 51.4805 0.770508H44.183C38.9386 0.770508 33.9091 2.81789 30.2008 6.46227C26.4925 10.1066 24.4092 15.0495 24.4092 20.2034C24.4091 21.1229 24.4752 22.0414 24.6069 22.9518L26.7632 37.7855H31.4713V35.6363C31.4713 32.5691 32.7109 29.6275 34.9175 27.4583L41.5771 20.9136C42.1048 20.395 42.7312 19.9837 43.4207 19.7031C44.1102 19.4224 44.8491 19.278 45.5954 19.278C46.3417 19.278 47.0806 19.4224 47.7701 19.7031C48.4596 19.9837 49.086 20.395 49.6137 20.9136L57.1984 28.3675C57.8675 29.0239 58.7742 29.3925 59.7195 29.3925C60.6649 29.3925 61.5716 29.0239 62.2407 28.3675C62.8476 27.771 63.6531 27.4096 64.5093 27.3497C65.3654 27.2898 66.2149 27.5354 66.9017 28.0413L71.9605 31.7706C72.5452 32.2016 73.0198 32.7604 73.3466 33.4029C73.6735 34.0453 73.8437 34.7538 73.8437 35.4721V37.7855Z" fill="#976947"/>
<path d="M74.0876 34.7302V48.8101C74.0876 54.4114 71.8811 59.7833 67.9536 63.7441C64.0261 67.7048 58.6992 69.9299 53.1448 69.9299C47.5905 69.9299 42.2636 67.7048 38.3361 63.7441C34.4086 59.7833 32.2021 54.4114 32.2021 48.8101V34.8968C32.2022 31.7856 33.4276 28.8017 35.6088 26.6014L42.1918 19.9628C42.7135 19.4368 43.3327 19.0195 44.0143 18.7349C44.6958 18.4502 45.4263 18.3037 46.1639 18.3037C46.9016 18.3037 47.6321 18.4502 48.3136 18.7349C48.9952 19.0195 49.6144 19.4368 50.1361 19.9628L57.6336 27.5237C58.295 28.1894 59.1913 28.5634 60.1258 28.5634C61.0602 28.5634 61.9565 28.1894 62.6179 27.5237C63.2179 26.9186 64.0141 26.5521 64.8604 26.4913C65.7067 26.4305 66.5464 26.6796 67.2253 27.1928L72.226 30.9756C72.804 31.4128 73.2731 31.9796 73.5962 32.6313C73.9193 33.283 74.0876 34.0016 74.0876 34.7302Z" fill="#FBE1CA"/>
<path d="M32.2026 37.7856H27.527C25.667 37.7856 23.8831 38.504 22.5678 39.7828C21.2526 41.0615 20.5137 42.7958 20.5137 44.6042C20.5137 46.4126 21.2526 48.1469 22.5678 49.4256C23.8831 50.7044 25.667 51.4228 27.527 51.4228H32.2026" fill="#F2B9A1"/>
<path d="M74.0879 37.7856H78.7635C80.6235 37.7856 82.4074 38.504 83.7227 39.7828C85.0379 41.0615 85.7768 42.7958 85.7768 44.6042C85.7768 46.4126 85.0379 48.1469 83.7227 49.4256C82.4074 50.7044 80.6235 51.4228 78.7635 51.4228H74.0879" fill="#F2B9A1"/>
<path d="M50.7093 103.049L45.8389 128.497L53.1445 140.064L60.4501 128.497L55.5797 103.049" fill="#78A0D4"/>
<path d="M16.6172 107.919H18.5653V140.064H16.6172V107.919Z" fill="#686868"/>
<path d="M87.7246 107.919H89.6728V140.064H87.7246V107.919Z" fill="#686868"/>
<path d="M93.5693 0.770508H139.351V69.9301H93.5693V0.770508Z" fill="#C8CDED"/>
<path d="M93.5693 0.770508H132.533V58.2412H93.5693V0.770508Z" fill="#E2E7F6"/>
<path d="M109.154 7.58887H132.532V12.4593H109.154V7.58887Z" fill="#9DA1BF"/>
<path d="M100.388 16.3555H132.532V21.2259H100.388V16.3555Z" fill="#9DA1BF"/>
<path d="M100.388 26.0962H132.532V29.9925H100.388V26.0962Z" fill="#9DA1BF"/>
<path d="M100.388 34.8633H132.532V39.7337H100.388V34.8633Z" fill="#9DA1BF"/>
<path d="M100.388 44.604H132.532V49.4744H100.388V44.604Z" fill="#9DA1BF"/>
<path d="M100.388 54.3447H132.532V58.241H100.388V54.3447Z" fill="#9DA1BF"/>
</svg>
