<svg width="23" height="20" viewBox="0 0 23 20" fill="none" xmlns="http://www.w3.org/2000/svg">
<path d="M22.9551 3.15654C22.1158 3.52332 21.2138 3.77034 20.2671 3.88168C21.2337 3.31186 21.9761 2.40895 22.3249 1.33293C21.421 1.86065 20.4192 2.24427 19.3527 2.45105C18.5002 1.55562 17.2826 0.996094 15.9367 0.996094C12.9151 0.996094 10.6948 3.77127 11.3773 6.65218C7.48886 6.46037 4.04052 4.62647 1.73181 1.83913C0.505687 3.90975 1.09594 6.6185 3.17939 7.99018C2.4133 7.96586 1.69093 7.75908 1.06077 7.41382C1.00944 9.54807 2.56347 11.5448 4.81421 11.9892C4.15553 12.1651 3.43411 12.2063 2.70034 12.0678C3.29534 13.898 5.02332 15.2294 7.07255 15.2668C5.10506 16.7854 2.62621 17.4638 0.143555 17.1756C2.21465 18.4827 4.67544 19.2453 7.31777 19.2453C16.0071 19.2453 20.9163 12.021 20.6197 5.54155C21.5341 4.89126 22.3277 4.08004 22.9551 3.15654Z" fill="#F2E1BB" fill-opacity="0.904442"/>
</svg>
