<svg width="196" height="66" viewBox="0 0 196 66" fill="none" xmlns="http://www.w3.org/2000/svg">
<path fill-rule="evenodd" clip-rule="evenodd" d="M79.1779 0.0700684L97.9648 22.0721L116.767 0.0740395L135.571 22.074L154.374 0.0740275L173.18 22.076L188.581 4.07458L195.42 9.92548L173.176 35.924L154.374 13.926L135.571 35.926L116.767 13.926L97.9614 35.928L79.178 13.93L60.3946 35.928L41.5891 13.926L22.7838 35.928L0.578125 9.92213L7.42249 4.07793L22.7871 22.0721L41.5891 0.0740395L60.3912 22.0721L79.1779 0.0700684Z" fill="#D3981A" fill-opacity="0.3"/>
<path fill-rule="evenodd" clip-rule="evenodd" d="M79.1779 30.0701L97.9648 52.0721L116.767 30.074L135.571 52.074L154.374 30.074L173.18 52.076L188.581 34.0746L195.42 39.9255L173.176 65.924L154.374 43.926L135.571 65.926L116.767 43.926L97.9614 65.928L79.178 43.93L60.3946 65.928L41.5891 43.926L22.7838 65.928L0.578125 39.9221L7.42249 34.0779L22.7871 52.0721L41.5891 30.074L60.3912 52.0721L79.1779 30.0701Z" fill="#D3981A" fill-opacity="0.3"/>
</svg>
