<svg width="49" height="49" viewBox="0 0 49 49" fill="none" xmlns="http://www.w3.org/2000/svg">
<g clip-path="url(#clip0_73_502)">
<path d="M27.6008 33.2007C26.3584 33.4064 25.0827 33.2156 23.9548 32.6553C22.6113 31.9899 21.5571 30.8565 20.9902 29.4682C21.8258 29.145 22.524 28.5429 22.9666 27.7639C25.0281 24.4745 23.6992 19.8386 25.7437 16.5152C26.5284 15.2302 27.6299 14.1682 28.9425 13.4311C30.2551 12.694 31.7349 12.3064 33.2402 12.3054H34.2284C35.7308 12.3093 37.2072 12.6983 38.5165 13.4353C39.8259 14.1723 40.9247 15.2326 41.7079 16.5152C43.7524 19.9239 42.4064 24.4745 44.485 27.7639C44.9212 28.5418 45.6137 29.1441 46.4443 29.4682C45.8829 30.86 44.8271 31.9951 43.4798 32.6553C42.3518 33.2156 41.0762 33.4064 39.8338 33.2007" stroke="white" stroke-width="1.5" stroke-miterlimit="10"/>
<path d="M36.4604 33.2007C36.6941 34.205 37.226 35.1152 37.9861 35.8117C38.7463 36.5083 39.6992 36.9586 40.7198 37.1036C41.9465 37.4615 43.1902 37.7854 44.4169 38.1262C45.0515 38.3045 45.6309 38.6401 46.1014 39.1019C46.572 39.5636 46.9185 40.1367 47.1089 40.768L48.3185 46.5968C48.353 46.8055 48.3418 47.0191 48.286 47.223C48.2301 47.4269 48.1308 47.6164 47.9948 47.7783C47.8588 47.9402 47.6895 48.0707 47.4983 48.161C47.3072 48.2513 47.0987 48.2991 46.8874 48.3012H20.5814C20.3709 48.2963 20.1639 48.2466 19.9742 48.1555C19.7844 48.0643 19.6162 47.9338 19.4808 47.7725C19.3454 47.6113 19.2459 47.423 19.1889 47.2203C19.1319 47.0176 19.1187 46.8051 19.1502 46.5968L20.4451 40.768C20.6326 40.1352 20.9781 39.5606 21.4491 39.0984C21.9201 38.6362 22.501 38.3016 23.137 38.1262C24.3637 37.7854 25.6075 37.4615 26.8342 37.1036C27.8497 36.9455 28.7958 36.4906 29.5536 35.7962C30.3114 35.1017 30.8472 34.1988 31.0936 33.2007" stroke="white" stroke-width="1.5" stroke-miterlimit="10"/>
<path d="M20.3088 15.288H7.66698M20.3088 11.743H7.66698M19.5592 36.4049H2.93054M27.3454 11.4532V0.647654H20.4281M40.4643 24.1165C40.0372 26.778 39.1493 29.3446 37.8405 31.7009C37.4048 32.4131 36.7976 33.0048 36.0743 33.4216C35.3511 33.8384 34.5349 34.0672 33.7004 34.087C32.8694 34.0708 32.0559 33.8453 31.3352 33.4312C30.6145 33.0171 30.0099 32.4278 29.5773 31.7179C28.2408 29.6626 27.3848 27.3324 27.0728 24.9005C26.272 18.833 32.7463 18.6626 36.6649 21.6111C37.8735 22.5411 39.1428 23.3895 40.4643 24.1506V24.1165ZM27.3454 3.30644H31.2981V9.88522L27.3454 3.30644Z" stroke="white" stroke-width="1.5" stroke-miterlimit="10"/>
<path d="M20.4281 0.647654H0.647461V32.8257H19.5591" stroke="white" stroke-width="1.5" stroke-miterlimit="10"/>
<path d="M17.2421 2.14749V2.67584C17.2444 2.79141 17.2236 2.90627 17.1809 3.01371C17.1383 3.12114 17.0746 3.21898 16.9937 3.30151C16.9128 3.38404 16.8162 3.4496 16.7097 3.49434C16.6032 3.53908 16.4887 3.56212 16.3732 3.5621H11.6197C11.3847 3.5621 11.1594 3.46872 10.9933 3.30252C10.8271 3.13631 10.7338 2.91089 10.7338 2.67584V2.14749" stroke="white" stroke-width="0.75" stroke-miterlimit="10"/>
<path d="M27.4135 39.2L25.3349 39.7624L23.6311 40.2056C23.3801 40.2854 23.151 40.4224 22.9618 40.6057C22.7726 40.789 22.6285 41.0138 22.5407 41.2623L21.5355 46.0174H46.0014L44.9962 41.2623C44.9068 41.0119 44.7601 40.786 44.5678 40.6025C44.3755 40.419 44.143 40.2831 43.8888 40.2056L42.185 39.7624L40.1235 39.2C38.4442 40.8715 36.1715 41.8098 33.8026 41.8098C31.4336 41.8098 29.161 40.8715 27.4816 39.2H27.4135Z" fill="white"/>
</g>
<defs>
<clipPath id="clip0_73_502">
<rect width="49" height="49" fill="white"/>
</clipPath>
</defs>
</svg>
