<svg width="49" height="47" viewBox="0 0 49 47" fill="none" xmlns="http://www.w3.org/2000/svg">
<g clip-path="url(#clip0_73_488)">
<path d="M22.4604 42.1447V32.009M24.7801 29.001C24.7649 29.0653 24.7291 29.1224 24.6783 29.1633C24.6275 29.2042 24.5648 29.2264 24.5001 29.2264C24.4355 29.2264 24.3727 29.2042 24.3219 29.1633C24.2711 29.1224 24.2353 29.0653 24.2202 29.001C24.2353 28.9368 24.2711 28.8796 24.3219 28.8388C24.3727 28.7979 24.4355 28.7756 24.5001 28.7756C24.5648 28.7756 24.6275 28.7979 24.6783 28.8388C24.7291 28.8796 24.7649 28.9368 24.7801 29.001ZM26.5398 32.009V42.1447V32.009Z" stroke="white" stroke-width="1.5" stroke-linecap="round" stroke-linejoin="round"/>
<path d="M46.1045 2.9426C31.7291 4.10155 17.2868 4.10155 2.9115 2.9426V7.84695H46.1045V2.9426Z" fill="white"/>
<path d="M30.507 20.0588C30.5071 20.3835 30.6122 20.6991 30.8061 20.9563C31 21.2136 31.2717 21.3981 31.5789 21.4811C36.1701 22.4619 35.4022 17.5249 32.9866 17.4268C30.475 16.6421 31.1789 14.7131 31.1789 14.7131C31.8508 12.8331 34.9543 13.0783 35.0343 14.9583M24.78 21.6445H22.7163V13.4706C24.604 13.2908 27.3715 13.4706 27.3395 16.0863C27.3875 18.1134 27.6915 21.7099 24.78 21.6445ZM13.8857 21.6445L16.3333 13.4543L13.8857 21.6445ZM18.7809 21.6445L16.3333 13.4543L18.7809 21.6445ZM14.5576 19.3722H18.0931H14.5576Z" stroke="white" stroke-width="1.5" stroke-linecap="round" stroke-linejoin="round"/>
<path d="M32.4427 42.1447H16.5413C16.0358 42.1611 15.5398 42.2896 15.0877 42.5214C14.6356 42.7531 14.2383 43.0826 13.9233 43.487C13.6082 43.8914 13.3831 44.3609 13.2633 44.8631C13.1436 45.3652 13.1322 45.888 13.2299 46.3951H35.7702C35.8652 45.887 35.8514 45.3639 35.7296 44.8618C35.6078 44.3596 35.381 43.8904 35.0648 43.4865C34.7485 43.0825 34.3504 42.7534 33.8977 42.5218C33.4451 42.2901 32.9487 42.1615 32.4427 42.1447V42.1447Z" stroke="white" stroke-width="1.5" stroke-miterlimit="10" stroke-linecap="round"/>
<path d="M48.3921 32.9409C32.4891 31.6494 16.5109 31.6494 0.60791 32.9409V0.621218C16.5115 1.89633 32.4885 1.89633 48.3921 0.621218V32.9409Z" stroke="white" stroke-width="1.5" stroke-linecap="round" stroke-linejoin="round"/>
</g>
<defs>
<clipPath id="clip0_73_488">
<rect width="49" height="47" fill="white"/>
</clipPath>
</defs>
</svg>
