<svg width="43" height="48" viewBox="0 0 43 48" fill="none" xmlns="http://www.w3.org/2000/svg">
<g clip-path="url(#clip0_73_534)">
<path d="M13.3917 24.0332L20.5472 30.3779L30.8626 17.8381" stroke="white" stroke-width="1.5" stroke-miterlimit="10" stroke-linecap="round"/>
<path d="M42.1307 6.64362C38.4759 7.11828 34.7622 6.84916 31.2155 5.85265C27.6687 4.85613 24.3632 3.15306 21.5001 0.847076C18.6369 3.15306 15.3314 4.85613 11.7847 5.85265C8.23792 6.84916 4.52417 7.11828 0.869416 6.64362C0.869416 6.64362 -3.10959 40.1274 21.5001 47.3523C46.1097 40.1274 42.1307 6.64362 42.1307 6.64362Z" stroke="white" stroke-width="1.5" stroke-miterlimit="10" stroke-linecap="round"/>
<path d="M21.5001 13.2872C27.1907 13.271 32.858 14.0083 38.3524 15.4796C38.4527 13.4533 38.5363 11.6263 38.4527 10.1813C32.424 10.157 26.5268 8.4288 21.45 5.19864C16.3732 8.4288 10.476 10.157 4.44727 10.1813C4.44727 11.6429 4.44727 13.5031 4.58101 15.4796C10.0976 14.0052 15.7874 13.2679 21.5001 13.2872Z" fill="white"/>
</g>
<defs>
<clipPath id="clip0_73_534">
<rect width="43" height="48" fill="white"/>
</clipPath>
</defs>
</svg>
