<svg width="75" height="80" viewBox="0 0 75 80" fill="none" xmlns="http://www.w3.org/2000/svg">
<g filter="url(#filter0_d_73_497)">
<circle cx="37.6186" cy="30.6186" r="25" transform="rotate(15 37.6186 30.6186)" fill="#2B00D4"/>
</g>
<g clip-path="url(#clip0_73_497)">
<path d="M39.9163 38.2387L35.734 38.4141C35.4455 38.4262 35.2211 38.6702 35.2332 38.9588C35.2453 39.2474 35.4893 39.4717 35.7779 39.4596L39.9602 39.2842C40.2487 39.2721 40.4731 39.0281 40.461 38.7395C40.4489 38.4509 40.2049 38.2265 39.9163 38.2387ZM40.004 40.3298L35.8217 40.5052C35.5332 40.5173 35.3088 40.7613 35.3209 41.0499C35.333 41.3385 35.577 41.5629 35.8656 41.5508L40.0479 41.3754C40.3364 41.3633 40.5608 41.1192 40.5487 40.8307C40.5366 40.5421 40.2926 40.3177 40.004 40.3298ZM40.3531 42.41L35.648 42.6073L36.9245 43.3728C37.0915 43.5104 37.3314 43.5841 37.5771 43.5738L38.5129 43.5346C38.7575 43.5243 38.9914 43.4307 39.1463 43.2797L40.3531 42.41ZM43.6689 27.8177C43.8254 31.5493 40.5708 34.2143 40.6943 37.1586L38.6146 37.2458C38.53 35.3033 39.3757 33.6642 40.2006 32.0816C40.9382 30.6628 41.6372 29.3221 41.5777 27.9054C41.4641 25.1953 39.2428 24.0525 37.2269 24.1371C35.2142 24.2215 33.0995 25.5461 33.2132 28.2562C33.2726 29.673 34.0814 30.9504 34.9351 32.3024C35.8897 33.8105 36.8707 35.3729 36.947 37.3158L34.8684 37.403C34.7449 34.4586 31.2785 32.0756 31.122 28.3439C30.9588 24.4513 34.0035 22.1774 37.1392 22.0459C40.277 21.9143 43.5057 23.9271 43.6689 27.8177ZM47.8209 26.9198L47.881 28.3543L45.2274 28.4656C45.2385 28.2316 45.2475 27.9955 45.2372 27.7519C45.2268 27.5041 45.1991 27.2675 45.1704 27.032L47.8209 26.9208L47.8209 26.9198ZM36.4003 20.5351L36.3144 18.4889L37.7479 18.4288L37.834 20.4823C37.58 20.4699 37.3264 20.4669 37.0734 20.4776C36.8486 20.487 36.6243 20.5069 36.4003 20.5351ZM32.5434 22.0522L31.371 20.0694L32.6056 19.3389L33.7746 21.3145C33.3455 21.5221 32.9327 21.7699 32.5434 22.0522ZM43.6879 23.4021L45.6573 21.8594L46.5416 22.9901L44.4586 24.6203C44.24 24.1791 43.98 23.7742 43.6879 23.4021ZM40.436 21.0362L41.4365 18.9685L42.7279 19.5931L41.7246 21.6682C41.3141 21.4194 40.8821 21.2081 40.436 21.0362ZM30.0663 25.224L27.8542 23.775L28.6407 22.5741L30.7323 23.9454C30.4723 24.3397 30.2482 24.7649 30.0663 25.224ZM44.6708 31.1295L47.174 32.0237L46.6923 33.3752L44.1137 32.4548C44.3159 32.0305 44.5047 31.5879 44.6708 31.1295ZM31.0162 32.9119L28.5993 34.1236L27.9568 32.8402L30.3573 31.6376C30.5572 32.0828 30.7823 32.5049 31.0162 32.9119ZM29.6233 29.1201L26.9696 29.2314L26.9094 27.7969L29.56 27.6857C29.5511 27.9228 29.5433 28.1619 29.5537 28.4097C29.5639 28.6533 29.5926 28.8878 29.6233 29.1201Z" fill="white"/>
</g>
<defs>
<filter id="filter0_d_73_497" x="0.612427" y="5.61243" width="74.0123" height="74.0124" filterUnits="userSpaceOnUse" color-interpolation-filters="sRGB">
<feFlood flood-opacity="0" result="BackgroundImageFix"/>
<feColorMatrix in="SourceAlpha" type="matrix" values="0 0 0 0 0 0 0 0 0 0 0 0 0 0 0 0 0 0 127 0" result="hardAlpha"/>
<feOffset dy="12"/>
<feGaussianBlur stdDeviation="6"/>
<feComposite in2="hardAlpha" operator="out"/>
<feColorMatrix type="matrix" values="0 0 0 0 0.168627 0 0 0 0 0 0 0 0 0 0.831373 0 0 0 0.05 0"/>
<feBlend mode="normal" in2="BackgroundImageFix" result="effect1_dropShadow_73_497"/>
<feBlend mode="normal" in="SourceGraphic" in2="effect1_dropShadow_73_497" result="shape"/>
</filter>
<clipPath id="clip0_73_497">
<rect width="25.1158" height="25.1158" fill="white" transform="translate(24.4451 18.9868) rotate(-2.40168)"/>
</clipPath>
</defs>
</svg>
