<svg width="46" height="46" viewBox="0 0 46 46" fill="none" xmlns="http://www.w3.org/2000/svg">
<g clip-path="url(#clip0_230_4)">
<path d="M30.3063 9.23642C29.6738 8.58283 29.7083 7.5555 30.36 6.923L37.0089 0.473417C37.3347 0.159083 37.7507 0 38.1647 0C38.5844 0 39.0042 0.162917 39.3223 0.492583L30.3063 9.23642V9.23642ZM19.3718 25.6661C19.2376 25.7983 19.1667 25.9766 19.1667 26.1548C19.1667 26.5267 19.4695 26.8333 19.8452 26.8333C20.0157 26.8333 20.1863 26.7701 20.3186 26.6417L21.436 25.5549L20.4911 24.5793L19.3718 25.6661ZM28.8094 13.1081L24.9876 16.813C22.9329 18.8044 21.8845 20.7345 20.9166 23.4274L22.6052 25.1697C25.3249 24.2861 27.2857 23.299 29.3403 21.3057L33.1622 17.5988L28.8094 13.1081V13.1081ZM39.9567 1.68858L30.1108 11.2374L35.0673 16.3568L44.9152 6.81183C45.6377 6.11033 46 5.18075 46 4.24925C46 1.13658 42.228 -0.515583 39.9567 1.68858V1.68858ZM17.25 24.9167H9.58333V26.8333H17.25V24.9167ZM34.5 22.3292V25.9574C34.5 33.8292 23 30.6667 23 30.6667C23 30.6667 25.9095 42.1667 17.9438 42.1667H3.83333V3.83333H28.0389L31.9911 0H0V46H19.5289C25.5913 46 38.3333 32.1559 38.3333 27.5732V18.5898L34.5 22.3292Z" fill="white"/>
</g>
<defs>
<clipPath id="clip0_230_4">
<rect width="46" height="46" fill="white"/>
</clipPath>
</defs>
</svg>
