<svg width="12" height="12" viewBox="0 0 12 12" fill="none" xmlns="http://www.w3.org/2000/svg">
<path fill-rule="evenodd" clip-rule="evenodd" d="M9.63654 0.369983C10.1299 -0.123328 10.9297 -0.123328 11.423 0.369983C11.9163 0.863293 11.9163 1.66311 11.423 2.15642L7.78644 5.79295L11.63 9.63654C12.1233 10.1299 12.1233 10.9297 11.63 11.423C11.1367 11.9163 10.3369 11.9163 9.8436 11.423L6.00001 7.57939L2.15642 11.423C1.66311 11.9163 0.863293 11.9163 0.369983 11.423C-0.123327 10.9297 -0.123328 10.1299 0.369983 9.63654L4.21357 5.79295L0.577035 2.15642C0.083725 1.66311 0.083725 0.863293 0.577035 0.369983C1.07034 -0.123328 1.87016 -0.123328 2.36347 0.369983L6.00001 4.00652L9.63654 0.369983Z" fill="#EA0000"/>
</svg>
