<svg width="87" height="87" viewBox="0 0 87 87" fill="none" xmlns="http://www.w3.org/2000/svg">
<g filter="url(#filter0_d_262_160)">
<circle cx="43.0066" cy="30.7998" r="24.0066" fill="#3455AA"/>
<circle cx="43.0066" cy="30.7998" r="24.5066" stroke="white"/>
</g>
<path d="M43.0067 6.79321C29.748 6.79321 19 17.5412 19 30.7999C19 44.0586 29.748 54.8066 43.0067 54.8066C56.2654 54.8066 67.0134 44.0586 67.0134 30.7999C67.0134 17.5412 56.2654 6.79321 43.0067 6.79321ZM48.6933 23.3828H45.0848C44.6572 23.3828 44.182 23.9455 44.182 24.6932V27.2989H48.6958L48.0131 31.015H44.182V42.1706H39.9234V31.015H36.0598V27.2989H39.9234V25.1133C39.9234 21.9775 42.099 19.4292 45.0848 19.4292H48.6933V23.3828Z" fill="white"/>
<defs>
<filter id="filter0_d_262_160" x="0" y="0.793213" width="86.0137" height="86.0132" filterUnits="userSpaceOnUse" color-interpolation-filters="sRGB">
<feFlood flood-opacity="0" result="BackgroundImageFix"/>
<feColorMatrix in="SourceAlpha" type="matrix" values="0 0 0 0 0 0 0 0 0 0 0 0 0 0 0 0 0 0 127 0" result="hardAlpha"/>
<feOffset dy="13"/>
<feGaussianBlur stdDeviation="9"/>
<feColorMatrix type="matrix" values="0 0 0 0 0.0658854 0 0 0 0 0.0730469 0 0 0 0 0.1375 0 0 0 0.08 0"/>
<feBlend mode="normal" in2="BackgroundImageFix" result="effect1_dropShadow_262_160"/>
<feBlend mode="normal" in="SourceGraphic" in2="effect1_dropShadow_262_160" result="shape"/>
</filter>
</defs>
</svg>
