<svg width="49" height="40" viewBox="0 0 49 40" fill="none" xmlns="http://www.w3.org/2000/svg">
<path d="M47 20.8953L38.9003 25.5264M34.5124 20.9884L40.0138 26.9903C40.2372 27.294 40.385 27.6469 40.445 28.0196C40.5049 28.3923 40.4753 28.774 40.3585 29.1328C40.2347 29.528 40.0099 29.8837 39.7065 30.1644C39.403 30.4451 39.0315 30.6411 38.6291 30.7326C38.2266 30.8242 37.8073 30.8082 37.4129 30.6863C37.0186 30.5644 36.663 30.3408 36.3816 30.0378L28.1758 20.8953M24.5833 25.1937L31.4369 32.7659C31.8481 33.2339 32.377 33.5825 32.9682 33.7753C33.5594 33.9681 34.1913 33.9981 34.7981 33.8622C35.4048 33.7262 35.964 33.4293 36.4174 33.0024C36.8708 32.5755 37.2018 32.0342 37.3758 31.4351V31.302M21.2957 28.7602L26.9695 35.4142C27.2646 35.7907 27.6332 36.1029 28.0525 36.3317C28.4719 36.5605 28.9333 36.7011 29.4086 36.7449C30.1643 36.7548 30.9057 36.5386 31.5384 36.1239C32.1712 35.7091 32.6665 35.1146 32.9614 34.4161M27.5527 36.0929V36.1727C27.4996 36.6021 27.327 37.0078 27.0546 37.3433C26.7823 37.6787 26.4214 37.9303 26.0131 38.0692C25.6049 38.2082 25.1659 38.2288 24.7465 38.1287C24.3272 38.0286 23.9444 37.812 23.6421 37.5035L7.04496 19.7907L1 18.074M43.5798 17.8212C34.698 24.1158 28.0697 13.7356 28.0697 13.7356C24.928 9.19766 22.6744 13.882 22.6744 13.882C21.0305 18.1272 18.6974 17.7413 17.2392 17.0227C16.8927 16.8235 16.6231 16.513 16.474 16.1411C16.3249 15.7693 16.3049 15.3579 16.4173 14.9733L17.4778 11.1273C17.6978 10.3085 18.0912 9.547 18.6311 8.89475C19.171 8.24251 19.8448 7.71487 20.6063 7.34787L24.5833 5.48476C26.0296 4.91754 27.6269 4.87052 29.1037 5.35169L39.5499 8.01326L47 4.97906L43.5798 17.8212Z" stroke="white" stroke-width="2" stroke-miterlimit="10"/>
<path d="M9.73615 22.6652L6.77995 26.0853C6.44813 26.4746 6.28287 26.9796 6.32011 27.4905C6.35735 28.0014 6.59408 28.4769 6.9788 28.8135C7.17343 28.983 7.39983 29.1118 7.64471 29.1923C7.88959 29.2728 8.14803 29.3035 8.40486 29.2824C8.66169 29.2613 8.91174 29.189 9.14035 29.0696C9.36895 28.9502 9.57151 28.7862 9.73615 28.5872" stroke="white" stroke-width="2" stroke-miterlimit="10"/>
<path d="M13.8985 30.7564L12.374 32.5263C12.1864 32.749 11.9557 32.9311 11.696 33.0617C11.4362 33.1922 11.1527 33.2685 10.8628 33.2859C10.5728 33.3034 10.2823 33.2615 10.0088 33.163C9.73543 33.0644 9.48476 32.9112 9.27203 32.7126C8.81997 32.2909 8.54502 31.712 8.50315 31.0939C8.46128 30.4758 8.65565 29.865 9.04667 29.3857L11.857 26.1252" stroke="white" stroke-width="2" stroke-miterlimit="10"/>
<path d="M15.264 29.1993L12.9176 31.8609C12.5208 32.3255 12.3127 32.923 12.3348 33.5345C12.357 34.146 12.6076 34.7268 13.0369 35.1613C13.2404 35.373 13.4849 35.5407 13.7554 35.654C14.0259 35.7674 14.3167 35.8239 14.6098 35.8201C14.9028 35.8164 15.1921 35.7525 15.4596 35.6323C15.7271 35.5121 15.9674 35.3382 16.1654 35.1213L17.1994 33.9636" stroke="white" stroke-width="2" stroke-miterlimit="10"/>
<path d="M22.5283 6.2433L3.13403 1M21.7064 35.5206L19.6781 37.5966C19.4896 37.7989 19.2618 37.9602 19.0087 38.0704C18.7555 38.1807 18.4826 38.2375 18.2067 38.2375C17.9307 38.2375 17.6578 38.1807 17.4047 38.0704C17.1515 37.9602 16.9237 37.7989 16.7352 37.5966C16.3357 37.182 16.1059 36.6319 16.0911 36.0552C16.0764 35.4785 16.2779 34.9173 16.6556 34.4826L18.5911 32.3134L21.7064 35.5206Z" stroke="white" stroke-width="2" stroke-miterlimit="10"/>
<path d="M26.3067 14.9999C26.0659 14.5882 25.7293 14.2411 25.3257 13.9885C25.0395 14.2143 24.8007 14.4947 24.6231 14.8136C24.3246 15.7972 23.8266 16.7081 23.1605 17.489C22.4943 18.27 21.6743 18.9042 20.7522 19.3516C20.1783 19.5798 19.5666 19.6972 18.9493 19.6976C18.0228 19.6856 17.113 19.4482 16.298 19.0056C16.1161 18.9104 15.9431 18.7991 15.781 18.6729C15.7888 19.3833 15.9661 20.0815 16.298 20.709C16.6436 21.348 17.1524 21.8832 17.772 22.2598C18.3917 22.6363 19.1 22.8405 19.8242 22.8516C21.1362 22.7627 22.396 22.3012 23.4565 21.5208C25.2128 20.361 26.8278 18.9987 28.2686 17.4619C27.5458 16.699 26.8894 15.8753 26.3067 14.9999V14.9999Z" fill="white"/>
</svg>
