<svg width="48" height="48" viewBox="0 0 48 48" fill="none" xmlns="http://www.w3.org/2000/svg">
<g clip-path="url(#clip0_230_12)">
<path d="M47.896 0.084C47.07 0.028 46.262 0 45.468 0C28.268 0 18.474 13.114 14.912 23.666L24.366 33.12C35.222 29.232 48 19.8 48 2.784C48 1.904 47.966 1.004 47.896 0.084V0.084ZM25.342 28.44L19.576 22.674C22.018 16.956 28.958 4.784 43.974 4.034C43.472 15.584 35.892 23.898 25.342 28.44V28.44ZM36.284 31.516C35.19 32.262 34.104 32.936 33.028 33.538C32.654 35.32 31.704 37.222 30.326 38.842C30.322 37.69 30.002 36.53 29.44 35.366C28.45 35.816 27.508 36.202 26.612 36.542C27.932 39.96 26.588 42.484 24.782 44.85C27.374 44.654 30.094 43.386 32.238 41.24C34.548 38.93 36.172 35.594 36.284 31.516V31.516ZM12.644 18.578C11.486 18.018 10.328 17.702 9.18 17.696C10.786 16.334 12.668 15.39 14.432 15.006C15.06 13.902 15.766 12.812 16.51 11.74C12.432 11.85 9.094 13.474 6.782 15.786C4.64 17.928 3.37 20.652 3.174 23.242C5.542 21.434 8.066 20.09 11.484 21.414C11.83 20.472 12.216 19.526 12.644 18.578ZM28.12 19.904C27.338 19.122 27.338 17.858 28.12 17.076C28.902 16.294 30.166 16.294 30.948 17.076C31.73 17.86 31.73 19.124 30.948 19.906C30.166 20.688 28.9 20.686 28.12 19.904V19.904ZM38.018 10.002C36.458 8.442 33.924 8.442 32.362 10.002C30.8 11.564 30.8 14.1 32.362 15.66C33.924 17.222 36.458 17.222 38.02 15.66C39.58 14.1 39.58 11.566 38.018 10.002V10.002ZM34.202 13.824C33.656 13.278 33.656 12.388 34.202 11.844C34.744 11.298 35.636 11.298 36.182 11.844C36.726 12.388 36.724 13.278 36.182 13.824C35.634 14.368 34.746 14.368 34.202 13.824ZM3.938 39.156L2.126 37.344L12.542 26.968L14.354 28.78L3.938 39.156V39.156ZM13.896 42.87L12.084 41.058L19.356 33.73L21.168 35.542L13.896 42.87V42.87ZM1.812 48L0 46.188L12.896 33.312L14.708 35.124L1.812 48Z" fill="white"/>
</g>
<defs>
<clipPath id="clip0_230_12">
<rect width="48" height="48" fill="white"/>
</clipPath>
</defs>
</svg>
