<svg width="46" height="46" viewBox="0 0 46 46" fill="none" xmlns="http://www.w3.org/2000/svg">
<path d="M17.2451 26.8053C17.2643 28.9212 15.5585 30.6538 13.4386 30.6672C11.3207 30.6844 9.59565 28.9806 9.58415 26.8647C9.56498 24.7469 11.2689 23.022 13.383 23.0009C15.5029 22.9875 17.2336 24.6932 17.2451 26.8053ZM15.3706 19.1659C13.2546 19.1812 11.5219 17.4793 11.5085 15.3577C11.4912 13.2437 13.1894 11.5169 15.3112 11.5035C17.4234 11.4843 19.1599 13.1843 19.1676 15.3021C19.1906 17.4237 17.4809 19.1467 15.3706 19.1659ZM30.6677 11.4728C30.6753 13.5848 28.9791 15.3213 26.8631 15.3347C24.7432 15.3538 23.0144 13.65 23.0009 11.5341C22.9799 9.4144 24.6838 7.6895 26.8056 7.67225C28.9158 7.66075 30.6485 9.36074 30.6677 11.4728V11.4728ZM7.66746 41.8446C16.4593 42.5729 13.3102 33.2354 21.4446 33.1491L24.9675 36.0891C25.8453 46.7011 12.8636 49.0681 7.66746 41.8446ZM34.6256 28.2082C37.3607 23.917 45.8306 9.52556 45.8306 9.52556C46.5072 8.33155 45.0083 7.08578 43.9618 7.9674C43.9618 7.9674 31.3653 18.9186 27.6489 22.3895C24.7125 25.1341 24.6991 26.3875 23.7484 30.9125L26.9685 33.5957C31.2369 31.842 32.4655 31.6025 34.6256 28.2082V28.2082ZM10.4332 37.4192C6.43887 33.9311 3.87818 28.8349 3.83409 23.1466C3.74976 12.5863 12.279 3.92345 22.8476 3.8372C30.2038 3.79696 35.2658 7.48826 35.2984 10.4436L38.4858 7.65308C36.55 3.39256 30.4703 -0.0994164 22.815 0.00216149C10.1208 0.107572 -0.0989448 10.4781 0.000722847 23.1772C0.0448066 28.7583 2.07649 33.8525 5.41152 37.8102C7.24771 38.7532 9.48064 38.4408 10.4332 37.4192V37.4192ZM34.9611 33.7663C36.9908 37.5419 32.3716 40.2251 28.1664 41.4172C27.5837 43.1651 26.6273 44.7156 25.5329 45.8464C35.6051 44.7137 42.9 37.5975 37.5428 30.7266C36.6631 32.0394 35.8236 33.0207 34.9611 33.7663V33.7663Z" fill="white"/>
</svg>
