<svg width="47" height="47" viewBox="0 0 47 47" fill="none" xmlns="http://www.w3.org/2000/svg">
<g clip-path="url(#clip0_230_8)">
<path fill-rule="evenodd" clip-rule="evenodd" d="M27.0603 32.5984C24.5674 34.1592 21.7219 35.0581 18.8314 35.25L17.7798 31.3666C21.859 31.3294 25.8716 29.5043 28.531 26.0321C32.7121 20.5684 32.103 12.9309 27.405 8.13688L23.9348 12.6685L20.4686 0H33.4817L29.8059 4.99963C35.8278 10.7591 37.0145 19.9985 32.5926 27.0544L47.0001 41.4618L41.4619 47L27.0603 32.5984V32.5984ZM5.47164 30.3973C1.88594 26.98 0.011811 22.3172 6.09877e-05 17.625C-0.00973068 13.8885 1.15939 10.1403 3.60339 6.94817C6.80919 2.76125 11.5366 0.356417 16.4285 0.0372083L17.4939 3.91667C13.4068 3.94604 9.38244 5.85346 6.7191 9.33342C2.53023 14.807 3.15102 22.464 7.87256 27.26L11.3466 22.7225L14.8286 35.25H1.82719L5.47164 30.3973Z" fill="white"/>
</g>
<defs>
<clipPath id="clip0_230_8">
<rect width="47" height="47" fill="white"/>
</clipPath>
</defs>
</svg>
