<svg width="87" height="87" viewBox="0 0 87 87" fill="none" xmlns="http://www.w3.org/2000/svg">
<g filter="url(#filter0_d_262_166)">
<circle cx="43.033" cy="30.7998" r="24.0066" fill="#3455AA"/>
<circle cx="43.033" cy="30.7998" r="24.5066" stroke="white"/>
</g>
<path d="M50.5352 30.7999C50.5352 32.7896 49.7448 34.6978 48.3379 36.1047C46.9309 37.5116 45.0228 38.302 43.0331 38.302C41.0434 38.302 39.1352 37.5116 37.7283 36.1047C36.3214 34.6978 35.531 32.7896 35.531 30.7999C35.531 30.3723 35.576 29.9547 35.6535 29.5496H33.0303V39.5449C33.0303 40.2401 33.5929 40.8027 34.2881 40.8027H51.7805C52.1137 40.8021 52.433 40.6692 52.6683 40.4334C52.9037 40.1976 53.0359 39.878 53.0359 39.5449V29.5496H50.4126C50.4902 29.9547 50.5352 30.3723 50.5352 30.7999V30.7999ZM43.0331 35.8013C43.69 35.8012 44.3405 35.6716 44.9474 35.42C45.5543 35.1685 46.1057 34.7999 46.5701 34.3352C47.0345 33.8705 47.4029 33.319 47.6542 32.7119C47.9054 32.1049 48.0346 31.4544 48.0345 30.7974C48.0343 30.1405 47.9048 29.49 47.6532 28.8831C47.4016 28.2762 47.033 27.7248 46.5684 27.2604C46.1037 26.796 45.5521 26.4276 44.9451 26.1764C44.3381 25.9251 43.6875 25.7959 43.0306 25.796C41.7038 25.7964 40.4315 26.3237 39.4935 27.2622C38.5556 28.2006 38.0288 29.4731 38.0292 30.7999C38.0295 32.1267 38.5569 33.399 39.4953 34.337C40.4337 35.2749 41.7063 35.8017 43.0331 35.8013V35.8013ZM49.0348 25.5485H52.0331C52.2323 25.5485 52.4234 25.4695 52.5645 25.3289C52.7055 25.1883 52.7851 24.9974 52.7858 24.7982V21.7999C52.7858 21.6003 52.7065 21.4088 52.5653 21.2677C52.4242 21.1265 52.2327 21.0472 52.0331 21.0472H49.0348C48.8351 21.0472 48.6437 21.1265 48.5025 21.2677C48.3613 21.4088 48.282 21.6003 48.282 21.7999V24.7982C48.2845 25.2109 48.6221 25.5485 49.0348 25.5485V25.5485ZM43.0331 6.79321C36.6661 6.79321 30.5599 9.32248 26.0578 13.8246C21.5556 18.3267 19.0264 24.4329 19.0264 30.7999C19.0264 37.1669 21.5556 43.2731 26.0578 47.7752C30.5599 52.2774 36.6661 54.8066 43.0331 54.8066C46.1857 54.8066 49.3074 54.1857 52.2201 52.9792C55.1327 51.7728 57.7792 50.0045 60.0084 47.7752C62.2376 45.546 64.0059 42.8995 65.2124 39.9869C66.4188 37.0743 67.0398 33.9525 67.0398 30.7999C67.0398 27.6473 66.4188 24.5256 65.2124 21.613C64.0059 18.7003 62.2376 16.0538 60.0084 13.8246C57.7792 11.5954 55.1327 9.82707 52.2201 8.62062C49.3074 7.41416 46.1857 6.79321 43.0331 6.79321V6.79321ZM55.5366 40.5251C55.5366 42.0531 54.2862 43.3034 52.7583 43.3034H33.3079C31.7799 43.3034 30.5296 42.0531 30.5296 40.5251V21.0747C30.5296 19.5468 31.7799 18.2964 33.3079 18.2964H52.7583C54.2862 18.2964 55.5366 19.5468 55.5366 21.0747V40.5251V40.5251Z" fill="white"/>
<defs>
<filter id="filter0_d_262_166" x="0.0263672" y="0.793213" width="86.0137" height="86.0132" filterUnits="userSpaceOnUse" color-interpolation-filters="sRGB">
<feFlood flood-opacity="0" result="BackgroundImageFix"/>
<feColorMatrix in="SourceAlpha" type="matrix" values="0 0 0 0 0 0 0 0 0 0 0 0 0 0 0 0 0 0 127 0" result="hardAlpha"/>
<feOffset dy="13"/>
<feGaussianBlur stdDeviation="9"/>
<feColorMatrix type="matrix" values="0 0 0 0 0.0658854 0 0 0 0 0.0730469 0 0 0 0 0.1375 0 0 0 0.08 0"/>
<feBlend mode="normal" in2="BackgroundImageFix" result="effect1_dropShadow_262_166"/>
<feBlend mode="normal" in="SourceGraphic" in2="effect1_dropShadow_262_166" result="shape"/>
</filter>
</defs>
</svg>
