<svg width="63" height="51" viewBox="0 0 63 51" fill="none" xmlns="http://www.w3.org/2000/svg">
<path d="M62.2002 15.3677L57.164 14.0213L58.5081 8.97644M41.3747 18.0436C39.0388 15.7731 35.9915 14.3806 32.7486 14.1017C29.5057 13.8228 26.2661 14.6746 23.578 16.5131C20.8899 18.3515 18.9183 21.0637 17.9967 24.1907C17.0751 27.3178 17.2602 30.6677 18.5206 33.6738C19.781 36.6799 22.0393 39.1575 24.9135 40.6876C27.7877 42.2177 31.1013 42.7062 34.2938 42.0706C37.4862 41.435 40.3614 39.7142 42.433 37.1994C44.5046 34.6845 45.6454 31.5301 45.6623 28.2697C45.6642 27.2844 45.5615 26.3017 45.3561 25.3382L41.3747 18.0436ZM31.5745 28.2526L49.1673 18.5719L31.5745 28.2526ZM54.2035 19.9184L49.1673 18.5719L50.5114 13.527L54.2035 19.9184ZM58.2018 17.6345L53.1656 16.2881L54.5097 11.2603L58.2018 17.6345Z" stroke="white" stroke-width="1.5" stroke-miterlimit="10"/>
<path d="M32.4934 23.3781L31.3705 28.3037L36.4578 29.8035" stroke="white" stroke-width="1.5" stroke-miterlimit="10"/>
<path d="M37.1213 32.8373C36.3899 33.728 35.4559 34.43 34.3977 34.8843C33.3395 35.3386 32.1879 35.532 31.0396 35.4482C29.8913 35.3644 28.7798 35.0058 27.7985 34.4026C26.8172 33.7994 25.9947 32.9692 25.4 31.9817C24.8053 30.9941 24.4558 29.8781 24.3809 28.7272C24.3059 27.5764 24.5077 26.4243 24.9692 25.3677C25.4308 24.3111 26.1387 23.3809 27.0334 22.6551C27.9282 21.9293 28.9837 21.4291 30.1114 21.1966" stroke="white" stroke-width="1.5" stroke-miterlimit="10"/>
<path d="M59.2569 4.78371C59.2569 3.95199 58.927 3.15433 58.3399 2.56622C57.7528 1.9781 56.9565 1.64771 56.1262 1.64771H4.13063C3.30033 1.64771 2.50405 1.9781 1.91694 2.56622C1.32983 3.15433 1 3.95199 1 4.78371V45.0915C0.999991 46.2232 1.44759 47.3087 2.2448 48.1105C3.04202 48.9122 4.12389 49.3649 5.25357 49.3694H55.0033C56.133 49.3649 57.2148 48.9122 58.0121 48.1105C58.8093 47.3087 59.2569 46.2232 59.2569 45.0915V21.7931" stroke="white" stroke-width="1.5" stroke-miterlimit="10"/>
<path d="M1 14.1235H20.7706M8.86059 7.93676C8.8377 7.80652 8.76971 7.68852 8.66859 7.60349C8.56746 7.51847 8.43965 7.47187 8.30763 7.47187C8.1756 7.47187 8.0478 7.51847 7.94667 7.60349C7.84554 7.68852 7.77756 7.80652 7.75466 7.93676C7.74045 8.01764 7.74408 8.10065 7.76531 8.17997C7.78655 8.25928 7.82486 8.33298 7.87756 8.39588C7.93026 8.45878 7.99607 8.50935 8.07037 8.54405C8.14467 8.57875 8.22565 8.59674 8.30763 8.59674C8.38961 8.59674 8.47059 8.57875 8.54489 8.54405C8.61919 8.50935 8.685 8.45878 8.7377 8.39588C8.7904 8.33298 8.82871 8.25928 8.84994 8.17997C8.87117 8.10065 8.87481 8.01764 8.86059 7.93676ZM15.0708 7.93676C15.0675 7.82969 15.0327 7.72596 14.9709 7.63855C14.9091 7.55113 14.8229 7.48388 14.7232 7.4452C14.6234 7.40652 14.5145 7.39813 14.4101 7.42106C14.3056 7.44398 14.2102 7.49723 14.1357 7.57414C14.0613 7.65105 14.0111 7.74822 13.9914 7.85352C13.9718 7.95882 13.9835 8.0676 14.0252 8.16627C14.0668 8.26494 14.1366 8.34913 14.2257 8.40834C14.3148 8.46754 14.4194 8.49915 14.5263 8.4992C14.5993 8.49924 14.6715 8.48458 14.7387 8.45612C14.8059 8.42765 14.8667 8.38594 14.9175 8.33348C14.9683 8.28102 15.008 8.21886 15.0343 8.15071C15.0607 8.08256 15.0731 8.00981 15.0708 7.93676V7.93676ZM21.315 7.93676C21.3117 7.82969 21.2769 7.72596 21.2151 7.63855C21.1533 7.55113 21.0672 7.48388 20.9674 7.4452C20.8677 7.40652 20.7588 7.39813 20.6543 7.42106C20.5498 7.44398 20.4544 7.49723 20.38 7.57414C20.3055 7.65105 20.2553 7.74822 20.2357 7.85352C20.216 7.95882 20.2277 8.0676 20.2694 8.16627C20.3111 8.26494 20.3808 8.34913 20.4699 8.40834C20.5591 8.46754 20.6636 8.49915 20.7706 8.4992C20.8435 8.49924 20.9158 8.48458 20.9829 8.45612C21.0501 8.42765 21.1109 8.38594 21.1617 8.33348C21.2125 8.28102 21.2522 8.21886 21.2786 8.15071C21.3049 8.08256 21.3173 8.00981 21.315 7.93676V7.93676Z" stroke="white" stroke-width="0.75" stroke-miterlimit="10"/>
<path d="M5.2536 46.5743H19.4435L3.75635 30.8773V45.0916C3.75633 45.2877 3.79518 45.4819 3.87063 45.663C3.94608 45.844 4.05664 46.0082 4.1959 46.1461C4.33516 46.284 4.50035 46.3929 4.68191 46.4664C4.86347 46.5399 5.05779 46.5766 5.2536 46.5743Z" fill="white"/>
</svg>
