<svg width="141" height="88" viewBox="0 0 141 88" fill="none" xmlns="http://www.w3.org/2000/svg">
<path d="M0 35.7174V1.30175H22.8791V9.49365H8.91899V14.6802H19.8254V22.6782H8.91899V27.5255H23.8971V35.7174H0Z" fill="white"/>
<path d="M44.0882 36.2021C39.0148 36.2021 34.7492 34.6349 31.2914 31.5003C27.8337 28.3657 26.1049 24.0516 26.1049 18.5581C26.1049 13.4846 27.7045 9.25129 30.9037 5.85819C34.1352 2.4651 38.53 0.768555 44.0882 0.768555C46.6088 0.768555 49.1133 1.33407 51.6015 2.4651C54.0898 3.56382 56.2549 5.22805 58.0969 7.4578L51.3592 13.2261C49.2587 10.8347 46.835 9.63907 44.0882 9.63907C41.8262 9.63907 39.8711 10.4308 38.223 12.0142C36.6073 13.5977 35.7994 15.779 35.7994 18.5581C35.7994 21.014 36.5427 23.0983 38.0292 24.811C39.548 26.4914 41.5677 27.3316 44.0882 27.3316C45.4455 27.3316 46.7866 27.0085 48.1115 26.3622C49.4364 25.7159 50.519 24.8757 51.3592 23.8416L58.0969 29.6583C56.5134 31.5972 54.5099 33.1807 52.0863 34.4086C49.6626 35.6043 46.9966 36.2021 44.0882 36.2021Z" fill="white"/>
<path d="M78.121 36.2021C72.8214 36.2021 68.5073 34.5702 65.1788 31.3064C61.8827 28.0102 60.2346 23.7446 60.2346 18.5096C60.2346 13.2745 61.8988 9.00892 65.2273 5.71278C68.5557 2.41663 72.8537 0.768555 78.121 0.768555C83.3884 0.768555 87.6863 2.41663 91.0148 5.71278C94.3433 8.97661 96.0075 13.2422 96.0075 18.5096C96.0075 23.7446 94.3433 28.0102 91.0148 31.3064C87.6863 34.5702 83.3884 36.2021 78.121 36.2021ZM78.121 27.6225C80.5447 27.6225 82.5159 26.75 84.0347 25.0049C85.5858 23.2599 86.3614 21.0948 86.3614 18.5096C86.3614 15.9567 85.5858 13.8077 84.0347 12.0627C82.5159 10.2854 80.5447 9.3967 78.121 9.3967C75.7297 9.3967 73.7423 10.2692 72.1589 12.0142C70.6078 13.7593 69.8322 15.9244 69.8322 18.5096C69.8322 21.0948 70.6078 23.2599 72.1589 25.0049C73.7423 26.75 75.7297 27.6225 78.121 27.6225Z" fill="white"/>
<path d="M126.539 1.30175H135.895V35.7174H126.782V18.7519H126.636L120.868 29.5129H115.003L109.234 18.7035H109.089V35.7174H99.9762V1.30175H109.283L117.863 18.3157H118.057L126.539 1.30175Z" fill="white"/>
<path d="M76.6269 59.5573L62.182 78.801V78.8495H76.6269V87.0414H50.4031V79.8674L64.3148 60.963V60.8176H0.330658V52.6257H76.6269V59.5573Z" fill="white"/>
<path d="M102.338 87.0414L100.593 81.467H89.5411L87.7961 87.0414H78.15L90.656 52.6257H99.478L111.935 87.0414H102.338ZM91.9163 73.7599H98.2177L95.1154 63.8229H95.0185L91.9163 73.7599Z" fill="white"/>
<path d="M114.425 87.0414V52.6257H127.803C131.94 52.6257 135.058 53.7406 137.159 55.9704C139.259 58.1678 140.309 61.1246 140.309 64.8409C140.309 68.6541 139.146 71.5624 136.819 73.566C134.493 75.5372 131.294 76.5228 127.222 76.5228H123.344V87.0414H114.425ZM123.344 68.5733H125.768C127.286 68.5733 128.498 68.234 129.403 67.5553C130.308 66.8767 130.76 65.9073 130.76 64.647C130.76 63.5159 130.324 62.5788 129.452 61.8356C128.611 61.0923 127.383 60.7207 125.768 60.7207H123.344V68.5733Z" fill="white"/>
</svg>
