<svg width="150" height="115" viewBox="0 0 150 115" fill="none" xmlns="http://www.w3.org/2000/svg">
<path d="M0 62.7174V28.3018H22.8791V36.4937H8.91899V41.6802H19.8254V49.6782H8.91899V54.5255H23.8971V62.7174H0Z" fill="white"/>
<path d="M44.0882 63.2021C39.0148 63.2021 34.7492 61.6349 31.2914 58.5003C27.8337 55.3657 26.1049 51.0516 26.1049 45.5581C26.1049 40.4846 27.7045 36.2513 30.9037 32.8582C34.1352 29.4651 38.53 27.7686 44.0882 27.7686C46.6088 27.7686 49.1133 28.3341 51.6015 29.4651C54.0898 30.5638 56.2549 32.228 58.0969 34.4578L51.3592 40.2261C49.2587 37.8347 46.835 36.6391 44.0882 36.6391C41.8262 36.6391 39.8711 37.4308 38.223 39.0142C36.6073 40.5977 35.7994 42.779 35.7994 45.5581C35.7994 48.014 36.5427 50.0983 38.0292 51.811C39.548 53.4914 41.5677 54.3316 44.0882 54.3316C45.4455 54.3316 46.7866 54.0085 48.1115 53.3622C49.4364 52.7159 50.519 51.8757 51.3592 50.8416L58.0969 56.6583C56.5134 58.5972 54.5099 60.1807 52.0863 61.4086C49.6626 62.6043 46.9966 63.2021 44.0882 63.2021Z" fill="white"/>
<path d="M78.121 63.2021C72.8214 63.2021 68.5073 61.5702 65.1788 58.3064C61.8827 55.0102 60.2346 50.7446 60.2346 45.5096C60.2346 40.2745 61.8988 36.0089 65.2273 32.7128C68.5557 29.4166 72.8537 27.7686 78.121 27.7686C83.3884 27.7686 87.6863 29.4166 91.0148 32.7128C94.3433 35.9766 96.0075 40.2422 96.0075 45.5096C96.0075 50.7446 94.3433 55.0102 91.0148 58.3064C87.6863 61.5702 83.3884 63.2021 78.121 63.2021ZM78.121 54.6225C80.5447 54.6225 82.5159 53.75 84.0347 52.0049C85.5858 50.2599 86.3614 48.0948 86.3614 45.5096C86.3614 42.9567 85.5858 40.8077 84.0347 39.0627C82.5159 37.2854 80.5447 36.3967 78.121 36.3967C75.7297 36.3967 73.7423 37.2692 72.1589 39.0142C70.6078 40.7593 69.8322 42.9244 69.8322 45.5096C69.8322 48.0948 70.6078 50.2599 72.1589 52.0049C73.7423 53.75 75.7297 54.6225 78.121 54.6225Z" fill="white"/>
<path d="M126.539 28.3018H135.895V62.7174H126.782V45.7519H126.636L120.868 56.5129H115.003L109.234 45.7035H109.089V62.7174H99.9762V28.3018H109.283L117.863 45.3157H118.057L126.539 28.3018Z" fill="white"/>
<path d="M76.6269 86.5576L62.182 105.801V105.85H76.6269V114.042H50.4031V106.868L64.3148 87.9633V87.8179H0.330688V79.626H76.6269V86.5576Z" fill="#2B00D4"/>
<path d="M102.338 114.042L100.593 108.467H89.5411L87.7961 114.042H78.15L90.656 79.626H99.478L111.936 114.042H102.338ZM91.9163 100.76H98.2177L95.1155 90.8232H95.0185L91.9163 100.76Z" fill="#2B00D4"/>
<path d="M114.425 114.042V79.626H127.804C131.94 79.626 135.058 80.7409 137.159 82.9706C139.259 85.168 140.31 88.1249 140.31 91.8411C140.31 95.6543 139.146 98.5627 136.819 100.566C134.493 102.537 131.294 103.523 127.222 103.523H123.344V114.042H114.425ZM123.344 95.5735H125.768C127.286 95.5735 128.498 95.2342 129.403 94.5556C130.308 93.877 130.76 92.9075 130.76 91.6472C130.76 90.5162 130.324 89.5791 129.452 88.8358C128.611 88.0926 127.383 87.7209 125.768 87.7209H123.344V95.5735Z" fill="#2B00D4"/>
<path fill-rule="evenodd" clip-rule="evenodd" d="M149.116 15.4476L146.59 0L131.98 5.61814L136.532 8.22925L121.143 39.008L128.641 42.757L143.816 12.4072L149.116 15.4476Z" fill="white"/>
</svg>
