<svg width="51" height="31" viewBox="0 0 51 31" fill="none" xmlns="http://www.w3.org/2000/svg">
<path d="M27.758 21.3611L22.692 28.1101V28.1271H27.758V31.0001H18.561V28.4841L23.44 21.8541V21.8031H1V18.9301H27.758V21.3611Z" fill="white"/>
<path d="M36.7752 31.0001L36.1632 29.0451H32.2872L31.6752 31.0001H28.2922L32.6782 18.9301H35.7722L40.1412 31.0001H36.7752ZM33.1202 26.3421H35.3302L34.2422 22.8571H34.2082L33.1202 26.3421Z" fill="white"/>
<path d="M41.0143 31.0001V18.9301H45.7063C47.157 18.9301 48.2506 19.3211 48.9873 20.1031C49.724 20.8737 50.0923 21.9107 50.0923 23.2141C50.0923 24.5514 49.6843 25.5714 48.8683 26.2741C48.0523 26.9654 46.9303 27.3111 45.5023 27.3111H44.1423V31.0001H41.0143ZM44.1423 24.5231H44.9923C45.525 24.5231 45.95 24.4041 46.2673 24.1661C46.5847 23.9281 46.7433 23.5881 46.7433 23.1461C46.7433 22.7494 46.5903 22.4207 46.2843 22.1601C45.9897 21.8994 45.559 21.7691 44.9923 21.7691H44.1423V24.5231Z" fill="white"/>
<path d="M0.883789 13V0.930042H8.90779V3.80304H4.01179V5.62204H7.83679V8.42704H4.01179V10.127H9.26479V13H0.883789ZM16.3461 13.17C14.5668 13.17 13.0708 12.6204 11.8581 11.521C10.6454 10.4217 10.0391 8.90871 10.0391 6.98204C10.0391 5.20271 10.6001 3.71804 11.7221 2.52804C12.8554 1.33804 14.3968 0.743042 16.3461 0.743042C17.2301 0.743042 18.1084 0.941375 18.9811 1.33804C19.8538 1.72338 20.6131 2.30704 21.2591 3.08904L18.8961 5.11204C18.1594 4.27338 17.3094 3.85404 16.3461 3.85404C15.5528 3.85404 14.8671 4.13171 14.2891 4.68704C13.7224 5.24238 13.4391 6.00738 13.4391 6.98204C13.4391 7.84338 13.6998 8.57438 14.2211 9.17504C14.7538 9.76438 15.4621 10.059 16.3461 10.059C16.8221 10.059 17.2924 9.94571 17.7571 9.71904C18.2218 9.49238 18.6014 9.19771 18.8961 8.83504L21.2591 10.875C20.7038 11.555 20.0011 12.1104 19.1511 12.541C18.3011 12.9604 17.3661 13.17 16.3461 13.17ZM28.2818 13.17C26.4231 13.17 24.9101 12.5977 23.7428 11.453C22.5868 10.297 22.0088 8.80104 22.0088 6.96504C22.0088 5.12904 22.5925 3.63304 23.7598 2.47704C24.9271 1.32104 26.4345 0.743042 28.2818 0.743042C30.1291 0.743042 31.6365 1.32104 32.8038 2.47704C33.9711 3.62171 34.5548 5.11771 34.5548 6.96504C34.5548 8.80104 33.9711 10.297 32.8038 11.453C31.6365 12.5977 30.1291 13.17 28.2818 13.17ZM28.2818 10.161C29.1318 10.161 29.8231 9.85504 30.3558 9.24304C30.8998 8.63104 31.1718 7.87171 31.1718 6.96504C31.1718 6.06971 30.8998 5.31604 30.3558 4.70404C29.8231 4.08071 29.1318 3.76904 28.2818 3.76904C27.4431 3.76904 26.7461 4.07504 26.1908 4.68704C25.6468 5.29904 25.3748 6.05838 25.3748 6.96504C25.3748 7.87171 25.6468 8.63104 26.1908 9.24304C26.7461 9.85504 27.4431 10.161 28.2818 10.161ZM45.2627 0.930042H48.5437V13H45.3477V7.05004H45.2967L43.2737 10.824H41.2167L39.1937 7.03304H39.1427V13H35.9467V0.930042H39.2107L42.2197 6.89704H42.2877L45.2627 0.930042Z" fill="white"/>
</svg>
