<svg width="54" height="40" viewBox="0 0 54 40" fill="none" xmlns="http://www.w3.org/2000/svg">
<path d="M27.758 30.3611L22.692 37.1101V37.1271H27.758V40.0001H18.561V37.4841L23.44 30.8541V30.8031H1V27.9301H27.758V30.3611Z" fill="#0D062D"/>
<path d="M36.7752 40.0001L36.1632 38.0451H32.2872L31.6752 40.0001H28.2922L32.6782 27.9301H35.7722L40.1412 40.0001H36.7752ZM33.1202 35.3421H35.3302L34.2422 31.8571H34.2082L33.1202 35.3421Z" fill="#0D062D"/>
<path d="M41.0143 40.0001V27.9301H45.7063C47.157 27.9301 48.2506 28.3211 48.9873 29.1031C49.724 29.8737 50.0923 30.9107 50.0923 32.2141C50.0923 33.5514 49.6843 34.5714 48.8683 35.2741C48.0523 35.9654 46.9303 36.3111 45.5023 36.3111H44.1423V40.0001H41.0143ZM44.1423 33.5231H44.9923C45.525 33.5231 45.95 33.4041 46.2673 33.1661C46.5847 32.9281 46.7433 32.5881 46.7433 32.1461C46.7433 31.7494 46.5903 31.4207 46.2843 31.1601C45.9897 30.8994 45.559 30.7691 44.9923 30.7691H44.1423V33.5231Z" fill="#0D062D"/>
<path fill-rule="evenodd" clip-rule="evenodd" d="M52.295 0.00439453L53.1809 5.42205L51.3221 4.35581L48.535 9.93H48.5439V22H45.3479V16.05H45.2969L43.2739 19.824H41.2169L39.1939 16.033H39.1429V22H35.9469V9.93H39.2109L42.2199 15.897H42.2879L43.3866 13.6933L43.3704 13.6852L48.7677 2.89055L47.1712 1.97475L52.295 0.00439453ZM0.884033 9.93V22H9.26503V19.127H4.01203V17.427H7.83703V14.622H4.01203V12.803H8.90803V9.93H0.884033ZM11.8583 20.521C13.071 21.6203 14.567 22.17 16.3463 22.17C17.3663 22.17 18.3013 21.9603 19.1513 21.541C20.0013 21.1103 20.704 20.555 21.2593 19.875L18.8963 17.835C18.6017 18.1977 18.222 18.4923 17.7573 18.719C17.2927 18.9457 16.8223 19.059 16.3463 19.059C15.4623 19.059 14.754 18.7643 14.2213 18.175C13.7 17.5743 13.4393 16.8433 13.4393 15.982C13.4393 15.0073 13.7227 14.2423 14.2893 13.687C14.8673 13.1317 15.553 12.854 16.3463 12.854C17.3097 12.854 18.1597 13.2733 18.8963 14.112L21.2593 12.089C20.6133 11.307 19.854 10.7233 18.9813 10.338C18.1087 9.94133 17.2303 9.743 16.3463 9.743C14.397 9.743 12.8557 10.338 11.7223 11.528C10.6003 12.718 10.0393 14.2027 10.0393 15.982C10.0393 17.9087 10.6457 19.4217 11.8583 20.521ZM23.7431 20.453C24.9104 21.5977 26.4234 22.17 28.2821 22.17C30.1294 22.17 31.6367 21.5977 32.8041 20.453C33.9714 19.297 34.5551 17.801 34.5551 15.965C34.5551 14.1177 33.9714 12.6217 32.8041 11.477C31.6367 10.321 30.1294 9.743 28.2821 9.743C26.4347 9.743 24.9274 10.321 23.7601 11.477C22.5927 12.633 22.0091 14.129 22.0091 15.965C22.0091 17.801 22.5871 19.297 23.7431 20.453ZM30.3561 18.243C29.8234 18.855 29.1321 19.161 28.2821 19.161C27.4434 19.161 26.7464 18.855 26.1911 18.243C25.6471 17.631 25.3751 16.8717 25.3751 15.965C25.3751 15.0583 25.6471 14.299 26.1911 13.687C26.7464 13.075 27.4434 12.769 28.2821 12.769C29.1321 12.769 29.8234 13.0807 30.3561 13.704C30.9001 14.316 31.1721 15.0697 31.1721 15.965C31.1721 16.8717 30.9001 17.631 30.3561 18.243Z" fill="white"/>
</svg>
