<svg width="15" height="11" viewBox="0 0 15 11" fill="none" xmlns="http://www.w3.org/2000/svg">
<path fill-rule="evenodd" clip-rule="evenodd" d="M3 0.5C3 0.223858 3.22386 1.95703e-08 3.5 4.37114e-08L14.5 1.00536e-06C14.7761 1.0295e-06 15 0.223859 15 0.500001C15 0.776143 14.7761 1 14.5 1L3.5 1C3.22386 1 3 0.776142 3 0.5Z" fill="white"/>
<path fill-rule="evenodd" clip-rule="evenodd" d="M0 5.5C0 5.22386 0.223858 5 0.5 5H14.5C14.7761 5 15 5.22386 15 5.5C15 5.77614 14.7761 6 14.5 6H0.5C0.223858 6 0 5.77614 0 5.5Z" fill="white"/>
<path fill-rule="evenodd" clip-rule="evenodd" d="M6 10.5C6 10.2239 6.22386 10 6.5 10L14.5 10C14.7761 10 15 10.2239 15 10.5C15 10.7761 14.7761 11 14.5 11L6.5 11C6.22386 11 6 10.7761 6 10.5Z" fill="white"/>
</svg>
