<svg width="44" height="46" viewBox="0 0 44 46" fill="none" xmlns="http://www.w3.org/2000/svg">
<path d="M4.75008 42.1667V3.83333H39.2501V25.9574C39.2501 33.8292 27.7501 30.6667 27.7501 30.6667C27.7501 30.6667 30.6596 42.1667 22.6939 42.1667H4.75008ZM43.0834 27.5732V0H0.916748V46H24.279C30.3414 46 43.0834 32.1559 43.0834 27.5732ZM21.9292 16.9836C21.4672 18.3348 21.4653 18.0742 21.9292 19.4312L22.0001 19.8586C22.0001 20.2898 21.7873 20.7038 21.4097 20.9664C20.2061 21.8002 20.3652 21.5893 19.9128 22.9463C19.7231 23.5117 19.1749 23.8951 18.5558 23.8951H18.5539C17.0704 23.8893 17.3272 23.8108 16.1293 24.6522C15.8821 24.8285 15.5869 24.9167 15.2917 24.9167C14.9966 24.9167 14.7014 24.8285 14.4522 24.6522C13.2543 23.8108 13.5131 23.8912 12.0277 23.8951H12.0238C11.4067 23.8951 10.8585 23.5117 10.6707 22.9463C10.2183 21.5874 10.3717 21.7982 9.17375 20.9664C8.79616 20.7057 8.58341 20.2879 8.58341 19.8586L8.65433 19.4331C9.11816 18.0818 9.11816 18.3425 8.65433 16.9855L8.58341 16.5581C8.58341 16.1268 8.79616 15.7128 9.17566 15.4502C10.3736 14.6165 10.2183 14.8273 10.6726 13.4684C10.8604 12.9011 11.4086 12.5197 12.0257 12.5197H12.0296C13.5092 12.5254 13.2486 12.6097 14.4522 11.7626C14.7014 11.5882 14.9966 11.5 15.2917 11.5C15.5869 11.5 15.8821 11.5882 16.1312 11.7626C17.3292 12.604 17.0704 12.5235 18.5558 12.5197H18.5577C19.1768 12.5197 19.725 12.9011 19.9147 13.4684C20.3671 14.8254 20.208 14.6146 21.4117 15.4483C21.7873 15.7109 22.0001 16.1268 22.0001 16.5581L21.9292 16.9836V16.9836ZM18.6459 18.2083C18.6459 16.3568 17.1452 14.8542 15.2917 14.8542C13.4383 14.8542 11.9376 16.3568 11.9376 18.2083C11.9376 20.0598 13.4383 21.5625 15.2917 21.5625C17.1452 21.5625 18.6459 20.0598 18.6459 18.2083ZM12.7675 25.8098C12.0334 25.8098 11.4527 25.7389 10.9716 25.6047C10.6764 28.5449 9.66825 30.751 7.62508 32.8804C8.44541 32.982 9.49383 32.7903 10.3391 32.3437C10.6438 32.9532 10.9639 33.7142 11.0751 34.5C13.0013 32.2977 14.205 29.6566 14.6535 26.7662C13.7488 26.5918 13.4709 26.2909 12.7675 25.8098V25.8098ZM17.816 25.8098C17.1107 26.2947 16.8174 26.5957 15.9319 26.7662C16.3804 29.6566 17.5841 32.2977 19.5084 34.5C19.6196 33.7142 19.9397 32.9532 20.2444 32.3437C21.0897 32.7884 22.1381 32.982 22.9584 32.8804C20.9191 30.7548 19.9224 28.5372 19.6253 25.6028C19.1423 25.737 18.5597 25.8098 17.816 25.8098V25.8098ZM35.4167 11.5H25.8334V13.4167H35.4167V11.5ZM35.4167 15.3333H25.8334V17.25H35.4167V15.3333V15.3333ZM35.4167 19.1667H25.8334V21.0833H35.4167V19.1667ZM31.5834 23H25.8334V24.9167H31.5834V23Z" fill="white"/>
</svg>
