<svg width="42" height="50" viewBox="0 0 42 50" fill="none" xmlns="http://www.w3.org/2000/svg">
<g clip-path="url(#clip0_73_548)">
<path d="M18.5692 28.1914C18.5395 28.5647 18.5867 28.9403 18.708 29.2943C18.8292 29.6483 19.0219 29.9732 19.2737 30.2485C19.5256 30.5237 19.8312 30.7434 20.1714 30.8936C20.5115 31.0439 20.8789 31.1214 21.2502 31.1214C21.6215 31.1214 21.9889 31.0439 22.329 30.8936C22.6692 30.7434 22.9748 30.5237 23.2267 30.2485C23.4785 29.9732 23.6712 29.6483 23.7924 29.2943C23.9137 28.9403 23.9609 28.5647 23.9312 28.1914C23.9312 26.6957 22.8278 26.0001 21.2416 25.4783C19.6554 24.9566 18.5692 24.2609 18.5692 22.7653C18.5395 22.3919 18.5867 22.0164 18.708 21.6623C18.8292 21.3083 19.0219 20.9834 19.2737 20.7082C19.5256 20.4329 19.8312 20.2132 20.1714 20.063C20.5115 19.9127 20.8789 19.8352 21.2502 19.8352C21.6215 19.8352 21.9889 19.9127 22.329 20.063C22.6692 20.2132 22.9748 20.4329 23.2267 20.7082C23.4785 20.9834 23.6712 21.3083 23.7924 21.6623C23.9137 22.0164 23.9609 22.3919 23.9312 22.7653M21.2416 18.5392V20.0696M21.2416 30.9044V32.4348" stroke="white" stroke-width="0.75" stroke-miterlimit="10" stroke-linecap="round"/>
<path d="M21.2416 38.6957C28.4785 38.6957 34.3451 32.7781 34.3451 25.4783C34.3451 18.1786 28.4785 12.2609 21.2416 12.2609C14.0048 12.2609 8.13818 18.1786 8.13818 25.4783C8.13818 32.7781 14.0048 38.6957 21.2416 38.6957Z" stroke="white" stroke-width="0.75" stroke-linecap="round" stroke-linejoin="round"/>
<path d="M21.2414 36.5217C19.07 36.5183 16.9482 35.8657 15.1444 34.6463C13.3406 33.4269 11.9356 31.6955 11.107 29.6709C10.2783 27.6463 10.0633 25.4194 10.489 23.2716C10.9147 21.1238 11.9621 19.1514 13.4988 17.6038C15.0354 16.0563 16.9924 15.0029 19.1223 14.5768C21.2523 14.1508 23.4597 14.3712 25.4655 15.2102C27.4714 16.0492 29.1856 17.4691 30.3917 19.2905C31.5977 21.112 32.2414 23.2532 32.2414 25.4435C32.2368 28.3832 31.0759 31.201 29.0135 33.2781C26.9511 35.3551 24.1558 36.5217 21.2414 36.5217ZM21.2414 15.8435C19.3591 15.8435 17.519 16.4065 15.9539 17.4614C14.3888 18.5162 13.169 20.0156 12.4486 21.7697C11.7283 23.5239 11.5398 25.4541 11.907 27.3164C12.2743 29.1786 13.1807 30.8891 14.5117 32.2317C15.8427 33.5743 17.5385 34.4886 19.3847 34.859C21.2308 35.2294 23.1444 35.0393 24.8835 34.3127C26.6225 33.5861 28.1089 32.3557 29.1547 30.777C30.2005 29.1982 30.7586 27.3422 30.7586 25.4435C30.7495 22.9034 29.7428 20.4706 27.9589 18.6777C26.1751 16.8849 23.7596 15.8783 21.2414 15.8783V15.8435Z" fill="white"/>
<path d="M3.12074 17.4783C1.49748 20.3594 0.644043 23.6165 0.644043 26.9305C0.644043 30.2444 1.49748 33.5015 3.12074 36.3826C4.81151 39.2247 7.20532 41.575 10.0676 43.203C12.9299 44.831 16.1624 45.681 19.4483 45.6696M38.8794 32.5218C40.5026 29.6406 41.3561 26.3835 41.3561 23.0696C41.3561 19.7557 40.5026 16.4986 38.8794 13.6174C37.1886 10.7753 34.7948 8.42506 31.9325 6.79703C29.0702 5.169 25.8377 4.31904 22.5518 4.33045M22.3449 8.00002L18.6207 4.26089L22.1897 0.660889M19.6552 42L23.3794 45.7391L19.8104 49.3565L19.6552 42Z" stroke="white" stroke-width="1.5" stroke-miterlimit="10" stroke-linecap="round"/>
</g>
<defs>
<clipPath id="clip0_73_548">
<rect width="42" height="50" fill="white"/>
</clipPath>
</defs>
</svg>
