<svg width="46" height="42" viewBox="0 0 46 42" fill="none" xmlns="http://www.w3.org/2000/svg">
<path fill-rule="evenodd" clip-rule="evenodd" d="M29.9517 16.2595H8.55762V14.548H29.9517V16.2595Z" fill="white"/>
<path fill-rule="evenodd" clip-rule="evenodd" d="M23.9613 23.9613L8.55762 23.9613L8.55762 22.2498L23.9613 22.2498L23.9613 23.9613Z" fill="white"/>
<path d="M46.0001 32.4842L39.1414 25.6255C40.4313 23.8514 41.194 21.6694 41.194 19.3128C41.194 13.3825 36.3691 8.55762 30.4378 8.55762C24.5075 8.55762 19.6826 13.3825 19.6826 19.3128C19.6826 25.2441 24.5075 30.0679 30.4378 30.0679C32.6861 30.0679 34.7741 29.3748 36.5029 28.191L43.3981 35.0862L46.0001 32.4842V32.4842ZM22.8373 19.3128C22.8373 15.1212 26.2473 11.7112 30.4389 11.7112C34.6304 11.7112 38.0404 15.1212 38.0404 19.3128C38.0404 23.5043 34.6304 26.9143 30.4389 26.9143C26.2462 26.9143 22.8373 23.5043 22.8373 19.3128V19.3128Z" fill="white"/>
<path fill-rule="evenodd" clip-rule="evenodd" d="M3.42305 3.42305H34.2305V7.4354C35.466 7.83059 36.6183 8.41354 37.6535 9.15053V0H0V41.0766H37.6535V31.7622L36.2378 30.3465C35.5993 30.6833 34.9281 30.9663 34.2305 31.1896V37.6535H3.42305V3.42305ZM34.2305 29.3776C35.0383 29.0721 35.8002 28.6721 36.5028 28.191L37.6535 29.3417V21.7087C37.0614 23.4873 35.8287 24.9758 34.2305 25.8994V29.3776ZM34.2305 23.8157V14.8098C35.5126 15.8914 36.3288 17.5091 36.3288 19.3128C36.3288 21.1164 35.5126 22.7341 34.2305 23.8157ZM34.2305 12.7261V9.24786C35.5037 9.72912 36.6624 10.4454 37.6535 11.3434V16.9168C37.0614 15.1383 35.8287 13.6497 34.2305 12.7261Z" fill="white"/>
</svg>
