<svg width="51" height="51" viewBox="0 0 51 51" fill="none" xmlns="http://www.w3.org/2000/svg">
<g clip-path="url(#clip0_73_511)">
<path d="M10.7854 29.5889L12.2045 26.3604C23.9301 0.478985 50.3437 0.674115 50.3437 0.674115C50.3437 0.674115 50.5033 22.8835 30.529 35.6025C28.6439 36.8047 26.6758 37.8717 24.6397 38.7955L21.4111 40.2146" stroke="white" stroke-width="1.5" stroke-miterlimit="10" stroke-linecap="round"/>
<path d="M15.9652 19.7259C4.47027 19.7259 1.77393 32.64 1.77393 32.64H3.0334C7.07828 32.6449 10.9564 34.2523 13.8188 37.1103V37.1103C16.7028 39.961 18.3363 43.8406 18.36 47.8957V49.1551C18.36 49.1551 31.2741 46.5297 31.2741 35.1235" stroke="white" stroke-width="1.5" stroke-miterlimit="10" stroke-linecap="round"/>
<path d="M30.1742 26.1652C33.1231 26.1652 35.5137 23.7746 35.5137 20.8257C35.5137 17.8768 33.1231 15.4862 30.1742 15.4862C27.2253 15.4862 24.8347 17.8768 24.8347 20.8257C24.8347 23.7746 27.2253 26.1652 30.1742 26.1652Z" stroke="white" stroke-width="0.75" stroke-miterlimit="10" stroke-linecap="round"/>
<path d="M30.1565 23.5221C29.5424 23.5145 28.9499 23.2947 28.4794 22.9001C28.0089 22.5054 27.6894 21.9601 27.5751 21.3568C27.4608 20.7534 27.5587 20.1291 27.8522 19.5896C28.1457 19.0502 28.6168 18.6289 29.1855 18.3972C29.7542 18.1655 30.3856 18.1377 30.9725 18.3184C31.5594 18.4991 32.0657 18.8773 32.4056 19.3888C32.7455 19.9003 32.898 20.5135 32.8373 21.1246C32.7765 21.7357 32.5063 22.307 32.0723 22.7416C31.5597 23.2412 30.8724 23.5212 30.1565 23.5221Z" fill="white"/>
<path d="M11.6723 39.3631L7.68103 43.3544M48.1617 12.4174C45.7312 12.1278 43.4691 11.028 41.7402 9.2953C40.0003 7.55715 38.8999 5.28135 38.6181 2.83826L48.1617 12.4174ZM6.27964 38.2278C-0.709581 45.2525 0.798246 50.2017 0.798246 50.2017C0.798246 50.2017 5.74746 51.7096 12.7722 44.7203L6.27964 38.2278Z" stroke="white" stroke-width="1.5" stroke-miterlimit="10" stroke-linecap="round"/>
</g>
<defs>
<clipPath id="clip0_73_511">
<rect width="51" height="51" fill="white"/>
</clipPath>
</defs>
</svg>
