<svg width="48" height="50" viewBox="0 0 48 50" fill="none" xmlns="http://www.w3.org/2000/svg">
<g clip-path="url(#clip0_73_519)">
<path d="M23.9913 40.2435C32.4362 40.2435 39.2822 33.4148 39.2822 24.9913C39.2822 16.5677 32.4362 9.7391 23.9913 9.7391C15.5463 9.7391 8.70032 16.5677 8.70032 24.9913C8.70032 33.4148 15.5463 40.2435 23.9913 40.2435Z" stroke="white" stroke-width="1.5" stroke-miterlimit="10"/>
<path d="M23.9912 37.7913C21.4525 37.7913 18.9707 37.0402 16.86 35.6329C14.7494 34.2257 13.1046 32.2255 12.1338 29.8856C11.1631 27.5457 10.91 24.9712 11.4065 22.4877C11.9031 20.0043 13.127 17.7236 14.9234 15.9342C16.7198 14.1448 19.008 12.9271 21.4984 12.4351C23.9888 11.9432 26.5696 12.1992 28.9141 13.1706C31.2587 14.1421 33.2616 15.7854 34.6696 17.8927C36.0775 19.9999 36.8272 22.4764 36.8238 25.0087C36.8192 28.4005 35.4651 31.6517 33.0591 34.0484C30.653 36.4451 27.3916 37.7913 23.9912 37.7913ZM23.9912 13.913C21.7808 13.913 19.62 14.5669 17.7821 15.7918C15.9442 17.0167 14.5117 18.7578 13.6658 20.7948C12.8199 22.8318 12.5986 25.0732 13.0298 27.2357C13.461 29.3982 14.5255 31.3845 16.0885 32.9436C17.6515 34.5026 19.6429 35.5644 21.8109 35.9945C23.9788 36.4246 26.226 36.2039 28.2682 35.3601C30.3103 34.5164 32.0558 33.0875 33.2839 31.2543C34.5119 29.421 35.1674 27.2657 35.1674 25.0609C35.1674 23.5969 34.8783 22.1473 34.3167 20.7948C33.755 19.4423 32.9318 18.2133 31.894 17.1782C30.8562 16.143 29.6241 15.3219 28.2682 14.7616C26.9122 14.2014 25.4589 13.913 23.9912 13.913Z" fill="white"/>
<path d="M46.2215 17.3913L47.1805 16.4L43.0831 9.28696L41.7406 9.61739C38.9954 10.2738 36.102 9.84365 33.6679 8.41739C31.1902 7.03802 29.3508 4.74768 28.5419 2.03478L28.0886 0.66087H19.9113L19.5277 1.98261C18.7197 4.69079 16.8878 6.97954 14.4191 8.36522V8.36522C11.9839 9.80547 9.08182 10.2422 6.32904 9.58261L4.96907 9.25217L0.819417 16.3652L1.7435 17.3913C3.69032 19.4485 4.7594 22.1799 4.72497 25.0087V25.0957C4.74676 27.9014 3.6782 30.6066 1.7435 32.6435L0.784546 33.6348L4.86446 40.713L6.20699 40.3826C8.95212 39.7244 11.8462 40.1546 14.2796 41.5826V41.5826C16.7525 42.9677 18.5902 45.2558 19.4057 47.9652L19.7893 49.3044H27.9665L28.3501 47.9652C29.1581 45.257 30.99 42.9683 33.4587 41.5826V41.5826C35.8939 40.1424 38.796 39.7056 41.5488 40.3652L42.8913 40.6957L46.9887 33.6174L46.0297 32.6261C44.0766 30.5729 43.0064 27.8388 43.0483 25.0087V24.9217C43.0824 22.0952 44.2209 19.3934 46.2215 17.3913V17.3913Z" stroke="white" stroke-width="1.5" stroke-miterlimit="10" stroke-linecap="round"/>
<path d="M15.6919 26.087C15.6919 26.5482 15.8756 26.9906 16.2026 27.3167C16.5295 27.6429 16.973 27.8261 17.4354 27.8261C17.8979 27.8261 18.3413 27.6429 18.6683 27.3167C18.9953 26.9906 19.179 26.5482 19.179 26.087C19.179 24.6435 17.4354 24.3479 17.4354 24.3479C17.4354 24.3479 15.6919 23.8957 15.6919 22.6087C15.6919 22.1475 15.8756 21.7051 16.2026 21.379C16.5295 21.0528 16.973 20.8696 17.4354 20.8696C17.8979 20.8696 18.3413 21.0528 18.6683 21.379C18.9953 21.7051 19.179 22.1475 19.179 22.6087M22.5266 24.2957H25.386M25.386 20.7131H22.5266V27.8609H25.386M30.2506 27.8261C29.7003 27.8261 29.1725 27.6081 28.7834 27.22C28.3943 26.8318 28.1757 26.3054 28.1757 25.7566V22.7826C28.1757 22.2338 28.3943 21.7074 28.7834 21.3192C29.1725 20.9311 29.7003 20.7131 30.2506 20.7131C30.8008 20.7131 31.3286 20.9311 31.7177 21.3192C32.1068 21.7074 32.3254 22.2338 32.3254 22.7826V25.7913C32.3162 26.3342 32.0936 26.8517 31.7055 27.2323C31.3174 27.6129 30.7948 27.8262 30.2506 27.8261Z" stroke="white" stroke-width="1.5" stroke-linecap="round" stroke-linejoin="round"/>
</g>
<defs>
<clipPath id="clip0_73_519">
<rect width="48" height="50" fill="white"/>
</clipPath>
</defs>
</svg>
