<svg width="39" height="49" viewBox="0 0 39 49" fill="none" xmlns="http://www.w3.org/2000/svg">
<g clip-path="url(#clip0_73_540)">
<path d="M15.1685 20.0431V32.8428M18.0673 11.2657H0.640381V43.8699C0.640347 45.0574 1.1045 46.1967 1.93165 47.0395C2.75881 47.8824 3.8819 48.3604 5.05611 48.3694H29.6966V21.0998L18.0673 11.2657Z" stroke="white" stroke-width="1.5" stroke-miterlimit="10"/>
<path d="M15.1684 37.8536C15.3545 37.8536 15.5055 37.7009 15.5055 37.5127C15.5055 37.3244 15.3545 37.1718 15.1684 37.1718C14.9822 37.1718 14.8313 37.3244 14.8313 37.5127C14.8313 37.7009 14.9822 37.8536 15.1684 37.8536Z" stroke="white" stroke-width="1.5" stroke-miterlimit="10"/>
<path d="M29.3425 18.9012C34.3317 18.9012 38.3763 14.8112 38.3763 9.76592C38.3763 4.72063 34.3317 0.630615 29.3425 0.630615C24.3534 0.630615 20.3088 4.72063 20.3088 9.76592C20.3088 14.8112 24.3534 18.9012 29.3425 18.9012Z" stroke="white" stroke-width="1.5" stroke-miterlimit="10"/>
<path d="M33.0338 6.03345L25.6517 13.4985M25.6517 6.03345L33.0338 13.4985L25.6517 6.03345Z" stroke="white" stroke-width="1.5" stroke-miterlimit="10"/>
<path d="M5.05613 45.864H12.4382L3.10107 36.4219V43.8699C3.10106 44.3959 3.30649 44.9005 3.67266 45.274C4.03883 45.6475 4.53607 45.8595 5.05613 45.864Z" fill="white"/>
</g>
<defs>
<clipPath id="clip0_73_540">
<rect width="39" height="49" fill="white"/>
</clipPath>
</defs>
</svg>
