<svg width="49" height="42" viewBox="0 0 49 42" fill="none" xmlns="http://www.w3.org/2000/svg">
<path fill-rule="evenodd" clip-rule="evenodd" d="M38.9375 5.25C36.5169 7.48769 34.1482 11.3001 33.0296 12.9781C32.7933 13.3325 32.3998 13.5502 31.974 13.562C31.5482 13.5738 31.1431 13.3783 30.8875 13.0375L29.3667 10.6762C28.1908 8.85048 26.496 7.41794 24.5 6.5625V6.5625V6.5625C27.158 6.0309 29.8787 7.12227 31.4325 9.34336L31.9091 10.0246C33.1537 8.36503 34.8654 6.35707 36.8216 4.54873C39.3757 2.18771 44.8992 0.403225 48.125 0C45.7508 0.296775 41.4001 2.97351 38.9375 5.25Z" fill="white"/>
<path fill-rule="evenodd" clip-rule="evenodd" d="M34.7123 13.6066C36.1017 16.0482 36.8958 18.8706 36.8958 21.875C36.8958 31.1224 29.3724 38.6458 20.125 38.6458C10.8776 38.6458 3.35417 31.1224 3.35417 21.875C3.35417 12.6276 10.8776 5.10417 20.125 5.10417C21.571 5.10417 22.9748 5.28811 24.3143 5.63383L24.1568 4.84645C27.0042 4.27698 29.9088 5.18994 31.9131 7.20118C32.1843 6.87585 32.4677 6.54516 32.7621 6.21192C29.3076 3.42122 24.9113 1.75 20.125 1.75C9.01097 1.75 0 10.761 0 21.875C0 32.989 9.01097 42 20.125 42C31.239 42 40.25 32.989 40.25 21.875C40.25 17.6778 38.9649 13.7806 36.7667 10.5554C36.0855 11.5171 35.4715 12.4516 34.9695 13.2157L34.9693 13.2159C34.88 13.3518 34.7943 13.4823 34.7123 13.6066ZM33.6731 12.0004C34.217 11.1722 34.9004 10.1419 35.6656 9.08781C35.1687 8.4846 34.6374 7.91081 34.0746 7.36946C33.7112 7.7807 33.3651 8.18821 33.0386 8.58617C32.642 9.06954 32.2743 9.53882 31.9399 9.98357C32.5689 10.6086 33.1487 11.283 33.6731 12.0004ZM31.7515 9.79935L31.4325 9.34333C31.2419 9.07087 31.0338 8.81542 30.8103 8.57787C30.1193 7.84323 29.282 7.27989 28.3656 6.91476C27.8719 6.71804 27.3552 6.57886 26.8261 6.50143C28.662 7.30476 30.3274 8.42765 31.7515 9.79935ZM27.9167 26.9062H30.1875V16.8438H26.8451L24.9013 23.3894L22.9391 16.8438H19.6051V26.9062H21.8759V21.3484L23.6519 26.9062H26.134L27.9167 21.3467V26.9062ZM10.0625 18.9988V16.8438H18.4664V18.9988H15.5113V26.9062H13.0947V18.9988H10.0625Z" fill="white"/>
</svg>
