<svg width="87" height="87" viewBox="0 0 87 87" fill="none" xmlns="http://www.w3.org/2000/svg">
<g filter="url(#filter0_d_262_163)">
<circle cx="43.0203" cy="30.7998" r="24.0066" fill="#3455AA"/>
<circle cx="43.0203" cy="30.7998" r="24.5066" stroke="white"/>
</g>
<path d="M43.0204 6.79321C29.7617 6.79321 19.0137 17.5412 19.0137 30.7999C19.0137 44.0586 29.7617 54.8066 43.0204 54.8066C56.2791 54.8066 67.0271 44.0586 67.0271 30.7999C67.0271 17.5412 56.2791 6.79321 43.0204 6.79321ZM52.7856 26.4587C52.7956 26.6638 52.7981 26.8688 52.7981 27.0689C52.7981 33.3206 48.0443 40.5251 39.3469 40.5251C36.7769 40.5294 34.2603 39.7913 32.0998 38.3995C32.4674 38.4446 32.845 38.4621 33.2276 38.4621C35.4433 38.4621 37.4813 37.7094 39.0993 36.439C38.1133 36.4196 37.1579 36.0931 36.3663 35.505C35.5747 34.9169 34.9863 34.0965 34.6831 33.1581C35.3911 33.2927 36.1206 33.2645 36.8161 33.0756C35.746 32.8592 34.7836 32.2793 34.0922 31.4343C33.4007 30.5892 33.0229 29.5311 33.0226 28.4393V28.3817C33.6603 28.7343 34.3905 28.9494 35.1657 28.9744C34.1624 28.3065 33.4522 27.2806 33.1802 26.1064C32.9083 24.9323 33.0952 23.6986 33.7028 22.6576C34.8905 24.1181 36.3717 25.3128 38.0504 26.1644C39.7292 27.0161 41.568 27.5057 43.448 27.6015C43.209 26.587 43.3119 25.522 43.7406 24.5719C44.1694 23.6219 44.9 22.8402 45.8188 22.3482C46.7377 21.8563 47.7934 21.6817 48.8217 21.8516C49.8501 22.0215 50.7935 22.5264 51.5053 23.2878C52.5635 23.0785 53.5783 22.6903 54.5061 22.14C54.1534 23.2356 53.415 24.166 52.428 24.7582C53.3654 24.6453 54.2807 24.3933 55.1438 24.0105C54.5098 24.9605 53.7112 25.7896 52.7856 26.4587V26.4587Z" fill="white"/>
<defs>
<filter id="filter0_d_262_163" x="0.0136719" y="0.793213" width="86.0137" height="86.0132" filterUnits="userSpaceOnUse" color-interpolation-filters="sRGB">
<feFlood flood-opacity="0" result="BackgroundImageFix"/>
<feColorMatrix in="SourceAlpha" type="matrix" values="0 0 0 0 0 0 0 0 0 0 0 0 0 0 0 0 0 0 127 0" result="hardAlpha"/>
<feOffset dy="13"/>
<feGaussianBlur stdDeviation="9"/>
<feColorMatrix type="matrix" values="0 0 0 0 0.0658854 0 0 0 0 0.0730469 0 0 0 0 0.1375 0 0 0 0.08 0"/>
<feBlend mode="normal" in2="BackgroundImageFix" result="effect1_dropShadow_262_163"/>
<feBlend mode="normal" in="SourceGraphic" in2="effect1_dropShadow_262_163" result="shape"/>
</filter>
</defs>
</svg>
