<svg width="106" height="123" viewBox="0 0 106 123" fill="none" xmlns="http://www.w3.org/2000/svg">
<path d="M92.6214 51.6725L93.0184 51.0362L92.6214 51.6725ZM75.9039 34.4453L75.2819 34.8643L75.9039 34.4453ZM0.490209 7.21684C0.186383 6.93531 0.168314 6.46078 0.449849 6.15695L5.03775 1.20582C5.31928 0.901991 5.79381 0.883919 6.09764 1.16546C6.40146 1.447 6.41953 1.92153 6.138 2.22535L2.05987 6.62635L6.46087 10.7045C6.7647 10.986 6.78277 11.4606 6.50123 11.7644C6.2197 12.0682 5.74517 12.0863 5.44134 11.8047L0.490209 7.21684ZM56.876 121.454C79.3739 114.09 94.2059 100.423 100.388 86.7975C103.478 79.9864 104.398 73.2104 103.078 67.2312C101.76 61.2652 98.2011 56.0382 92.2243 52.3088L93.0184 51.0362C99.3265 54.9723 103.135 60.536 104.542 66.9078C105.947 73.2663 104.949 80.375 101.754 87.4173C95.3647 101.499 80.1557 115.413 57.3426 122.879L56.876 121.454ZM92.2243 52.3088C77.5342 43.1425 62.587 47.9383 53.6729 56.2598C49.2084 60.4274 46.3298 65.4166 45.7293 69.8788C45.4303 72.1008 45.6973 74.1722 46.5873 75.9597C47.4747 77.7423 49.0078 79.2958 51.3341 80.4462L50.6691 81.7908C48.0845 80.5126 46.2946 78.7376 45.2445 76.6282C44.1968 74.5237 43.9115 72.1397 44.2427 69.6788C44.9026 64.7754 48.0147 59.4898 52.6493 55.1633C61.9333 46.4965 77.6178 41.4266 93.0184 51.0362L92.2243 52.3088ZM51.3341 80.4462C60.7497 85.1027 71.6218 81.1126 77.7438 72.1996C83.8362 63.3297 85.1853 49.5684 75.2819 34.8643L76.526 34.0263C86.7369 49.1871 85.4567 63.6198 78.9802 73.0489C72.5334 82.435 60.8971 86.849 50.6691 81.7908L51.3341 80.4462ZM75.2819 34.8643C67.382 23.1349 53.4262 16.0836 39.0639 12.0579C24.7182 8.03691 10.0943 7.07096 1.02851 7.41618L0.971436 5.91726C10.1689 5.56703 24.9512 6.54441 39.4687 10.6136C53.9697 14.6781 68.3343 21.8637 76.526 34.0263L75.2819 34.8643Z" fill="url(#paint0_linear_73_448)"/>
<defs>
<linearGradient id="paint0_linear_73_448" x1="145.534" y1="152.483" x2="-2.16427" y2="-14.5992" gradientUnits="userSpaceOnUse">
<stop stop-color="#2B478F"/>
<stop offset="1" stop-color="#0F0928"/>
</linearGradient>
</defs>
</svg>
