<svg width="57" height="47" viewBox="0 0 57 47" fill="none" xmlns="http://www.w3.org/2000/svg">
<g clip-path="url(#clip0_73_555)">
<path d="M56.6905 25.0373L46.7371 30.7283M41.345 25.1517L48.1055 32.5272C48.38 32.9004 48.5617 33.3341 48.6353 33.7921C48.709 34.2501 48.6726 34.7191 48.5291 35.1601C48.377 35.6457 48.1007 36.0828 47.7278 36.4278C47.3549 36.7727 46.8984 37.0135 46.4039 37.126C45.9093 37.2385 45.394 37.2189 44.9094 37.0691C44.4248 36.9192 43.9878 36.6445 43.642 36.2721L33.5582 25.0373M29.1435 30.3194L37.5656 39.6246C38.071 40.1997 38.7209 40.628 39.4474 40.865C40.1739 41.1019 40.9505 41.1388 41.696 40.9718C42.4416 40.8047 43.1288 40.4398 43.686 39.9152C44.2432 39.3906 44.6499 38.7255 44.8637 37.9892V37.8257M25.1035 34.7022L32.0758 42.8789C32.4385 43.3416 32.8914 43.7253 33.4068 44.0065C33.9221 44.2876 34.4891 44.4604 35.0732 44.5143C36.0018 44.5265 36.9129 44.2608 37.6904 43.7511C38.468 43.2414 39.0767 42.5108 39.439 41.6524M32.7926 43.713V43.8111C32.7273 44.3388 32.5151 44.8373 32.1805 45.2495C31.8459 45.6618 31.4023 45.9709 30.9006 46.1417C30.3989 46.3124 29.8595 46.3377 29.3442 46.2147C28.8288 46.0918 28.3584 45.8255 27.9869 45.4464L7.59137 23.6799L0.162964 21.5703M52.4876 21.2596C41.5731 28.9948 33.4279 16.2391 33.4279 16.2391C29.5671 10.6625 26.7977 16.419 26.7977 16.419C24.7777 21.6357 21.9106 21.1615 20.1187 20.2784C19.6929 20.0336 19.3616 19.652 19.1784 19.1951C18.9951 18.7382 18.9706 18.2326 19.1087 17.7599L20.4119 13.0338C20.6822 12.0276 21.1657 11.0918 21.8291 10.2903C22.4926 9.48877 23.3205 8.84038 24.2564 8.38938L29.1435 6.09989C30.9208 5.40285 32.8836 5.34507 34.6985 5.93635L47.5354 9.20706L56.6905 5.47845L52.4876 21.2596Z" stroke="white" stroke-width="1.5" stroke-miterlimit="10"/>
<path d="M10.8984 27.2123L7.26564 31.4151C6.85789 31.8934 6.6548 32.514 6.70056 33.1419C6.74632 33.7697 7.03724 34.354 7.51 34.7676C7.74918 34.9759 8.02739 35.1342 8.32832 35.2332C8.62924 35.3321 8.94682 35.3698 9.26243 35.3439C9.57804 35.318 9.88532 35.2291 10.1662 35.0824C10.4472 34.9357 10.6961 34.7341 10.8984 34.4896" stroke="white" stroke-width="1.5" stroke-miterlimit="10"/>
<path d="M16.0135 37.1552L14.1401 39.3302C13.9096 39.6038 13.6261 39.8276 13.3069 39.9881C12.9876 40.1485 12.6393 40.2423 12.283 40.2637C11.9266 40.2851 11.5696 40.2337 11.2336 40.1126C10.8976 39.9915 10.5896 39.8032 10.3282 39.5592C9.77267 39.0409 9.43479 38.3296 9.38334 37.57C9.33189 36.8105 9.57073 36.0598 10.0512 35.4708L13.5048 31.4642" stroke="white" stroke-width="1.5" stroke-miterlimit="10"/>
<path d="M17.6914 35.2418L14.808 38.5125C14.3204 39.0834 14.0648 39.8176 14.0919 40.5691C14.1191 41.3206 14.4271 42.0343 14.9546 42.5682C15.2047 42.8284 15.5052 43.0345 15.8376 43.1738C16.17 43.313 16.5273 43.3825 16.8875 43.3779C17.2476 43.3733 17.603 43.2947 17.9318 43.147C18.2606 42.9993 18.5558 42.7857 18.7992 42.5191L20.0698 41.0964" stroke="white" stroke-width="1.5" stroke-miterlimit="10"/>
<path d="M26.6185 7.03203L2.78564 0.588745M25.6085 43.0098L23.116 45.5609C22.8844 45.8095 22.6044 46.0076 22.2933 46.1431C21.9823 46.2786 21.6469 46.3485 21.3078 46.3485C20.9687 46.3485 20.6333 46.2786 20.3223 46.1431C20.0112 46.0076 19.7312 45.8095 19.4996 45.5609C19.0087 45.0513 18.7262 44.3753 18.7081 43.6667C18.69 42.958 18.9376 42.2683 19.4018 41.7342L21.7802 39.0686L25.6085 43.0098Z" stroke="white" stroke-width="1.5" stroke-miterlimit="10"/>
<path d="M31.2612 17.7927C30.9653 17.2867 30.5517 16.8602 30.0557 16.5498C29.7041 16.8273 29.4107 17.1719 29.1923 17.5637C28.8256 18.7724 28.2136 19.8917 27.395 20.8515C26.5763 21.8112 25.5687 22.5904 24.4355 23.1403C23.7303 23.4207 22.9786 23.5649 22.2201 23.5655C21.0815 23.5508 19.9635 23.259 18.962 22.7151C18.7385 22.5981 18.5258 22.4613 18.3267 22.3062C18.3362 23.1793 18.5541 24.0373 18.962 24.8083C19.3867 25.5936 20.0119 26.2513 20.7734 26.714C21.5348 27.1767 22.4052 27.4277 23.2952 27.4412C24.9075 27.3321 26.4555 26.7649 27.7588 25.8059C29.917 24.3806 31.9017 22.7066 33.6722 20.8181C32.7839 19.8806 31.9773 18.8684 31.2612 17.7927Z" fill="white"/>
</g>
<defs>
<clipPath id="clip0_73_555">
<rect width="57" height="47" fill="white"/>
</clipPath>
</defs>
</svg>
