<svg width="60" height="50" viewBox="0 0 60 50" fill="none" xmlns="http://www.w3.org/2000/svg">
<path d="M1.35277 8.86766H44.8219V18.0436C44.8941 18.0526 44.9662 18.0526 45.0384 18.0707C45.7508 18.0797 45.4622 17.9263 46.1747 17.9804V8.19097C46.1747 7.81202 45.8681 7.51427 45.4983 7.51427H34.613V2.35337H36.4527L35.4968 4.26615C35.2713 4.70826 35.605 5.24961 36.101 5.24961H41.8819C42.3779 5.24961 42.7116 4.70826 42.4861 4.26615L41.0432 1.36991C40.9259 1.14435 40.6914 0.990967 40.4389 0.990967H33.9366C33.5578 0.990967 33.2602 1.29773 33.2602 1.66766V7.49623H23.7637V5.24059H25.9733C26.4693 5.24059 26.803 4.69924 26.5775 4.25713L25.1345 1.36089C25.0263 1.14435 24.7918 0.999989 24.5303 0.999989H21.6444C21.3919 0.999989 21.1574 1.14435 21.0401 1.37894L19.5972 4.27518C19.3717 4.71728 19.7054 5.25864 20.2014 5.25864H22.411V7.51427H12.9235V1.67668C12.9235 1.29773 12.6169 0.999989 12.2471 0.999989H5.73576C5.48324 0.999989 5.24876 1.14435 5.13152 1.37894L3.68856 4.27518C3.4631 4.71728 3.79679 5.25864 4.2928 5.25864H10.0737C10.5697 5.25864 10.9034 4.71728 10.6779 4.27518L9.72194 2.35337H11.5617V7.50525H0.676387C0.29761 7.50525 0 7.81202 0 8.18194V33.4902C0 33.8692 0.306629 34.1669 0.676387 34.1669H18.3256L20.2375 37.9925V45.8421H19.8317C19.4529 45.8421 19.1553 46.1489 19.1553 46.5188C19.1553 46.8887 19.4619 47.1955 19.8317 47.1955H26.6947C27.0735 47.1955 27.3711 46.8887 27.3711 46.5188C27.3711 46.1489 27.0645 45.8421 26.6947 45.8421H25.9282V38.0015L27.8401 34.1759H41.5302C41.5392 33.8241 41.5572 33.4722 41.5933 33.1293C41.6023 33.0301 41.6203 32.9218 41.6384 32.8225H1.35277V8.86766ZM37.9679 2.35337H40.0241L40.7906 3.88721H37.2013L37.9679 2.35337ZM21.2927 3.89623L22.0592 2.3624H24.1154L24.882 3.89623H21.2927ZM5.39306 3.89623L6.15963 2.3624H8.20683L8.9734 3.89623H5.39306ZM26.325 34.1759L24.6475 37.5323C24.6024 37.6225 24.5754 37.7308 24.5754 37.8391V45.8421H21.5903V37.8391C21.5903 37.7308 21.5632 37.6316 21.5181 37.5323L19.8407 34.1759H26.325V34.1759Z" fill="black"/>
<path d="M36.8225 12.5669H31.7631C31.3843 12.5669 31.0867 12.8737 31.0867 13.2436C31.0867 13.6135 31.3934 13.9203 31.7631 13.9203H36.1461V21.2466H10.0286V13.9203H28.4804C28.8592 13.9203 29.1568 13.6135 29.1568 13.2436C29.1568 12.8737 28.8502 12.5669 28.4804 12.5669H9.35217C8.97339 12.5669 8.67578 12.8737 8.67578 13.2436V21.9323C8.67578 22.3022 8.98241 22.609 9.35217 22.609H36.8225C37.2013 22.609 37.4989 22.3022 37.4989 21.9323V13.2526C37.4989 12.8737 37.1923 12.5669 36.8225 12.5669Z" fill="black"/>
<path d="M23.8088 24.1428H9.35217C8.97339 24.1428 8.67578 24.4496 8.67578 24.8195C8.67578 25.1894 8.98241 25.4962 9.35217 25.4962H23.8088C24.1876 25.4962 24.4852 25.1894 24.4852 24.8195C24.4852 24.4496 24.1876 24.1428 23.8088 24.1428Z" fill="black"/>
<path d="M36.8225 24.1428H26.7037C26.325 24.1428 26.0273 24.4496 26.0273 24.8195C26.0273 25.1894 26.334 25.4962 26.7037 25.4962H36.8225C37.2013 25.4962 37.4989 25.1894 37.4989 24.8195C37.4989 24.4496 37.1922 24.1428 36.8225 24.1428Z" fill="black"/>
<path d="M15.8545 27.0391H9.35217C8.97339 27.0391 8.67578 27.3458 8.67578 27.7158C8.67578 28.0857 8.98241 28.3925 9.35217 28.3925H15.8545C16.2333 28.3925 16.5309 28.0857 16.5309 27.7158C16.5399 27.3368 16.2333 27.0391 15.8545 27.0391Z" fill="black"/>
<path d="M26.7037 27.0391H18.7494C18.3706 27.0391 18.073 27.3458 18.073 27.7158C18.073 28.0857 18.3796 28.3925 18.7494 28.3925H26.7037C27.0825 28.3925 27.3801 28.0857 27.3801 27.7158C27.3801 27.3368 27.0734 27.0391 26.7037 27.0391Z" fill="black"/>
<path d="M36.8224 27.0391H30.275C29.8962 27.0391 29.5986 27.3458 29.5986 27.7158C29.5986 28.0857 29.9053 28.3925 30.275 28.3925H36.8224C37.2012 28.3925 37.4988 28.0857 37.4988 27.7158C37.4988 27.3368 37.1922 27.0391 36.8224 27.0391Z" fill="black"/>
<path d="M46.1747 17.6827H44.822H46.1747ZM44.822 17.6827H43.1355C41.9 17.6827 40.8989 18.6842 40.8989 19.9203V46.0045C40.8989 47.2406 41.9 48.2421 43.1355 48.2421H56.2574C57.4929 48.2421 58.494 47.2406 58.494 46.0045V19.9203C58.494 18.6842 57.4929 17.6827 56.2574 17.6827H46.1747H44.822ZM41.7918 34.1759V22.1579H57.6011V41.9714H44.9212C44.6777 41.9714 44.4702 42.1699 44.4702 42.4225C44.4702 42.6661 44.6686 42.8737 44.9212 42.8737H57.6011V46.0045C57.6011 46.7443 56.9969 47.3488 56.2574 47.3488H43.1355C42.396 47.3488 41.7918 46.7443 41.7918 46.0045V42.8646H43.1355C43.379 42.8646 43.5864 42.6661 43.5864 42.4135C43.5864 42.1699 43.388 41.9624 43.1355 41.9624H41.7918V34.1759V34.1759ZM57.6011 21.2646H41.7918V19.9203C41.7918 19.1804 42.396 18.5759 43.1355 18.5759H56.2574C56.9969 18.5759 57.6011 19.1804 57.6011 19.9203V21.2646V21.2646Z" fill="black" stroke="black" stroke-width="1.8623" stroke-miterlimit="10"/>
<path d="M51.9917 19.406H50.3143C50.0798 19.406 49.8904 19.5955 49.8904 19.8301C49.8904 20.0647 50.0798 20.2541 50.3143 20.2541H51.9917C52.2262 20.2541 52.4156 20.0647 52.4156 19.8301C52.4156 19.5955 52.2171 19.406 51.9917 19.406Z" fill="black"/>
<path d="M49.9174 44.0376C49.223 44.0376 48.6548 44.606 48.6548 45.3008C48.6548 45.9955 49.223 46.5639 49.9174 46.5639C50.6118 46.5639 51.18 45.9955 51.18 45.3008C51.18 44.597 50.6118 44.0376 49.9174 44.0376ZM49.9174 45.7158C49.6829 45.7158 49.4935 45.5263 49.4935 45.2917C49.4935 45.0571 49.6829 44.8677 49.9174 44.8677C50.1519 44.8677 50.3412 45.0571 50.3412 45.2917C50.3412 45.5263 50.1519 45.7158 49.9174 45.7158Z" fill="black"/>
<path d="M47.6355 20.2541C47.8696 20.2541 48.0594 20.0643 48.0594 19.8301C48.0594 19.5959 47.8696 19.406 47.6355 19.406C47.4014 19.406 47.2117 19.5959 47.2117 19.8301C47.2117 20.0643 47.4014 20.2541 47.6355 20.2541Z" fill="black"/>
</svg>
