<svg width="67" height="49" viewBox="0 0 67 49" fill="none" xmlns="http://www.w3.org/2000/svg">
<path d="M66.2644 0.115484C65.884 -0.0721069 65.43 -0.0278218 65.093 0.22979L46.9707 14.0867C46.0777 14.7761 45.8394 16.0233 46.4151 16.9933L43.5557 17.7728L39.3829 15.9962C39.3102 15.965 39.2343 15.9416 39.1565 15.9266C35.1534 15.1617 33.0779 15.8994 32.0055 16.7212H20.6128C21.0034 15.786 20.7163 14.705 19.9132 14.0867L1.79191 0.229659C1.45514 -0.0282136 1.00118 -0.0726293 0.620906 0.115223C0.240498 0.303076 -0.000130575 0.690538 5.9671e-08 1.11471V27.8687C-0.000130575 28.2688 0.214241 28.6382 0.561729 28.8364L7.46146 32.7783C7.7968 32.9706 8.17668 33.0716 8.5631 33.0712C9.13018 33.0696 9.67545 32.8528 10.0886 32.4645L11.3818 33.4977C10.6295 34.4584 10.4651 35.7547 10.9538 36.8728C11.4427 37.9909 12.5058 38.7505 13.722 38.8506C13.8167 38.8594 13.9104 38.8626 14.0039 38.8626C14.1753 38.8611 14.3464 38.8463 14.5156 38.8183C14.5852 39.614 14.8993 40.3687 15.4148 40.9789L15.4159 40.9801C16.0831 41.7717 17.0391 42.2637 18.0711 42.3463C18.1811 42.3561 18.2909 42.3604 18.4009 42.3604C18.4178 42.3604 18.434 42.3563 18.4507 42.3561C18.4818 43.0807 18.7517 43.7746 19.2184 44.3297C19.8533 45.0781 20.7855 45.5091 21.7669 45.5076C22.1569 45.507 22.5437 45.4368 22.9091 45.3006C23.2812 46.63 24.4434 47.5861 25.8198 47.6947C25.9145 47.7035 26.0082 47.7067 26.1017 47.7067C26.8687 47.7113 27.6125 47.4436 28.2006 46.9513L29.9488 45.6006L34.0651 48.3513C34.7022 48.7745 35.4502 49.0003 36.215 49C36.4775 49.0001 36.7393 48.9743 36.9966 48.9227C38.6736 48.5888 39.9346 47.197 40.1023 45.4955C41.2181 45.8359 42.4282 45.6513 43.3916 44.9936C44.355 44.3358 44.9677 43.2761 45.0571 42.1129C46.3482 42.5396 47.7685 42.2593 48.8006 41.3738C49.8328 40.4884 50.3259 39.1273 50.1007 37.7863C51.2178 37.6586 52.2226 37.0477 52.8503 36.115C53.4725 35.1772 53.6605 34.0165 53.3658 32.9302L55.564 30.7328L56.4613 32.0784C57.112 33.0529 58.4054 33.3585 59.4235 32.7783L66.3232 28.8364C66.6707 28.6381 66.885 28.2687 66.8849 27.8687V1.11471C66.8849 0.6908 66.6444 0.303468 66.2644 0.115484ZM2.22954 27.222V3.37038L14.6752 12.8871L4.46692 28.5003L2.22954 27.222ZM8.56741 30.8428L6.4058 29.608L16.4507 14.2449L18.5589 15.8568L8.56741 30.8428ZM14.7007 36.3752C14.4823 36.5659 14.1946 36.6578 13.9061 36.6289C13.4755 36.5926 13.1068 36.3058 12.9655 35.8975C12.8241 35.4891 12.9369 35.0359 13.2529 34.7412L16.0409 32.5858C16.237 32.4187 16.4865 32.3271 16.7441 32.3278C16.7745 32.3278 16.805 32.3288 16.8355 32.331C17.2662 32.3675 17.6351 32.6545 17.7764 33.063C17.9177 33.4716 17.8048 33.925 17.4887 34.2197L14.7007 36.3752ZM18.2551 40.1244C17.5898 40.0694 17.0208 39.6241 16.8076 38.9914C16.5944 38.3588 16.7778 37.6599 17.2743 37.2135L20.7851 34.4985C21.3013 34.0612 22.03 33.9779 22.6315 34.2874C23.233 34.597 23.5888 35.2384 23.5329 35.9126C23.5012 36.3253 23.3151 36.7109 23.0119 36.9929L22.0566 37.7383L19.4734 39.7347C19.136 40.0228 18.6971 40.1632 18.2551 40.1244ZM23.9486 41.8521L23.9461 41.8547L22.4583 43.0158C22.2377 43.2031 21.9517 43.2949 21.6633 43.271C21.3748 43.2471 21.1078 43.1094 20.9211 42.8884C20.7329 42.6684 20.6412 42.3821 20.6664 42.0937C20.6855 41.8198 20.81 41.5638 21.0136 41.3796L23.6195 39.3457L24.3883 38.7516C24.3968 38.7444 24.4025 38.7353 24.411 38.7279L25.1982 38.1137C25.3939 37.9464 25.6429 37.8544 25.9004 37.8547C25.9314 37.8545 25.9622 37.856 25.9929 37.859C26.4244 37.8954 26.7935 38.1831 26.9342 38.5926C27.0749 39.002 26.9606 39.456 26.6428 39.7499L24.0352 41.7851L23.9486 41.8521ZM29.5865 43.0637L26.7985 45.2192C26.5809 45.4113 26.2926 45.5033 26.0039 45.4729C25.5736 45.4366 25.205 45.1501 25.0637 44.7421C24.9222 44.3341 25.0344 43.8811 25.3499 43.5862L25.4009 43.5465L28.1387 41.4299C28.5917 41.0474 29.2671 41.0963 29.6603 41.54C30.0534 41.9836 30.0207 42.66 29.5865 43.0637ZM50.9943 34.8805C50.4841 35.6357 49.4656 35.848 48.6961 35.3595L48.6874 35.354L41.3664 30.2942C41.0389 30.0665 40.6148 30.0312 40.2541 30.2017C39.8936 30.372 39.6515 30.7223 39.6195 31.1198C39.5875 31.5173 39.7704 31.9016 40.0991 32.1275L47.1835 37.025L47.187 37.0285C47.7488 37.4013 48.0302 38.0762 47.8994 38.7376C47.7686 39.399 47.2518 39.9162 46.5904 40.0472C46.162 40.1363 45.7157 40.0509 45.3505 39.8099L38.0241 34.7543C37.5172 34.4056 36.8238 34.5333 36.4744 35.0395C36.1249 35.5457 36.2512 36.2394 36.7569 36.5897L42.1078 40.2814L42.1097 40.2834C42.8824 40.8261 43.094 41.8794 42.5908 42.6783C42.0884 43.4399 41.0669 43.6559 40.2992 43.1627L38.3275 41.7635L38.3266 41.7628H38.3264L36.3171 40.3367C35.9923 40.106 35.5692 40.0662 35.2071 40.2322C34.845 40.3981 34.5988 40.7447 34.5615 41.1412C34.5241 41.5376 34.7011 41.924 35.0259 42.1547L37.0928 43.6211C37.1925 43.7017 37.287 43.7882 37.3763 43.8802C38.0068 44.4781 38.0759 45.4586 37.5355 46.139C36.9951 46.8193 36.0242 46.9739 35.2992 46.495L31.6274 44.0411C32.2507 43.0787 32.3297 41.8619 31.8363 40.827C31.3429 39.7921 30.3479 39.0873 29.2078 38.9656C29.2335 37.2302 27.9068 35.7732 26.1766 35.6371C26.0335 35.6286 25.8899 35.6298 25.747 35.6407C25.7114 34.2685 24.9519 33.0178 23.7509 32.3532C22.55 31.6887 21.0869 31.7095 19.9053 32.408C19.5717 31.3595 18.7395 30.5447 17.6841 30.2334C16.6289 29.922 15.4878 30.1544 14.6383 30.8538L13.1158 32.0303L11.3797 30.6431L19.1752 18.9508H28.96C28.1137 19.6936 27.7188 20.8256 27.9195 21.9336C28.1527 23.2783 29.219 24.3236 30.5681 24.5299C32.6302 24.8218 34.7326 24.5188 36.6285 23.6569L39.4709 25.4651C39.5345 25.5017 39.6018 25.5319 39.6714 25.5553L50.5389 32.5543C50.7535 32.7019 50.9339 32.8938 51.0679 33.1171C51.0734 33.1301 51.08 33.1421 51.0865 33.1552C51.3749 33.7036 51.3394 34.3659 50.9943 34.8805ZM52.1351 31.0086C52.0167 30.894 51.8913 30.7871 51.7597 30.6883L40.7351 23.5873C40.6845 23.5627 40.6318 23.5423 40.5779 23.5261L37.2984 21.4404C36.949 21.2182 36.5051 21.2076 36.1455 21.4132C34.5425 22.2453 32.7229 22.5656 30.9322 22.3309C30.5144 22.2816 30.1804 21.9605 30.1147 21.5449C30.0324 21.1098 30.2445 20.672 30.6372 20.4672C31.4721 20.0323 32.2566 19.507 32.9766 18.9007C33.0538 18.8357 33.1172 18.7557 33.1628 18.6656C33.198 18.6216 33.2374 18.5812 33.2803 18.5448C33.6069 18.2649 34.9536 17.417 38.6211 18.0951L43.0387 19.9763C43.2689 20.0763 43.5265 20.094 43.7681 20.0263L47.7079 18.952L54.3028 28.8415L52.1351 31.0086ZM58.3175 30.8428L48.325 15.858L50.4344 14.2449L60.4791 29.608L58.3175 30.8428ZM64.6554 27.222L62.418 28.5002L52.2098 12.8872L64.6554 3.37025V27.222Z" fill="black"/>
</svg>
