<svg width="18" height="18" viewBox="0 0 18 18" fill="none" xmlns="http://www.w3.org/2000/svg">
<path fill-rule="evenodd" clip-rule="evenodd" d="M6.62747 7.62252C6.1556 5.85315 6.6131 3.8869 7.99997 2.50003C10.0693 0.430661 13.4306 0.430661 15.4999 2.50003C17.5693 4.5694 17.5693 7.93064 15.4999 10C14.1131 11.3869 12.1468 11.8444 10.3775 11.3725L7.99997 13.75L6.11935 13.7519L6.12497 15.625L4.2606 15.6106L4.24998 17.5L0.47999 17.48L0.20624 14.0437L6.62747 7.62252V7.62252ZM12.375 3.75003C12.8925 3.23253 13.7325 3.23253 14.25 3.75003C14.7675 4.26753 14.7675 5.10752 14.25 5.62502C13.7325 6.14252 12.8925 6.14252 12.375 5.62502C11.8575 5.10752 11.8575 4.26753 12.375 3.75003Z" fill="white"/>
</svg>
