<svg width="39" height="30" viewBox="0 0 39 30" fill="none" xmlns="http://www.w3.org/2000/svg">
<path d="M8.19466 27.0856C8.18078 26.9689 8.1749 26.8515 8.17708 26.734V26.6338L8.19466 27.0856Z" fill="#E3E3E5"/>
<path d="M14.23 28.7628L8.70801 27.5972C10.0863 27.882 13.8924 28.6696 14.2089 28.7557L14.23 28.7628Z" fill="#E3E3E5"/>
<path d="M30.9066 26.6953C30.9066 27.5022 30.555 27.8749 29.8272 28.0261C28.0287 28.3936 26.2197 28.6942 24.4248 29.081L23.9818 29.1583L20.3427 29.7806V29.0774V10.1224C20.3427 7.04581 20.3427 3.96985 20.3427 0.894471C20.3432 0.84326 20.3509 0.792375 20.3655 0.743278C20.398 0.643064 20.4511 0.550735 20.5213 0.472186C20.5915 0.393636 20.6773 0.330595 20.7733 0.287085C20.8693 0.243575 20.9732 0.220552 21.0786 0.21949C21.1839 0.218429 21.2883 0.239353 21.3852 0.280921C22.9498 0.919085 27.6631 2.84413 29.7411 3.70204C30.0794 3.84226 30.3684 4.07994 30.5712 4.38485C30.7741 4.68977 30.8817 5.04813 30.8803 5.41436V5.42843C30.8908 12.515 30.8609 19.6052 30.9066 26.6953Z" fill="#D29719"/>
<path d="M33.9656 21.1224C33.9551 20.7373 33.9428 20.3523 33.934 19.9673C33.934 19.6403 33.934 19.3133 33.934 18.9881L33.9656 21.1224Z" fill="#E3E3E5"/>
<path d="M8.19466 27.0856C8.18078 26.9689 8.1749 26.8515 8.17708 26.734V26.6338L8.19466 27.0856Z" fill="#353535"/>
<path d="M14.23 28.7628L8.70801 27.5972C10.0863 27.882 13.8924 28.6696 14.2089 28.7557L14.23 28.7628Z" fill="#353535"/>
<path d="M33.9656 21.1224C33.9551 20.7373 33.9428 20.3523 33.934 19.9673C33.934 19.6403 33.934 19.3133 33.934 18.9881L33.9656 21.1224Z" fill="#C8C8CA"/>
<path d="M6.22561 26.291C6.22561 19.3485 6.21154 12.4025 6.22561 5.46006C6.22561 4.85178 6.07793 4.75685 5.53822 5.01352C4.01225 5.75365 2.49156 6.5096 0.92867 7.16183C0.169202 7.47828 -0.0101167 7.91954 0.000431481 8.6878C0.0514143 11.9964 0.0303158 15.3068 0.0531702 18.6172C0.0689924 21.0468 0.112941 23.4764 0.144586 25.906L1.53167 26.0888C1.54749 23.5414 1.57738 20.9905 1.56332 18.4466C1.56332 17.819 1.69165 17.7786 2.40365 17.5026C2.84491 17.3201 3.33163 17.2777 3.79777 17.3813C4.58713 17.5114 4.67679 17.4727 4.66448 18.146C4.63459 20.8112 4.6803 23.4781 4.63459 26.1433C4.61877 27.0557 5.26924 26.8992 5.75797 26.9871C6.3557 27.0979 6.22561 26.6162 6.22561 26.291ZM3.95423 15.7709C3.37113 15.7623 2.78864 15.8124 2.21555 15.9203C1.5809 16.061 1.56507 15.7604 1.56859 15.2857C1.58441 13.2974 1.58969 11.3073 1.56859 9.31893C1.56859 8.81614 1.69693 8.50497 2.17511 8.29576C2.96622 7.94416 3.73448 7.54332 4.63635 7.1003C4.63635 9.87096 4.6258 12.443 4.63635 15.0114C4.65217 15.5406 4.48692 15.7604 3.95423 15.7709Z" fill="#353535"/>
<path d="M38.5295 26.0273C38.0099 26.2105 37.4631 26.3044 36.9121 26.305C36.6396 26.305 36.7064 25.9341 36.666 25.7161C36.2124 23.3076 35.7612 20.8979 35.3123 18.4871C35.2508 17.4235 34.9607 16.4021 34.755 15.3666C34.6566 13.9865 34.2716 12.6645 33.9956 11.3231C33.9522 13.8851 33.9311 16.4407 33.9323 18.9899C33.9323 19.3151 33.9323 19.6421 33.9323 19.9691C33.9323 20.3541 33.9534 20.7391 33.9639 21.1241V21.5074L34.0255 25.2643C34.0255 25.5262 34.0044 25.7917 34.0008 26.0519C34.0008 26.8658 33.5543 27.2298 32.7421 27.1208C32.5663 27.0961 32.4819 27.0311 32.4784 26.8588C32.4784 26.6549 32.4784 26.4492 32.4784 26.2435C32.4784 19.4751 32.5909 12.7067 32.4942 5.94002C32.4731 4.46503 33.8795 3.23441 34.3929 5.92771C34.7445 7.76778 35.0961 9.60668 35.4477 11.4444C35.671 12.5889 35.9083 13.7298 36.1404 14.8761L36.8875 18.7051C36.8845 18.7272 36.8862 18.7498 36.8928 18.7712C36.8993 18.7926 36.9103 18.8123 36.9252 18.8291C36.9401 18.8458 36.9584 18.8591 36.9789 18.868C36.9994 18.8769 37.0216 18.8813 37.044 18.8809C37.0953 18.8719 37.1419 18.8455 37.1758 18.8061C37.2098 18.7667 37.2291 18.7167 37.2303 18.6646C37.2116 16.4987 37.187 14.3305 37.1565 12.1599C37.1336 10.5777 37.0879 8.99547 37.0985 7.41324C37.0985 7.14778 37.044 6.5606 37.3815 6.63444C37.8421 6.73465 38.6737 6.5817 38.6807 7.47478C38.693 8.7054 38.6807 9.93602 38.6807 11.1666C38.6807 15.8219 38.6807 20.4766 38.6807 25.1307C38.6754 25.4454 38.8495 25.913 38.5295 26.0273Z" fill="#353535"/>
<path d="M33.9656 21.1224C33.9551 20.7373 33.9428 20.3523 33.934 19.9673C33.934 19.6421 33.934 19.3151 33.934 18.9881L33.9656 21.1224Z" fill="#BBBBBB"/>
<path d="M18.2329 3.58603C18.2329 11.3928 18.2388 19.1985 18.2505 27.003C18.256 27.3162 18.1906 27.6267 18.059 27.911C17.9275 28.1954 17.7333 28.4463 17.4911 28.645C16.9636 29.0651 16.2921 29.1724 15.4412 29.0159C15.0386 28.9438 14.6378 28.8594 14.2369 28.7715H14.2194C13.9029 28.6854 10.0968 27.8925 8.7185 27.613L8.64993 27.5989L8.52687 27.5726L8.42315 27.5515C8.2947 27.4357 8.21701 27.274 8.20691 27.1014L8.18933 26.6566C8.20691 19.6773 8.19988 12.6961 8.2034 5.71676C8.2034 5.01354 8.23328 4.31033 8.2491 3.60712C10.4783 2.52418 12.7039 1.4342 14.9296 0.361804C16.4187 -0.353713 17.4612 -0.00913957 18.1363 1.40607C18.2106 1.5613 18.2485 1.73148 18.247 1.90359C18.2329 2.45386 18.2329 3.01643 18.2329 3.58603Z" fill="#353535"/>
</svg>
