<svg width="69" height="49" viewBox="0 0 69 49" fill="none" xmlns="http://www.w3.org/2000/svg">
<path d="M27.8945 45.443C17.8507 42.7769 10.836 33.6487 10.836 23.2446C10.836 19.271 11.8664 15.3707 13.8139 11.9353C14.9114 11.6154 17.8352 10.5576 19.3066 8.04568C21.1008 4.98263 19.9526 1.09077 19.9028 0.926633C19.7513 0.427161 19.2415 0.128329 18.7317 0.240508C18.5643 0.277412 14.6081 1.1791 12.8137 4.24215C11.3557 6.73112 11.8408 9.76752 12.1004 10.9061C11.0946 12.672 10.3117 14.5507 9.76614 16.4986C9.32836 15.6674 8.73309 14.847 7.92133 14.1839C7.92133 14.1838 7.92133 14.1838 7.92133 14.1838C5.17217 11.9382 1.14975 12.4714 0.979879 12.4955C0.46322 12.5678 0.0891156 13.0258 0.121224 13.5465C0.131882 13.7177 0.411661 17.7657 3.16096 20.0116C4.99817 21.5124 7.40388 21.7719 8.84847 21.7719C8.86033 21.7719 8.87165 21.7718 8.88337 21.7718C8.8546 22.2614 8.83754 22.7523 8.83754 23.2446C8.83754 25.5087 9.14397 27.7171 9.72045 29.8248C9.01607 29.3928 8.21364 29.0395 7.32434 28.8662C3.83989 28.1867 0.54782 30.5587 0.409263 30.66C-0.0118714 30.9681 -0.124982 31.5483 0.149601 31.9921C0.183175 32.0463 0.986274 33.332 2.36998 34.4877C2.79365 34.8416 3.42382 34.7851 3.7774 34.3614C4.13126 33.9379 4.07477 33.3077 3.6511 32.954C3.16029 32.5439 2.75581 32.1102 2.45525 31.7507C3.46858 31.2113 5.2252 30.4929 6.94197 30.8277C8.65875 31.1624 10.017 32.4879 10.7531 33.3678C9.83382 33.857 8.30223 34.4936 6.74373 34.3572C6.20216 34.311 5.70868 34.7237 5.66125 35.2657C5.61382 35.808 6.02736 36.3007 6.56973 36.3481C6.77344 36.3659 6.97528 36.3743 7.17566 36.3743C9.07016 36.3741 10.7895 35.628 11.8161 35.0662C12.9983 37.263 14.5032 39.2717 16.2762 41.0229C15.3371 41.0037 14.3312 41.1273 13.3581 41.5167C10.0622 42.8353 8.58188 46.6132 8.52059 46.7735C8.33381 47.2607 8.55337 47.8096 9.02473 48.0336C9.13691 48.0869 11.095 49 13.4182 49C14.3042 49 15.2434 48.8672 16.1532 48.5032C18.3723 47.6155 19.7672 45.614 20.4613 44.3513C22.5618 45.681 24.8853 46.712 27.3818 47.3746C27.9223 47.5179 28.4896 47.174 28.6129 46.6288C28.7298 46.1116 28.4068 45.5789 27.8945 45.443ZM4.42503 18.464C3.0693 17.3565 2.49921 15.544 2.267 14.4208C3.41103 14.4221 5.29327 14.6178 6.657 15.7318C8.01153 16.8383 8.58175 18.6484 8.81436 19.7719C7.66647 19.7679 5.77916 19.5702 4.42503 18.464ZM14.5381 5.25242C15.4221 3.74321 17.1223 2.90028 18.1964 2.49699C18.37 3.6317 18.4661 5.52674 17.5822 7.03555C16.6983 8.54476 14.998 9.38769 13.9239 9.79097C13.7503 8.65627 13.6541 6.76123 14.5381 5.25242ZM15.4109 46.6476C13.7855 47.2979 11.9235 46.9193 10.8284 46.5789C11.3834 45.5783 12.4656 44.0261 14.1005 43.3721C15.726 42.7218 17.5878 43.1003 18.683 43.4408C18.1281 44.4414 17.0459 45.9936 15.4109 46.6476Z" fill="black"/>
<path d="M67.9844 30.6599C67.8459 30.5585 64.5534 28.1868 61.0693 28.8661C60.18 29.0394 59.3776 29.3928 58.6732 29.8247C59.2498 27.717 59.5561 25.5086 59.5561 23.2445C59.5561 22.7521 59.5391 22.2609 59.5102 21.7712C59.5218 21.7712 59.5329 21.7714 59.5448 21.7714C60.4292 21.7714 61.6739 21.6747 62.9228 21.2574C63.4463 21.0825 63.7287 20.5164 63.5538 19.993C63.3788 19.4697 62.8129 19.1873 62.2893 19.362C61.3029 19.6917 60.2962 19.77 59.5792 19.7722C59.8119 18.6482 60.3821 16.8381 61.7365 15.7317C63.0912 14.6251 64.9789 14.4275 66.1261 14.4238C65.9628 15.2126 65.6329 16.3397 64.9809 17.3258C64.6765 17.7861 64.8029 18.406 65.2632 18.7104C65.7234 19.0148 66.3433 18.8884 66.6479 18.4281C68.0909 16.2461 68.2658 13.6557 68.2725 13.5465C68.3046 13.0257 67.9306 12.5678 67.4138 12.4954C67.2438 12.4715 63.2214 11.9381 60.4723 14.184C59.6604 14.8472 59.0653 15.6675 58.6275 16.4987C58.082 14.5507 57.2991 12.6721 56.2932 10.9062C56.5529 9.76758 57.038 6.73118 55.5799 4.24221C53.7856 1.17916 49.8294 0.277473 49.6619 0.240569C49.1522 0.128391 48.6422 0.427222 48.4907 0.926694C48.4409 1.09083 47.2927 4.98269 49.0869 8.04574C50.5583 10.5576 53.4823 11.6155 54.5797 11.9353C56.5272 15.3708 57.5576 19.271 57.5576 23.2447C57.5576 33.6487 50.5428 42.777 40.4989 45.443C39.9866 45.5791 39.6636 46.1117 39.7805 46.6288C39.9039 47.1739 40.4712 47.5178 41.0116 47.3746C43.5081 46.7119 45.8318 45.681 47.9321 44.3512C48.6262 45.614 50.0211 47.6154 52.2402 48.5031C53.1503 48.8673 54.0891 49 54.9752 49C57.298 49 59.2565 48.0868 59.3687 48.0335C59.84 47.8096 60.0595 47.2607 59.8728 46.7734C59.8114 46.6133 58.3311 42.8352 55.0352 41.5167C54.0621 41.1274 53.0563 41.0036 52.1172 41.0228C53.8901 39.2716 55.395 37.2632 56.5771 35.0664C57.6034 35.6282 59.3222 36.3741 61.218 36.3741C61.6414 36.3741 62.0739 36.3367 62.509 36.2519C65.9933 35.5726 68.1537 32.1379 68.2439 31.992C68.5185 31.5483 68.4054 30.9679 67.9844 30.6599ZM54.2932 43.372C55.9186 44.0223 57.0056 45.5805 57.5638 46.5825C56.4718 46.9241 54.6174 47.3016 52.9827 46.6475C51.3573 45.9973 50.2703 44.439 49.712 43.437C50.804 43.0953 52.6584 42.7178 54.2932 43.372ZM50.8114 7.03547C49.9273 5.52626 50.0237 3.63096 50.1971 2.49692C51.2717 2.90047 52.9717 3.7434 53.8556 5.25235C54.7397 6.76156 54.6433 8.65686 54.4699 9.7909C53.3951 9.38735 51.6953 8.54442 50.8114 7.03547ZM62.1268 34.2904C60.4087 34.6253 58.6502 33.9055 57.6378 33.3663C58.37 32.4871 59.7233 31.1646 61.4517 30.8276C63.1701 30.493 64.9284 31.2125 65.9407 31.7518C65.2085 32.6309 63.8551 33.9534 62.1268 34.2904Z" fill="black"/>
<path d="M43.7652 32.8224C43.7652 30.4763 41.8565 28.5674 39.5102 28.5674H39.4887V15.0723C39.4887 14.5205 39.0413 14.0731 38.4895 14.0731C37.9377 14.0731 37.4903 14.5205 37.4903 15.0723V29.5666C37.4903 30.1184 37.9377 30.5658 38.4895 30.5658H39.5102C40.7544 30.5658 41.7668 31.5781 41.7668 32.8224C41.7668 34.0666 40.7545 35.079 39.5102 35.079H30.3124C29.0681 35.079 28.0557 34.0668 28.0557 32.8224C28.0557 31.5782 29.068 30.5658 30.3124 30.5658H31.9778C32.5297 30.5658 32.9771 30.1184 32.9771 29.5666V12.1065C32.9771 11.7025 32.7338 11.3383 32.3606 11.1835C31.9877 11.0287 31.5578 11.1138 31.272 11.3993L30.4772 12.1927C29.5964 13.0716 28.1649 13.0703 27.2858 12.1899C26.4068 11.3093 26.4082 9.87772 27.2889 8.99855L33.6395 2.65968C34.2875 2.01313 35.2527 1.82168 36.0982 2.17233C36.9438 2.52312 37.4903 3.34128 37.4903 4.25682V11.0754C37.4903 11.6273 37.9377 12.0746 38.4895 12.0746C39.0413 12.0746 39.4887 11.6273 39.4887 11.0754V4.25682C39.4887 2.53058 38.4585 0.987801 36.8637 0.326457C35.269 -0.334488 33.4494 0.0261597 32.2278 1.24533L25.8772 7.5842C24.2166 9.24169 24.2141 11.941 25.8716 13.6017C27.252 14.9845 29.3551 15.2174 30.9789 14.2992V28.5674H30.3126C27.9665 28.5674 26.0576 30.4761 26.0576 32.8224C26.0576 35.1686 27.9663 37.0775 30.3126 37.0775H39.5104C41.8564 37.0773 43.7652 35.1686 43.7652 32.8224Z" fill="black"/>
</svg>
