<svg width="49" height="49" viewBox="0 0 49 49" fill="none" xmlns="http://www.w3.org/2000/svg">
<path d="M48.2808 47.5617H43.6301V19.1302C43.6301 18.7331 43.3082 18.411 42.9109 18.411H35.2397C34.8424 18.411 34.5205 18.7331 34.5205 19.1302V47.5617H29.0548V27.5686C29.0548 27.1714 28.7329 26.8493 28.3356 26.8493H20.6644C20.2671 26.8493 19.9452 27.1714 19.9452 27.5686V47.5617H14.4795V31.4041C14.4795 31.007 14.1576 30.6849 13.7603 30.6849H6.08911C5.69185 30.6849 5.3699 31.007 5.3699 31.4041V47.5616H0.719209C0.321945 47.5616 0 47.8836 0 48.2808C0 48.678 0.321945 49 0.719209 49H48.2808C48.6781 49 49 48.678 49 48.2808C48.9999 47.8836 48.6781 47.5617 48.2808 47.5617ZM13.0411 47.5617H6.80822V32.1234H13.0411V47.5617ZM27.6165 47.5617H21.3836V28.2878H27.6165V47.5617ZM42.1918 47.5617H35.9589V19.8494H42.1918V47.5617Z" fill="black"/>
<path d="M46.704 0.564149C46.2192 0.13626 45.5741 -0.0630893 44.9329 0.0174928L38.7959 0.784649C37.5776 0.936913 36.687 2.08047 36.8395 3.30001C36.9934 4.53238 38.1209 5.41065 39.3549 5.25657L39.8556 5.19408C32.3233 13.9276 23.3687 18.4411 17.041 20.7095C9.15111 23.538 3.01013 23.7799 2.95031 23.7819C1.70971 23.8207 0.730862 24.8616 0.768377 26.1024C0.80551 27.3278 1.79441 28.2876 3.01989 28.2876C3.04267 28.2876 3.06554 28.2873 3.08899 28.2866C3.36203 28.2783 9.87185 28.0485 18.4483 24.9925C23.2696 23.2744 27.8063 20.9937 31.9322 18.2138C32.2616 17.992 32.3487 17.5449 32.1267 17.2155C31.9048 16.886 31.4579 16.799 31.1284 17.021C27.1023 19.7338 22.6737 21.9599 17.9655 23.6376C9.59977 26.6185 3.30901 26.8409 3.04592 26.8488L3.01989 26.8492C2.57698 26.8492 2.21943 26.5021 2.20603 26.0589C2.19244 25.61 2.54654 25.2336 2.99558 25.2195C3.05836 25.2175 9.37458 24.9857 17.5264 22.0634C24.3557 19.6152 34.1685 14.6163 42.1341 4.70494C42.5307 4.21149 42.1115 3.46223 41.4845 3.5408L39.1769 3.82925C38.7769 3.87873 38.3883 3.6166 38.2868 3.22594C38.1647 2.75585 38.4931 2.27197 38.9745 2.21168L45.1117 1.44452C45.5908 1.38394 46.0276 1.77125 46.0276 2.25331V8.39027C46.0276 8.8397 45.662 9.20538 45.2125 9.20538C44.763 9.20538 44.3974 8.83979 44.3974 8.39027V6.52981C44.3974 6.2359 44.2074 5.96104 43.9325 5.8572C43.6486 5.74992 43.313 5.83998 43.121 6.07502C40.4349 9.36635 37.3765 12.3446 34.0304 14.9271C33.716 15.1698 33.6577 15.6214 33.9004 15.9359C34.1431 16.2504 34.5949 16.3085 34.9092 16.0659C37.8239 13.8164 40.5256 11.2744 42.9614 8.49182C43.0146 9.68743 44.004 10.6439 45.2126 10.6439C46.4551 10.6439 47.4661 9.63298 47.4661 8.39047V2.2535C47.466 1.6075 47.1882 0.991655 46.704 0.564149Z" fill="black"/>
</svg>
