<svg width="112" height="117" viewBox="0 0 112 117" fill="none" xmlns="http://www.w3.org/2000/svg">
<path d="M96.5914 42.4124L96.9242 41.7403L96.5914 42.4124ZM78.266 26.9067L77.688 27.3846L78.266 26.9067ZM0.546637 7.20085C0.216681 6.95045 0.152188 6.47997 0.402589 6.15001L4.48312 0.773052C4.73352 0.443091 5.204 0.378596 5.53395 0.629001C5.86391 0.879406 5.92841 1.34988 5.678 1.67983L2.05086 6.45936L6.83039 10.0865C7.16035 10.3369 7.22484 10.8074 6.97444 11.1373C6.72403 11.4673 6.25356 11.5318 5.9236 11.2814L0.546637 7.20085ZM67.8576 115.361C89.5255 105.828 102.946 90.7725 107.763 76.6071C110.171 69.526 110.422 62.6924 108.522 56.8714C106.626 51.0633 102.572 46.2102 96.2587 43.0846L96.9242 41.7403C103.588 45.0392 107.923 50.2028 109.948 56.4059C111.969 62.5962 111.673 69.7684 109.183 77.09C104.205 91.7301 90.4332 107.068 68.4617 116.734L67.8576 115.361ZM96.2587 43.0846C80.7408 35.4022 66.3356 41.64 58.2801 50.7951C54.2456 55.3802 51.8699 60.6276 51.7096 65.1271C51.6298 67.3677 52.0986 69.4029 53.1594 71.0946C54.2173 72.7817 55.8953 74.1774 58.3231 75.0943L57.7931 76.4976C55.0956 75.4788 53.1404 73.8878 51.8886 71.8915C50.6397 69.8999 50.1221 67.5552 50.2105 65.0737C50.3867 60.1292 52.9657 54.5641 57.1539 49.8042C65.5438 40.2691 80.6559 33.6864 96.9242 41.7403L96.2587 43.0846ZM58.3231 75.0943C68.1498 78.8055 78.5785 73.7691 83.7974 64.2989C88.9911 54.8746 88.9849 41.0473 77.688 27.3846L78.844 26.4288C90.4917 40.5157 90.6322 55.0044 85.1111 65.0229C79.6152 74.9957 68.4677 80.529 57.7931 76.4976L58.3231 75.0943ZM77.688 27.3846C68.6765 16.486 54.0968 10.8365 39.4091 8.2379C24.7383 5.64232 10.0901 6.11435 1.10189 7.34646L0.898172 5.86035C10.017 4.61035 24.8239 4.13416 39.6704 6.76083C54.5 9.3845 69.4997 15.1276 78.844 26.4288L77.688 27.3846Z" fill="url(#paint0_linear_632_38)"/>
<defs>
<linearGradient id="paint0_linear_632_38" x1="159.13" y1="137.551" x2="-4.23331" y2="-14.2499" gradientUnits="userSpaceOnUse">
<stop stop-color="#D3981A"/>
<stop offset="1" stop-color="#272727"/>
</linearGradient>
</defs>
</svg>
