<svg width="20" height="19" viewBox="0 0 20 19" fill="none" xmlns="http://www.w3.org/2000/svg">
<path d="M16.535 18.0927L16.5247 18.1024L16.515 18.1127C16.4403 18.1916 16.3308 18.2714 16.1722 18.3441L16.172 18.3442C16.014 18.4167 15.8669 18.4608 15.7296 18.4815C15.69 18.4839 15.6432 18.4883 15.6039 18.492L15.6029 18.4921C15.5543 18.4967 15.4798 18.5 15.3749 18.5C15.1458 18.5 14.7428 18.4613 14.1447 18.3743C13.5976 18.2948 12.9034 18.0946 12.0542 17.7599L11.8709 18.2251L12.0542 17.7599C11.2225 17.4321 10.2656 16.9347 9.18116 16.2607L8.92952 16.6656L9.18116 16.2607C8.1178 15.5998 6.97373 14.6845 5.74911 13.5071L5.74914 13.5071L5.74446 13.5027C4.7712 12.5907 3.9721 11.7252 3.34308 10.9062C2.70489 10.0753 2.19781 9.3151 1.81779 8.62484L1.81778 8.62482C1.43242 7.92492 1.14974 7.30167 0.964093 6.75331C0.771704 6.18505 0.646092 5.70926 0.581391 5.32177C0.513032 4.91238 0.491794 4.62322 0.502677 4.437C0.51303 4.25985 0.520525 4.12628 0.523404 4.05346C0.544538 3.93288 0.588265 3.80141 0.661062 3.65806C0.735221 3.51204 0.816973 3.40984 0.900237 3.33861L0.910189 3.33009L0.919682 3.32107L3.73564 0.644167C3.84777 0.53757 3.95276 0.5 4.06867 0.5C4.15456 0.5 4.21407 0.521493 4.26538 0.558074C4.35129 0.619325 4.42571 0.694323 4.48943 0.785858L6.74376 4.85156L6.74359 4.85166L6.75073 4.86373C6.8099 4.96372 6.82917 5.06798 6.79873 5.20544C6.76308 5.36645 6.69148 5.49161 6.58248 5.59523L5.54502 6.58146C5.43375 6.68723 5.37607 6.81654 5.34357 6.90922C5.31341 6.99524 5.28365 7.10582 5.28365 7.22562V7.27522L5.29339 7.32386C5.36283 7.67039 5.51279 8.04007 5.724 8.42783C5.91166 8.78391 6.1906 9.20013 6.5505 9.67227C6.92628 10.1652 7.44826 10.7189 8.10688 11.3316C8.75196 11.9583 9.33701 12.4568 9.86048 12.8194L9.86055 12.8194C10.3642 13.1682 10.8009 13.436 11.1655 13.6129C11.5043 13.7774 11.808 13.8997 12.0529 13.9461L12.3171 13.9964L12.3635 14.0052H12.4106C12.5237 14.0052 12.6353 13.9719 12.6992 13.9517L12.6995 13.9516C12.7905 13.9227 12.9211 13.8708 13.0304 13.7669L13.0304 13.7669L13.0336 13.7639L14.227 12.6095C14.3863 12.479 14.5644 12.4152 14.782 12.4152C14.9737 12.4152 15.0678 12.4485 15.1058 12.4702L15.221 12.5359H15.244L19.2114 14.7637C19.4052 14.8787 19.4733 14.9882 19.4974 15.0814C19.5108 15.2104 19.4756 15.3173 19.3501 15.4368C19.3499 15.437 19.3497 15.4372 19.3495 15.4374L16.535 18.0927Z" stroke="#FFC29A"/>
</svg>
