<svg width="84" height="84" viewBox="0 0 84 84" fill="none" xmlns="http://www.w3.org/2000/svg">
<path d="M84 39.4142H63.6262C63.9745 54.2627 68.1859 55.9482 73.4754 56.4293L75.5152 56.6822V73.0096L73.164 72.8836C66.2569 72.495 58.6205 71.2498 53.5258 64.9604C49.0598 59.447 47.0909 50.4394 47.0909 36.6121V10.99H84V39.4142Z" fill="white"/>
<path d="M36.9091 10.99V39.4142H16.8072C17.1555 54.2627 21.2308 55.9482 26.5202 56.4293L28.4242 56.6822V73.0096L26.2088 72.8836C19.3018 72.495 11.5971 71.2498 6.50236 64.9604C2.03678 59.447 -3.8147e-06 50.4394 -3.8147e-06 36.6121V10.99H36.9091Z" fill="white"/>
</svg>
